MerriweatherSans-Regular.ufo
<glyph name="exclam" format="2">
  <advance width="595.0"/>
  <unicode hex="0021"/>
  <outline>
    <contour>
      <point x="204.0" y="503.0" type="line"/>
      <point x="406.0" y="503.0" type="line"/>
      <point x="432.0" y="1738.0" type="line"/>
      <point x="173.0" y="1738.0" type="line"/>
    </contour>
    <contour>
      <point x="289.0" y="-22.0" type="curve" smooth="yes"/>
      <point x="378.0" y="-22.0"/>
      <point x="456.0" y="56.0"/>
      <point x="454.0" y="156.0" type="curve" smooth="yes"/>
      <point x="453.0" y="239.0"/>
      <point x="401.0" y="310.0"/>
      <point x="304.0" y="310.0" type="curve" smooth="yes"/>
      <point x="219.0" y="310.0"/>
      <point x="137.0" y="230.0"/>
      <point x="140.0" y="133.0" type="curve" smooth="yes"/>
      <point x="142.0" y="45.0"/>
      <point x="208.0" y="-22.0"/>
    </contour>
  </outline>
</glyph>
<glyph name="dollar" format="2">
  <advance width="1346.0"/>
  <unicode hex="0024"/>
  <anchor x="660.0" y="0.0" name="bottom"/>
  <anchor x="654.0" y="-166.0" name="btm"/>
  <anchor x="696.0" y="1660.0" name="top"/>
  <outline>
    <contour>
      <point x="615.0" y="1463.0" type="line"/>
      <point x="778.0" y="1463.0" type="line"/>
      <point x="781.0" y="1720.0" type="line"/>
      <point x="618.0" y="1720.0" type="line"/>
    </contour>
    <contour>
      <point x="573.0" y="-230.0" type="line"/>
      <point x="737.0" y="-230.0" type="line"/>
      <point x="740.0" y="22.0" type="line"/>
      <point x="576.0" y="22.0" type="line"/>
    </contour>
    <component base="S" xOffset="100.0"/>
  </outline>
</glyph>
<glyph name="percent" format="2">
  <advance width="1955.0"/>
  <unicode hex="0025"/>
  <outline>
    <contour>
      <point x="430.0" y="643.0" type="curve" smooth="yes"/>
      <point x="630.0" y="647.0"/>
      <point x="812.0" y="791.0"/>
      <point x="812.0" y="1057.0" type="curve" smooth="yes"/>
      <point x="812.0" y="1286.0"/>
      <point x="706.0" y="1470.0"/>
      <point x="460.0" y="1465.0" type="curve" smooth="yes"/>
      <point x="261.0" y="1461.0"/>
      <point x="79.0" y="1315.0"/>
      <point x="79.0" y="1049.0" type="curve" smooth="yes"/>
      <point x="79.0" y="829.0"/>
      <point x="205.0" y="640.0"/>
    </contour>
    <contour>
      <point x="565.0" y="0.0" type="line"/>
      <point x="760.0" y="0.0" type="line"/>
      <point x="1384.0" y="1494.0" type="line"/>
      <point x="1189.0" y="1494.0" type="line"/>
    </contour>
    <contour>
      <point x="444.0" y="794.0" type="curve" smooth="yes"/>
      <point x="339.0" y="794.0"/>
      <point x="278.0" y="906.0"/>
      <point x="278.0" y="1057.0" type="curve" smooth="yes"/>
      <point x="278.0" y="1216.0"/>
      <point x="339.0" y="1314.0"/>
      <point x="448.0" y="1314.0" type="curve" smooth="yes"/>
      <point x="553.0" y="1314.0"/>
      <point x="613.0" y="1209.0"/>
      <point x="613.0" y="1049.0" type="curve" smooth="yes"/>
      <point x="613.0" y="891.0"/>
      <point x="553.0" y="794.0"/>
    </contour>
    <contour>
      <point x="1495.0" y="43.0" type="curve" smooth="yes"/>
      <point x="1695.0" y="47.0"/>
      <point x="1876.0" y="191.0"/>
      <point x="1876.0" y="457.0" type="curve" smooth="yes"/>
      <point x="1876.0" y="684.0"/>
      <point x="1770.0" y="870.0"/>
      <point x="1525.0" y="865.0" type="curve" smooth="yes"/>
      <point x="1325.0" y="860.0"/>
      <point x="1143.0" y="713.0"/>
      <point x="1143.0" y="449.0" type="curve" smooth="yes"/>
      <point x="1143.0" y="228.0"/>
      <point x="1269.0" y="38.0"/>
    </contour>
    <contour>
      <point x="1509.0" y="194.0" type="curve" smooth="yes"/>
      <point x="1404.0" y="194.0"/>
      <point x="1342.0" y="306.0"/>
      <point x="1342.0" y="458.0" type="curve" smooth="yes"/>
      <point x="1342.0" y="616.0"/>
      <point x="1404.0" y="714.0"/>
      <point x="1513.0" y="714.0" type="curve" smooth="yes"/>
      <point x="1618.0" y="714.0"/>
      <point x="1677.0" y="609.0"/>
      <point x="1677.0" y="449.0" type="curve" smooth="yes"/>
      <point x="1677.0" y="291.0"/>
      <point x="1618.0" y="194.0"/>
    </contour>
  </outline>
</glyph>
<glyph name="quotesingle" format="2">
  <advance width="748.0"/>
  <unicode hex="0027"/>
  <outline>
    <contour>
      <point x="284.0" y="924.0" type="line"/>
      <point x="466.0" y="924.0" type="line"/>
      <point x="498.0" y="1646.0" type="line"/>
      <point x="249.0" y="1646.0" type="line"/>
    </contour>
  </outline>
</glyph>
<glyph name="parenleft" format="2">
  <advance width="792.0"/>
  <unicode hex="0028"/>
  <outline>
    <contour>
      <point x="559.0" y="-327.0" type="curve"/>
      <point x="713.0" y="-248.0" type="line"/>
      <point x="616.0" y="-176.0"/>
      <point x="326.0" y="125.0"/>
      <point x="339.0" y="703.0" type="curve" smooth="yes"/>
      <point x="352.0" y="1262.0"/>
      <point x="640.0" y="1561.0"/>
      <point x="713.0" y="1617.0" type="curve"/>
      <point x="559.0" y="1696.0" type="line"/>
      <point x="465.0" y="1644.0"/>
      <point x="119.0" y="1272.0"/>
      <point x="119.0" y="705.0" type="curve" smooth="yes"/>
      <point x="119.0" y="40.0"/>
      <point x="475.0" y="-273.0"/>
    </contour>
  </outline>
</glyph>
<glyph name="asterisk" format="2">
  <advance width="1204.0"/>
  <unicode hex="002A"/>
  <outline>
    <contour>
      <point x="511.0" y="624.0" type="line"/>
      <point x="706.0" y="624.0" type="line"/>
      <point x="683.0" y="886.0" type="line"/>
      <point x="681.0" y="898.0"/>
      <point x="646.0" y="1044.0"/>
      <point x="644.0" y="1052.0" type="curve"/>
      <point x="774.0" y="939.0" type="line"/>
      <point x="988.0" y="796.0" type="line"/>
      <point x="1088.0" y="969.0" type="line"/>
      <point x="852.0" y="1083.0" type="line"/>
      <point x="689.0" y="1131.0" type="line"/>
      <point x="852.0" y="1185.0" type="line"/>
      <point x="1082.0" y="1305.0" type="line"/>
      <point x="987.0" y="1470.0" type="line"/>
      <point x="767.0" y="1325.0" type="line"/>
      <point x="758.0" y="1318.0"/>
      <point x="650.0" y="1213.0"/>
      <point x="644.0" y="1208.0" type="curve"/>
      <point x="679.0" y="1375.0" type="line"/>
      <point x="692.0" y="1635.0" type="line"/>
      <point x="498.0" y="1635.0" type="line"/>
      <point x="517.0" y="1371.0" type="line"/>
      <point x="520.0" y="1358.0"/>
      <point x="556.0" y="1213.0"/>
      <point x="557.0" y="1206.0" type="curve"/>
      <point x="429.0" y="1319.0" type="line"/>
      <point x="211.0" y="1464.0" type="line"/>
      <point x="116.0" y="1295.0" type="line"/>
      <point x="348.0" y="1177.0" type="line"/>
      <point x="360.0" y="1173.0"/>
      <point x="506.0" y="1134.0"/>
      <point x="513.0" y="1129.0" type="curve"/>
      <point x="350.0" y="1079.0" type="line"/>
      <point x="120.0" y="955.0" type="line"/>
      <point x="218.0" y="788.0" type="line"/>
      <point x="433.0" y="933.0" type="line"/>
      <point x="559.0" y="1054.0" type="line"/>
      <point x="523.0" y="886.0" type="line"/>
    </contour>
  </outline>
</glyph>
<glyph name="plus" format="2">
  <advance width="1362.0"/>
  <unicode hex="002B"/>
  <outline>
    <contour>
      <point x="587.0" y="274.0" type="line"/>
      <point x="773.0" y="274.0" type="line"/>
      <point x="773.0" y="500.0" type="line"/>
      <point x="765.0" y="671.0" type="line"/>
      <point x="905.0" y="663.0" type="line"/>
      <point x="1141.0" y="663.0" type="line"/>
      <point x="1141.0" y="847.0" type="line"/>
      <point x="905.0" y="847.0" type="line"/>
      <point x="765.0" y="838.0" type="line"/>
      <point x="773.0" y="1009.0" type="line"/>
      <point x="773.0" y="1229.0" type="line"/>
      <point x="587.0" y="1229.0" type="line"/>
      <point x="587.0" y="1009.0" type="line"/>
      <point x="595.0" y="838.0" type="line"/>
      <point x="433.0" y="847.0" type="line"/>
      <point x="221.0" y="847.0" type="line"/>
      <point x="221.0" y="663.0" type="line"/>
      <point x="433.0" y="663.0" type="line"/>
      <point x="595.0" y="671.0" type="line"/>
      <point x="587.0" y="500.0" type="line"/>
    </contour>
  </outline>
</glyph>
<glyph name="comma" format="2">
  <advance width="604.0"/>
  <unicode hex="002C"/>
  <outline>
    <contour>
      <point x="152.0" y="-398.0" type="line"/>
      <point x="230.0" y="-489.0" type="line"/>
      <point x="371.0" y="-437.0"/>
      <point x="492.0" y="-262.0"/>
      <point x="492.0" y="-47.0" type="curve" smooth="yes"/>
      <point x="492.0" y="66.0"/>
      <point x="440.0" y="219.0"/>
      <point x="307.0" y="269.0" type="curve"/>
      <point x="157.0" y="140.0" type="line"/>
      <point x="157.0" y="75.0" type="line"/>
      <point x="216.0" y="68.0"/>
      <point x="276.0" y="-40.0"/>
      <point x="276.0" y="-124.0" type="curve" smooth="yes"/>
      <point x="276.0" y="-233.0"/>
      <point x="221.0" y="-337.0"/>
      <point x="152.0" y="-374.0" type="curve"/>
    </contour>
  </outline>
</glyph>
<glyph name="zero" format="2">
  <advance width="1364.0"/>
  <unicode hex="0030"/>
  <outline>
    <contour>
      <point x="675.0" y="-16.0" type="curve" smooth="yes"/>
      <point x="1003.0" y="-16.0"/>
      <point x="1221.0" y="297.0"/>
      <point x="1225.0" y="757.0" type="curve" smooth="yes"/>
      <point x="1228.0" y="1167.0"/>
      <point x="1098.0" y="1507.0"/>
      <point x="699.0" y="1507.0" type="curve" smooth="yes"/>
      <point x="381.0" y="1507.0"/>
      <point x="144.0" y="1218.0"/>
      <point x="138.0" y="765.0" type="curve" smooth="yes"/>
      <point x="132.0" y="357.0"/>
      <point x="282.0" y="-16.0"/>
    </contour>
    <contour>
      <point x="682.0" y="194.0" type="curve" smooth="yes"/>
      <point x="476.0" y="200.0"/>
      <point x="383.0" y="462.0"/>
      <point x="383.0" y="773.0" type="curve" smooth="yes"/>
      <point x="383.0" y="1108.0"/>
      <point x="488.0" y="1296.0"/>
      <point x="686.0" y="1296.0" type="curve" smooth="yes"/>
      <point x="892.0" y="1296.0"/>
      <point x="982.0" y="1064.0"/>
      <point x="982.0" y="745.0" type="curve" smooth="yes"/>
      <point x="982.0" y="379.0"/>
      <point x="882.0" y="190.0"/>
    </contour>
  </outline>
</glyph>
<glyph name="one" format="2">
  <advance width="447.0"/>
  <unicode hex="0031"/>
  <outline>
    <contour>
      <point x="178.0" y="0.0" type="line"/>
      <point x="297.0" y="0.0" type="line"/>
      <point x="297.0" y="744.0" type="line"/>
      <point x="244.0" y="753.0" type="line"/>
      <point x="215.0" y="727.0"/>
      <point x="119.0" y="675.0"/>
      <point x="55.0" y="657.0" type="curve"/>
      <point x="68.0" y="588.0" type="line"/>
      <point x="105.0" y="595.0"/>
      <point x="140.0" y="604.0"/>
      <point x="178.0" y="614.0" type="curve"/>
    </contour>
  </outline>
</glyph>
<glyph name="two" format="2">
  <advance width="1235.0"/>
  <unicode hex="0032"/>
  <outline>
    <contour>
      <point x="160.0" y="0.0" type="line"/>
      <point x="1110.0" y="0.0" type="line"/>
      <point x="1110.0" y="195.0" type="line"/>
      <point x="486.0" y="186.0" type="line"/>
      <point x="819.0" y="417.0"/>
      <point x="1053.0" y="742.0"/>
      <point x="1053.0" y="1043.0" type="curve" smooth="yes"/>
      <point x="1053.0" y="1297.0"/>
      <point x="913.0" y="1498.0"/>
      <point x="595.0" y="1498.0" type="curve" smooth="yes"/>
      <point x="369.0" y="1498.0"/>
      <point x="207.0" y="1389.0"/>
      <point x="130.0" y="1307.0" type="curve"/>
      <point x="227.0" y="1168.0" type="line"/>
      <point x="297.0" y="1242.0"/>
      <point x="421.0" y="1307.0"/>
      <point x="557.0" y="1307.0" type="curve" smooth="yes"/>
      <point x="715.0" y="1307.0"/>
      <point x="809.0" y="1209.0"/>
      <point x="809.0" y="1031.0" type="curve" smooth="yes"/>
      <point x="809.0" y="704.0"/>
      <point x="436.0" y="326.0"/>
      <point x="125.0" y="118.0" type="curve"/>
    </contour>
  </outline>
</glyph>
<glyph name="three" format="2">
  <advance width="1124.0"/>
  <unicode hex="0033"/>
  <outline>
    <contour>
      <point x="145.0" y="4.0" type="line"/>
      <point x="209.0" y="-8.0"/>
      <point x="280.0" y="-20.0"/>
      <point x="358.0" y="-20.0" type="curve" smooth="yes"/>
      <point x="769.0" y="-20.0"/>
      <point x="1022.0" y="197.0"/>
      <point x="1022.0" y="438.0" type="curve" smooth="yes"/>
      <point x="1022.0" y="623.0"/>
      <point x="879.0" y="801.0"/>
      <point x="609.0" y="798.0" type="curve"/>
      <point x="609.0" y="769.0" type="line"/>
      <point x="787.0" y="829.0"/>
      <point x="942.0" y="969.0"/>
      <point x="942.0" y="1160.0" type="curve" smooth="yes"/>
      <point x="942.0" y="1384.0"/>
      <point x="753.0" y="1504.0"/>
      <point x="509.0" y="1504.0" type="curve" smooth="yes"/>
      <point x="336.0" y="1504.0"/>
      <point x="170.0" y="1415.0"/>
      <point x="97.0" y="1353.0" type="curve"/>
      <point x="182.0" y="1219.0" type="line"/>
      <point x="251.0" y="1268.0"/>
      <point x="346.0" y="1322.0"/>
      <point x="487.0" y="1322.0" type="curve" smooth="yes"/>
      <point x="615.0" y="1322.0"/>
      <point x="714.0" y="1268.0"/>
      <point x="712.0" y="1130.0" type="curve" smooth="yes"/>
      <point x="710.0" y="1025.0"/>
      <point x="630.0" y="934.0"/>
      <point x="495.0" y="878.0" type="curve" smooth="yes"/>
      <point x="439.0" y="854.0"/>
      <point x="374.0" y="833.0"/>
      <point x="306.0" y="820.0" type="curve"/>
      <point x="351.0" y="664.0" type="line"/>
      <point x="448.0" y="688.0" type="line"/>
      <point x="688.0" y="704.0"/>
      <point x="783.0" y="590.0"/>
      <point x="783.0" y="424.0" type="curve" smooth="yes"/>
      <point x="783.0" y="259.0"/>
      <point x="589.0" y="144.0"/>
      <point x="307.0" y="144.0" type="curve" smooth="yes"/>
      <point x="256.0" y="144.0"/>
      <point x="198.0" y="151.0"/>
      <point x="143.0" y="161.0" type="curve"/>
    </contour>
  </outline>
</glyph>
<glyph name="four" format="2">
  <advance width="1350.0"/>
  <unicode hex="0034"/>
  <outline>
    <contour>
      <point x="164.0" y="292.0" type="line"/>
      <point x="1262.0" y="292.0" type="line"/>
      <point x="1262.0" y="469.0" type="line"/>
      <point x="362.0" y="469.0" type="line"/>
      <point x="446.0" y="613.0" type="line"/>
      <point x="598.0" y="901.0"/>
      <point x="682.0" y="1134.0"/>
      <point x="833.0" y="1421.0" type="curve"/>
      <point x="681.0" y="1510.0" type="line"/>
      <point x="606.0" y="1510.0" type="line"/>
      <point x="419.0" y="1122.0"/>
      <point x="298.0" y="788.0"/>
      <point x="108.0" y="399.0" type="curve"/>
    </contour>
    <contour>
      <point x="806.0" y="0.0" type="line"/>
      <point x="1036.0" y="0.0" type="line"/>
      <point x="1036.0" y="963.0" type="line"/>
      <point x="828.0" y="963.0" type="line"/>
      <point x="806.0" y="483.0" type="line"/>
    </contour>
  </outline>
</glyph>
<glyph name="five" format="2">
  <advance width="1192.0"/>
  <unicode hex="0035"/>
  <outline>
    <contour>
      <point x="302.0" y="-22.0" type="curve" smooth="yes"/>
      <point x="784.0" y="-22.0"/>
      <point x="1048.0" y="260.0"/>
      <point x="1048.0" y="522.0" type="curve" smooth="yes"/>
      <point x="1048.0" y="790.0"/>
      <point x="896.0" y="942.0"/>
      <point x="608.0" y="942.0" type="curve" smooth="yes"/>
      <point x="540.0" y="942.0"/>
      <point x="464.0" y="930.0"/>
      <point x="380.0" y="912.0" type="curve"/>
      <point x="418.0" y="1288.0" type="line"/>
      <point x="986.0" y="1288.0" type="line"/>
      <point x="1008.0" y="1486.0" type="line"/>
      <point x="242.0" y="1486.0" type="line"/>
      <point x="186.0" y="750.0" type="line"/>
      <point x="234.0" y="720.0" type="line"/>
      <point x="332.0" y="750.0"/>
      <point x="424.0" y="770.0"/>
      <point x="502.0" y="770.0" type="curve" smooth="yes"/>
      <point x="722.0" y="770.0"/>
      <point x="814.0" y="694.0"/>
      <point x="814.0" y="508.0" type="curve" smooth="yes"/>
      <point x="814.0" y="304.0"/>
      <point x="574.0" y="144.0"/>
      <point x="244.0" y="144.0" type="curve" smooth="yes"/>
      <point x="224.0" y="144.0"/>
      <point x="200.0" y="146.0"/>
      <point x="180.0" y="146.0" type="curve"/>
      <point x="180.0" y="-10.0" type="line"/>
      <point x="214.0" y="-20.0"/>
      <point x="270.0" y="-22.0"/>
    </contour>
  </outline>
</glyph>
<glyph name="seven" format="2">
  <advance width="1220.0"/>
  <unicode hex="0037"/>
  <outline>
    <contour>
      <point x="337.0" y="0.0" type="curve"/>
      <point x="600.0" y="0.0" type="line"/>
      <point x="1126.0" y="1419.0" type="line"/>
      <point x="1075.0" y="1487.0" type="line"/>
      <point x="140.0" y="1487.0" type="line"/>
      <point x="139.0" y="1296.0" type="line"/>
      <point x="870.0" y="1294.0" type="line"/>
      <point x="712.0" y="877.0"/>
      <point x="542.0" y="430.0"/>
    </contour>
  </outline>
</glyph>
<glyph name="eight" format="2">
  <advance width="644.0"/>
  <unicode hex="0038"/>
  <outline>
    <contour>
      <point x="327.0" y="-8.0" type="curve" smooth="yes"/>
      <point x="462.0" y="-8.0"/>
      <point x="577.0" y="56.0"/>
      <point x="576.0" y="192.0" type="curve" smooth="yes"/>
      <point x="574.0" y="389.0"/>
      <point x="203.0" y="410.0"/>
      <point x="203.0" y="578.0" type="curve" smooth="yes"/>
      <point x="203.0" y="638.0"/>
      <point x="256.0" y="674.0"/>
      <point x="323.0" y="674.0" type="curve" smooth="yes"/>
      <point x="398.0" y="674.0"/>
      <point x="443.0" y="632.0"/>
      <point x="440.0" y="570.0" type="curve" smooth="yes"/>
      <point x="438.0" y="510.0"/>
      <point x="405.0" y="447.0"/>
      <point x="329.0" y="423.0" type="curve"/>
      <point x="388.0" y="374.0" type="line"/>
      <point x="499.0" y="417.0"/>
      <point x="546.0" y="509.0"/>
      <point x="546.0" y="583.0" type="curve" smooth="yes"/>
      <point x="546.0" y="685.0"/>
      <point x="458.0" y="754.0"/>
      <point x="327.0" y="754.0" type="curve" smooth="yes"/>
      <point x="198.0" y="754.0"/>
      <point x="96.0" y="690.0"/>
      <point x="96.0" y="571.0" type="curve" smooth="yes"/>
      <point x="96.0" y="332.0"/>
      <point x="461.0" y="341.0"/>
      <point x="461.0" y="178.0" type="curve" smooth="yes"/>
      <point x="461.0" y="108.0"/>
      <point x="396.0" y="72.0"/>
      <point x="330.0" y="72.0" type="curve" smooth="yes"/>
      <point x="226.0" y="72.0"/>
      <point x="178.0" y="117.0"/>
      <point x="178.0" y="192.0" type="curve" smooth="yes"/>
      <point x="178.0" y="261.0"/>
      <point x="233.0" y="319.0"/>
      <point x="308.0" y="345.0" type="curve"/>
      <point x="245.0" y="393.0" type="line"/>
      <point x="117.0" y="340.0"/>
      <point x="68.0" y="256.0"/>
      <point x="68.0" y="184.0" type="curve" smooth="yes"/>
      <point x="68.0" y="44.0"/>
      <point x="197.0" y="-8.0"/>
    </contour>
  </outline>
</glyph>
<glyph name="nine" format="2">
  <advance width="1371.0"/>
  <unicode hex="0039"/>
  <outline>
    <contour>
      <point x="165.0" y="970.0" type="curve" smooth="yes"/>
      <point x="165.0" y="730.0"/>
      <point x="310.0" y="511.0"/>
      <point x="569.0" y="511.0" type="curve" smooth="yes"/>
      <point x="722.0" y="511.0"/>
      <point x="813.0" y="560.0"/>
      <point x="845.0" y="596.0" type="curve"/>
      <point x="794.0" y="727.0" type="line"/>
      <point x="757.0" y="710.0"/>
      <point x="721.0" y="689.0"/>
      <point x="629.0" y="689.0" type="curve" smooth="yes"/>
      <point x="496.0" y="689.0"/>
      <point x="397.0" y="807.0"/>
      <point x="397.0" y="1043.0" type="curve" smooth="yes"/>
      <point x="397.0" y="1195.0"/>
      <point x="501.0" y="1342.0"/>
      <point x="664.0" y="1342.0" type="curve" smooth="yes"/>
      <point x="891.0" y="1342.0"/>
      <point x="961.0" y="1123.0"/>
      <point x="954.0" y="834.0" type="curve" smooth="yes"/>
      <point x="946.0" y="539.0"/>
      <point x="687.0" y="124.0"/>
      <point x="286.0" y="24.0" type="curve"/>
      <point x="359.0" y="-116.0" type="line"/>
      <point x="731.0" y="-43.0"/>
      <point x="1200.0" y="363.0"/>
      <point x="1200.0" y="930.0" type="curve"/>
      <point x="1200.0" y="1242.0"/>
      <point x="1027.0" y="1507.0"/>
      <point x="696.0" y="1507.0" type="curve" smooth="yes"/>
      <point x="357.0" y="1507.0"/>
      <point x="165.0" y="1286.0"/>
    </contour>
  </outline>
</glyph>
<glyph name="equal" format="2">
  <advance width="1370.0"/>
  <unicode hex="003D"/>
  <outline>
    <contour>
      <point x="238.0" y="922.0" type="line"/>
      <point x="1132.0" y="922.0" type="line"/>
      <point x="1132.0" y="1094.0" type="line"/>
      <point x="238.0" y="1094.0" type="line"/>
    </contour>
    <contour>
      <point x="238.0" y="418.0" type="line"/>
      <point x="1132.0" y="418.0" type="line"/>
      <point x="1132.0" y="589.0" type="line"/>
      <point x="238.0" y="589.0" type="line"/>
    </contour>
  </outline>
</glyph>
<glyph name="at" format="2">
  <advance width="2088.0"/>
  <unicode hex="0040"/>
  <outline>
    <contour>
      <point x="984.0" y="-464.0" type="curve" smooth="yes"/>
      <point x="1182.0" y="-464.0"/>
      <point x="1364.0" y="-414.0"/>
      <point x="1450.0" y="-360.0" type="curve"/>
      <point x="1412.0" y="-228.0" type="line"/>
      <point x="1342.0" y="-264.0"/>
      <point x="1208.0" y="-316.0"/>
      <point x="1004.0" y="-316.0" type="curve" smooth="yes"/>
      <point x="654.0" y="-316.0"/>
      <point x="318.0" y="-122.0"/>
      <point x="318.0" y="434.0" type="curve" smooth="yes"/>
      <point x="318.0" y="986.0"/>
      <point x="688.0" y="1358.0"/>
      <point x="1128.0" y="1358.0" type="curve" smooth="yes"/>
      <point x="1458.0" y="1358.0"/>
      <point x="1730.0" y="1246.0"/>
      <point x="1730.0" y="774.0" type="curve" smooth="yes"/>
      <point x="1730.0" y="426.0"/>
      <point x="1546.0" y="158.0"/>
      <point x="1402.0" y="158.0" type="curve" smooth="yes"/>
      <point x="1356.0" y="158.0"/>
      <point x="1356.0" y="248.0"/>
      <point x="1382.0" y="424.0" type="curve" smooth="yes"/>
      <point x="1412.0" y="610.0"/>
      <point x="1470.0" y="876.0"/>
      <point x="1506.0" y="1018.0" type="curve"/>
      <point x="1336.0" y="986.0" type="line"/>
      <point x="1280.0" y="1026.0"/>
      <point x="1192.0" y="1040.0"/>
      <point x="1108.0" y="1040.0" type="curve" smooth="yes"/>
      <point x="730.0" y="1040.0"/>
      <point x="564.0" y="696.0"/>
      <point x="558.0" y="426.0" type="curve" smooth="yes"/>
      <point x="552.0" y="132.0"/>
      <point x="704.0" y="-4.0"/>
      <point x="836.0" y="-4.0" type="curve" smooth="yes"/>
      <point x="1052.0" y="-4.0"/>
      <point x="1212.0" y="278.0"/>
      <point x="1294.0" y="520.0" type="curve"/>
      <point x="1290.0" y="520.0"/>
      <point x="1248.0" y="520.0"/>
      <point x="1244.0" y="520.0" type="curve"/>
      <point x="1192.0" y="338.0"/>
      <point x="1188.0" y="240.0"/>
      <point x="1194.0" y="178.0" type="curve" smooth="yes"/>
      <point x="1202.0" y="60.0"/>
      <point x="1248.0" y="-4.0"/>
      <point x="1348.0" y="-4.0" type="curve" smooth="yes"/>
      <point x="1626.0" y="-4.0"/>
      <point x="1908.0" y="290.0"/>
      <point x="1908.0" y="808.0" type="curve" smooth="yes"/>
      <point x="1908.0" y="1258.0"/>
      <point x="1602.0" y="1506.0"/>
      <point x="1162.0" y="1506.0" type="curve" smooth="yes"/>
      <point x="588.0" y="1506.0"/>
      <point x="140.0" y="1074.0"/>
      <point x="140.0" y="416.0" type="curve" smooth="yes"/>
      <point x="140.0" y="-182.0"/>
      <point x="514.0" y="-464.0"/>
    </contour>
    <contour>
      <point x="884.0" y="176.0" type="curve" smooth="yes"/>
      <point x="786.0" y="176.0"/>
      <point x="746.0" y="292.0"/>
      <point x="752.0" y="462.0" type="curve" smooth="yes"/>
      <point x="758.0" y="660.0"/>
      <point x="878.0" y="886.0"/>
      <point x="1088.0" y="886.0" type="curve" smooth="yes"/>
      <point x="1148.0" y="886.0"/>
      <point x="1226.0" y="868.0"/>
      <point x="1258.0" y="818.0" type="curve"/>
      <point x="1228.0" y="594.0"/>
      <point x="1020.0" y="176.0"/>
    </contour>
  </outline>
</glyph>
<glyph name="A" format="2">
  <advance width="1376.0"/>
  <unicode hex="0041"/>
  <anchor x="689.0" y="0.0" name="bottom"/>
  <anchor x="664.0" y="-166.0" name="btm"/>
  <anchor x="1238.0" y="20.0" name="ogonek"/>
  <anchor x="687.0" y="1660.0" name="top"/>
  <outline>
    <contour>
      <point x="262.0" y="0.0" type="line"/>
      <point x="651.0" y="1117.0" type="line"/>
      <point x="695.0" y="1260.0" type="line"/>
      <point x="737.0" y="1117.0" type="line"/>
      <point x="1108.0" y="0.0" type="line"/>
      <point x="1363.0" y="0.0" type="line"/>
      <point x="807.0" y="1502.0" type="line"/>
      <point x="578.0" y="1502.0" type="line"/>
      <point x="14.0" y="0.0" type="line"/>
    </contour>
    <contour>
      <point x="294.0" y="365.0" type="line"/>
      <point x="1058.0" y="365.0" type="line"/>
      <point x="1016.0" y="538.0" type="line"/>
      <point x="334.0" y="538.0" type="line"/>
    </contour>
  </outline>
</glyph>
<glyph name="B" format="2">
  <advance width="1322.0"/>
  <unicode hex="0042"/>
  <anchor x="661.0" y="0.0" name="bottom"/>
  <anchor x="710.0" y="-166.0" name="btm"/>
  <anchor x="652.0" y="1660.0" name="top"/>
  <outline>
    <contour>
      <point x="189.0" y="0.0" type="line"/>
      <point x="305.0" y="0.0" type="line"/>
      <point x="377.0" y="-4.0"/>
      <point x="516.0" y="-14.0"/>
      <point x="632.0" y="-14.0" type="curve" smooth="yes"/>
      <point x="1095.0" y="-14.0"/>
      <point x="1234.0" y="177.0"/>
      <point x="1234.0" y="447.0" type="curve" smooth="yes"/>
      <point x="1234.0" y="630.0"/>
      <point x="1093.0" y="791.0"/>
      <point x="912.0" y="802.0" type="curve"/>
      <point x="1070.0" y="843.0"/>
      <point x="1138.0" y="1005.0"/>
      <point x="1138.0" y="1146.0" type="curve" smooth="yes"/>
      <point x="1138.0" y="1359.0"/>
      <point x="983.0" y="1500.0"/>
      <point x="641.0" y="1500.0" type="curve" smooth="yes"/>
      <point x="495.0" y="1500.0"/>
      <point x="396.0" y="1486.0"/>
      <point x="299.0" y="1486.0" type="curve"/>
      <point x="189.0" y="1488.0" type="line"/>
    </contour>
    <contour>
      <point x="421.0" y="851.0" type="curve"/>
      <point x="421.0" y="1321.0" type="line"/>
      <point x="448.0" y="1331.0"/>
      <point x="565.0" y="1335.0"/>
      <point x="602.0" y="1335.0" type="curve" smooth="yes"/>
      <point x="800.0" y="1335.0"/>
      <point x="911.0" y="1265.0"/>
      <point x="911.0" y="1114.0" type="curve" smooth="yes"/>
      <point x="911.0" y="933.0"/>
      <point x="812.0" y="846.0"/>
      <point x="676.0" y="846.0" type="curve" smooth="yes"/>
      <point x="605.0" y="846.0"/>
      <point x="493.0" y="840.0"/>
    </contour>
    <contour>
      <point x="421.0" y="177.0" type="curve"/>
      <point x="421.0" y="676.0" type="line"/>
      <point x="476.0" y="684.0"/>
      <point x="586.0" y="681.0"/>
      <point x="662.0" y="681.0" type="curve" smooth="yes"/>
      <point x="891.0" y="681.0"/>
      <point x="997.0" y="603.0"/>
      <point x="997.0" y="423.0" type="curve" smooth="yes"/>
      <point x="997.0" y="221.0"/>
      <point x="869.0" y="154.0"/>
      <point x="654.0" y="154.0" type="curve" smooth="yes"/>
      <point x="583.0" y="154.0"/>
      <point x="454.0" y="156.0"/>
    </contour>
  </outline>
</glyph>
<glyph name="C" format="2">
  <advance width="1280.0"/>
  <unicode hex="0043"/>
  <anchor x="641.0" y="0.0" name="bottom"/>
  <anchor x="771.0" y="-166.0" name="btm"/>
  <anchor x="782.0" y="1660.0" name="top"/>
  <outline>
    <contour>
      <point x="93.0" y="737.0" type="curve" smooth="yes"/>
      <point x="93.0" y="287.0"/>
      <point x="369.0" y="-16.0"/>
      <point x="796.0" y="-16.0" type="curve" smooth="yes"/>
      <point x="979.0" y="-16.0"/>
      <point x="1084.0" y="28.0"/>
      <point x="1170.0" y="62.0" type="curve"/>
      <point x="1170.0" y="260.0" type="line"/>
      <point x="1118.0" y="216.0"/>
      <point x="956.0" y="168.0"/>
      <point x="808.0" y="168.0" type="curve" smooth="yes"/>
      <point x="509.0" y="168.0"/>
      <point x="328.0" y="411.0"/>
      <point x="328.0" y="751.0" type="curve" smooth="yes"/>
      <point x="328.0" y="1097.0"/>
      <point x="514.0" y="1314.0"/>
      <point x="803.0" y="1314.0" type="curve" smooth="yes"/>
      <point x="1023.0" y="1314.0"/>
      <point x="1114.0" y="1256.0"/>
      <point x="1147.0" y="1237.0" type="curve"/>
      <point x="1181.0" y="1446.0" type="line"/>
      <point x="1121.0" y="1459.0"/>
      <point x="1012.0" y="1502.0"/>
      <point x="788.0" y="1502.0" type="curve" smooth="yes"/>
      <point x="417.0" y="1502.0"/>
      <point x="93.0" y="1229.0"/>
    </contour>
  </outline>
</glyph>
<glyph name="D" format="2">
  <advance width="720.0"/>
  <unicode hex="0044"/>
  <anchor x="358.0" y="0.0" name="bottom"/>
  <anchor x="318.0" y="-83.0" name="btm"/>
  <anchor x="358.0" y="372.0" name="center"/>
  <anchor x="353.0" y="830.0" name="top"/>
  <outline>
    <contour>
      <point x="88.0" y="0.0" type="line"/>
      <point x="104.0" y="0.0"/>
      <point x="120.0" y="0.0"/>
      <point x="136.0" y="0.0" type="curve" smooth="yes"/>
      <point x="187.0" y="0.0"/>
      <point x="258.0" y="-7.0"/>
      <point x="311.0" y="-8.0" type="curve" smooth="yes"/>
      <point x="536.0" y="-12.0"/>
      <point x="678.0" y="139.0"/>
      <point x="678.0" y="393.0" type="curve" smooth="yes"/>
      <point x="678.0" y="619.0"/>
      <point x="564.0" y="751.0"/>
      <point x="323.0" y="751.0" type="curve" smooth="yes"/>
      <point x="257.0" y="751.0"/>
      <point x="193.0" y="743.0"/>
      <point x="146.0" y="743.0" type="curve" smooth="yes"/>
      <point x="127.0" y="743.0"/>
      <point x="108.0" y="743.0"/>
      <point x="88.0" y="743.0" type="curve"/>
    </contour>
    <contour>
      <point x="206.0" y="89.0" type="curve"/>
      <point x="206.0" y="658.0" type="line"/>
      <point x="227.0" y="662.0"/>
      <point x="261.0" y="665.0"/>
      <point x="300.0" y="665.0" type="curve" smooth="yes"/>
      <point x="469.0" y="665.0"/>
      <point x="555.0" y="591.0"/>
      <point x="555.0" y="376.0" type="curve" smooth="yes"/>
      <point x="555.0" y="168.0"/>
      <point x="461.0" y="82.0"/>
      <point x="328.0" y="80.0" type="curve" smooth="yes"/>
      <point x="287.0" y="79.0"/>
      <point x="238.0" y="82.0"/>
    </contour>
  </outline>
</glyph>
<glyph name="E" format="2">
  <advance width="591.0"/>
  <unicode hex="0045"/>
  <anchor x="293.0" y="0.0" name="bottom"/>
  <anchor x="322.0" y="-83.0" name="btm"/>
  <anchor x="538.0" y="10.0" name="ogonek"/>
  <anchor x="315.0" y="830.0" name="top"/>
  <anchor x="14.0" y="743.0" name="topleft"/>
  <outline>
    <contour>
      <point x="88.0" y="0.0" type="line"/>
      <point x="555.0" y="0.0" type="line"/>
      <point x="555.0" y="92.0" type="line"/>
      <point x="206.0" y="92.0" type="line"/>
      <point x="206.0" y="338.0" type="line"/>
      <point x="439.0" y="338.0" type="line"/>
      <point x="439.0" y="427.0" type="line"/>
      <point x="206.0" y="427.0" type="line"/>
      <point x="206.0" y="653.0" type="line"/>
      <point x="520.0" y="653.0" type="line"/>
      <point x="520.0" y="743.0" type="line"/>
      <point x="88.0" y="743.0" type="line"/>
    </contour>
  </outline>
</glyph>
<glyph name="F" format="2">
  <advance width="528.0"/>
  <unicode hex="0046"/>
  <anchor x="262.0" y="0.0" name="bottom"/>
  <anchor x="328.0" y="-83.0" name="btm"/>
  <anchor x="324.0" y="830.0" name="top"/>
  <outline>
    <contour>
      <point x="88.0" y="0.0" type="line"/>
      <point x="206.0" y="0.0" type="line"/>
      <point x="206.0" y="328.0" type="line"/>
      <point x="440.0" y="328.0" type="line"/>
      <point x="440.0" y="418.0" type="line"/>
      <point x="206.0" y="418.0" type="line"/>
      <point x="206.0" y="653.0" type="line"/>
      <point x="519.0" y="653.0" type="line"/>
      <point x="519.0" y="743.0" type="line"/>
      <point x="88.0" y="743.0" type="line"/>
    </contour>
  </outline>
</glyph>
<glyph name="H" format="2">
  <advance width="1500.0"/>
  <unicode hex="0048"/>
  <anchor x="750.0" y="0.0" name="bottom"/>
  <anchor x="742.0" y="-166.0" name="btm"/>
  <anchor x="750.0" y="744.0" name="center"/>
  <anchor x="750.0" y="1660.0" name="top"/>
  <anchor x="28.0" y="1486.0" name="topleft"/>
  <outline>
    <contour>
      <point x="176.0" y="0.0" type="line"/>
      <point x="412.0" y="0.0" type="line"/>
      <point x="412.0" y="660.0" type="line"/>
      <point x="1090.0" y="660.0" type="line"/>
      <point x="1090.0" y="0.0" type="line"/>
      <point x="1324.0" y="0.0" type="line"/>
      <point x="1324.0" y="1486.0" type="line"/>
      <point x="1090.0" y="1486.0" type="line"/>
      <point x="1090.0" y="840.0" type="line"/>
      <point x="412.0" y="840.0" type="line"/>
      <point x="412.0" y="1486.0" type="line"/>
      <point x="176.0" y="1486.0" type="line"/>
    </contour>
  </outline>
</glyph>
<glyph name="J" format="2">
  <advance width="711.0"/>
  <unicode hex="004A"/>
  <anchor x="355.0" y="0.0" name="bottom"/>
  <anchor x="263.0" y="-166.0" name="btm"/>
  <anchor x="378.0" y="1660.0" name="top"/>
  <outline>
    <contour>
      <point x="33.0" y="-324.0" type="line"/>
      <point x="197.0" y="-302.0"/>
      <point x="435.0" y="-173.0"/>
      <point x="482.0" y="85.0" type="curve" smooth="yes"/>
      <point x="508.0" y="227.0"/>
      <point x="500.0" y="404.0"/>
      <point x="500.0" y="598.0" type="curve" smooth="yes"/>
      <point x="500.0" y="1486.0" type="line"/>
      <point x="264.0" y="1486.0" type="line"/>
      <point x="264.0" y="594.0" type="line" smooth="yes"/>
      <point x="264.0" y="387.0"/>
      <point x="263.0" y="190.0"/>
      <point x="232.0" y="73.0" type="curve" smooth="yes"/>
      <point x="191.0" y="-80.0"/>
      <point x="67.0" y="-163.0"/>
      <point x="-36.0" y="-201.0" type="curve"/>
    </contour>
  </outline>
</glyph>
<glyph name="L" format="2">
  <advance width="1050.0"/>
  <unicode hex="004C"/>
  <anchor x="520.0" y="0.0" name="bottom"/>
  <anchor x="578.0" y="-166.0" name="btm"/>
  <anchor x="520.0" y="744.0" name="center"/>
  <anchor x="294.0" y="1660.0" name="top"/>
  <anchor x="1010.0" y="1486.0" name="topright"/>
  <outline>
    <contour>
      <point x="176.0" y="0.0" type="line"/>
      <point x="994.0" y="0.0" type="line"/>
      <point x="994.0" y="186.0" type="line"/>
      <point x="410.0" y="186.0" type="line"/>
      <point x="410.0" y="1486.0" type="line"/>
      <point x="176.0" y="1486.0" type="line"/>
    </contour>
  </outline>
</glyph>
<glyph name="O" format="2">
  <advance width="764.0"/>
  <unicode hex="004F"/>
  <anchor x="382.0" y="0.0" name="bottom"/>
  <anchor x="381.0" y="-83.0" name="btm"/>
  <anchor x="382.0" y="372.0" name="center"/>
  <anchor x="477.0" y="10.0" name="ogonek"/>
  <anchor x="394.0" y="830.0" name="top"/>
  <anchor x="18.0" y="743.0" name="topleft"/>
  <anchor x="512.0" y="721.0" name="topright"/>
  <outline>
    <contour>
      <point x="379.0" y="-8.0" type="curve" smooth="yes"/>
      <point x="570.0" y="-4.0"/>
      <point x="712.0" y="123.0"/>
      <point x="717.0" y="372.0" type="curve" smooth="yes"/>
      <point x="722.0" y="602.0"/>
      <point x="592.0" y="752.0"/>
      <point x="394.0" y="751.0" type="curve" smooth="yes"/>
      <point x="203.0" y="750.0"/>
      <point x="52.0" y="626.0"/>
      <point x="47.0" y="377.0" type="curve" smooth="yes"/>
      <point x="42.0" y="151.0"/>
      <point x="172.0" y="-12.0"/>
    </contour>
    <contour>
      <point x="382.0" y="82.0" type="curve" smooth="yes"/>
      <point x="239.0" y="82.0"/>
      <point x="166.0" y="217.0"/>
      <point x="166.0" y="370.0" type="curve" smooth="yes"/>
      <point x="166.0" y="572.0"/>
      <point x="269.0" y="662.0"/>
      <point x="390.0" y="662.0" type="curve" smooth="yes"/>
      <point x="528.0" y="662.0"/>
      <point x="598.0" y="531.0"/>
      <point x="598.0" y="377.0" type="curve" smooth="yes"/>
      <point x="598.0" y="183.0"/>
      <point x="514.0" y="82.0"/>
    </contour>
  </outline>
</glyph>
<glyph name="Q" format="2">
  <advance width="1537.0"/>
  <unicode hex="0051"/>
  <anchor x="768.0" y="0.0" name="bottom"/>
  <anchor x="768.0" y="-166.0" name="btm"/>
  <anchor x="768.0" y="1660.0" name="top"/>
  <anchor x="764.0" y="744.0" name="center"/>
  <anchor x="954.0" y="20.0" name="ogonek"/>
  <anchor x="36.0" y="1486.0" name="topleft"/>
  <anchor x="1024.0" y="1442.0" name="topright"/>
  <outline>
    <contour>
      <point x="1197.0" y="-293.0" type="curve" smooth="yes"/>
      <point x="1276.0" y="-293.0"/>
      <point x="1317.0" y="-272.0"/>
      <point x="1346.0" y="-252.0" type="curve"/>
      <point x="1346.0" y="-85.0" type="line"/>
      <point x="1300.0" y="-101.0"/>
      <point x="1254.0" y="-105.0"/>
      <point x="1203.0" y="-105.0" type="curve" smooth="yes"/>
      <point x="1045.0" y="-105.0"/>
      <point x="990.0" y="-62.0"/>
      <point x="920.0" y="66.0" type="curve"/>
      <point x="817.0" y="66.0" type="line"/>
      <point x="711.0" y="28.0" type="line"/>
      <point x="865.0" y="-231.0"/>
      <point x="964.0" y="-293.0"/>
    </contour>
    <component base="O"/>
  </outline>
</glyph>
<glyph name="R" format="2">
  <advance width="1334.0"/>
  <unicode hex="0052"/>
  <anchor x="662.0" y="0.0" name="bottom"/>
  <anchor x="668.0" y="-166.0" name="btm"/>
  <anchor x="630.0" y="1660.0" name="top"/>
  <outline>
    <contour>
      <point x="412.0" y="0.0" type="line"/>
      <point x="412.0" y="620.0" type="line"/>
      <point x="652.0" y="620.0"/>
      <point x="718.0" y="624.0"/>
      <point x="800.0" y="636.0" type="curve" smooth="yes"/>
      <point x="1030.0" y="672.0"/>
      <point x="1172.0" y="810.0"/>
      <point x="1172.0" y="1078.0" type="curve" smooth="yes"/>
      <point x="1172.0" y="1384.0"/>
      <point x="960.0" y="1502.0"/>
      <point x="662.0" y="1502.0" type="curve" smooth="yes"/>
      <point x="506.0" y="1502.0"/>
      <point x="374.0" y="1486.0"/>
      <point x="280.0" y="1486.0" type="curve" smooth="yes"/>
      <point x="244.0" y="1486.0"/>
      <point x="212.0" y="1486.0"/>
      <point x="176.0" y="1486.0" type="curve"/>
      <point x="176.0" y="0.0" type="line"/>
    </contour>
    <contour>
      <point x="412.0" y="788.0" type="curve"/>
      <point x="412.0" y="1312.0" type="line"/>
      <point x="472.0" y="1324.0"/>
      <point x="550.0" y="1330.0"/>
      <point x="628.0" y="1330.0" type="curve" smooth="yes"/>
      <point x="858.0" y="1330.0"/>
      <point x="936.0" y="1240.0"/>
      <point x="936.0" y="1068.0" type="curve" smooth="yes"/>
      <point x="936.0" y="874.0"/>
      <point x="828.0" y="782.0"/>
      <point x="636.0" y="782.0" type="curve" smooth="yes"/>
      <point x="584.0" y="782.0"/>
      <point x="454.0" y="782.0"/>
    </contour>
    <contour>
      <point x="1012.0" y="0.0" type="curve"/>
      <point x="1276.0" y="0.0" type="line"/>
      <point x="1256.0" y="36.0"/>
      <point x="1236.0" y="72.0"/>
      <point x="1216.0" y="110.0" type="curve" smooth="yes"/>
      <point x="1110.0" y="302.0"/>
      <point x="1030.0" y="616.0"/>
      <point x="872.0" y="684.0" type="curve"/>
      <point x="732.0" y="696.0" type="line"/>
      <point x="642.0" y="626.0" type="line"/>
      <point x="808.0" y="602.0"/>
      <point x="876.0" y="288.0"/>
      <point x="958.0" y="110.0" type="curve" smooth="yes"/>
      <point x="988.0" y="46.0"/>
      <point x="994.0" y="26.0"/>
    </contour>
  </outline>
</glyph>
<glyph name="V" format="2">
  <advance width="1329.0"/>
  <unicode hex="0056"/>
  <anchor x="665.0" y="0.0" name="bottom"/>
  <anchor x="666.0" y="-166.0" name="btm"/>
  <anchor x="666.0" y="1660.0" name="top"/>
  <outline>
    <contour>
      <point x="573.0" y="-11.0" type="line"/>
      <point x="769.0" y="-11.0" type="line"/>
      <point x="1312.0" y="1486.0" type="line"/>
      <point x="1066.0" y="1486.0" type="line"/>
      <point x="743.0" y="519.0" type="line"/>
      <point x="672.0" y="280.0" type="line"/>
      <point x="604.0" y="519.0" type="line"/>
      <point x="266.0" y="1486.0" type="line"/>
      <point x="17.0" y="1486.0" type="line"/>
    </contour>
  </outline>
</glyph>
<glyph name="W" format="2">
  <advance width="1883.0"/>
  <unicode hex="0057"/>
  <anchor x="943.0" y="0.0" name="bottom"/>
  <anchor x="939.0" y="-166.0" name="btm"/>
  <anchor x="939.0" y="1660.0" name="top"/>
  <outline>
    <contour>
      <point x="425.0" y="-16.0" type="line"/>
      <point x="633.0" y="-16.0" type="line"/>
      <point x="906.0" y="932.0" type="line"/>
      <point x="977.0" y="1337.0" type="line"/>
      <point x="905.0" y="1339.0" type="line"/>
      <point x="978.0" y="932.0" type="line"/>
      <point x="1247.0" y="-16.0" type="line"/>
      <point x="1480.0" y="-16.0" type="line"/>
      <point x="1864.0" y="1486.0" type="line"/>
      <point x="1628.0" y="1486.0" type="line"/>
      <point x="1417.0" y="537.0" type="line"/>
      <point x="1354.0" y="155.0" type="line"/>
      <point x="1393.0" y="155.0" type="line"/>
      <point x="1307.0" y="538.0" type="line"/>
      <point x="1033.0" y="1486.0" type="line"/>
      <point x="854.0" y="1486.0" type="line"/>
      <point x="586.0" y="538.0" type="line"/>
      <point x="517.0" y="155.0" type="line"/>
      <point x="552.0" y="155.0" type="line"/>
      <point x="485.0" y="538.0" type="line"/>
      <point x="258.0" y="1486.0" type="line"/>
      <point x="19.0" y="1486.0" type="line"/>
    </contour>
  </outline>
</glyph>
<glyph name="Y" format="2">
  <advance width="1230.0"/>
  <unicode hex="0059"/>
  <anchor x="616.0" y="0.0" name="bottom"/>
  <anchor x="624.0" y="-166.0" name="btm"/>
  <anchor x="624.0" y="1660.0" name="top"/>
  <anchor x="40.0" y="1486.0" name="topleft"/>
  <outline>
    <contour>
      <point x="499.0" y="0.0" type="line"/>
      <point x="737.0" y="0.0" type="line"/>
      <point x="737.0" y="629.0" type="line"/>
      <point x="702.0" y="503.0" type="line"/>
      <point x="1221.0" y="1486.0" type="line"/>
      <point x="974.0" y="1486.0" type="line"/>
      <point x="659.0" y="854.0" type="line"/>
      <point x="607.0" y="702.0" type="line"/>
      <point x="643.0" y="702.0" type="line"/>
      <point x="581.0" y="854.0" type="line"/>
      <point x="261.0" y="1486.0" type="line"/>
      <point x="10.0" y="1486.0" type="line"/>
      <point x="534.0" y="503.0" type="line"/>
      <point x="499.0" y="632.0" type="line"/>
    </contour>
  </outline>
</glyph>
<glyph name="Z" format="2">
  <advance width="614.0"/>
  <unicode hex="005A"/>
  <anchor x="298.0" y="0.0" name="bottom"/>
  <anchor x="295.0" y="-83.0" name="btm"/>
  <anchor x="298.0" y="372.0" name="center"/>
  <anchor x="313.0" y="830.0" name="top"/>
  <outline>
    <contour>
      <point x="52.0" y="0.0" type="line"/>
      <point x="558.0" y="0.0" type="line"/>
      <point x="558.0" y="91.0" type="line"/>
      <point x="186.0" y="91.0" type="line"/>
      <point x="222.0" y="134.0" type="line"/>
      <point x="586.0" y="704.0" type="line"/>
      <point x="563.0" y="743.0" type="line"/>
      <point x="71.0" y="743.0" type="line"/>
      <point x="71.0" y="651.0" type="line"/>
      <point x="430.0" y="651.0" type="line"/>
      <point x="402.0" y="616.0" type="line"/>
      <point x="30.0" y="41.0" type="line"/>
    </contour>
  </outline>
</glyph>
<glyph name="bracketleft" format="2">
  <advance width="401.0"/>
  <unicode hex="005B"/>
  <outline>
    <contour>
      <point x="90.0" y="29.0" type="line"/>
      <point x="90.0" y="-67.0"/>
      <point x="107.0" y="-93.0"/>
      <point x="183.0" y="-93.0" type="curve" smooth="yes"/>
      <point x="246.0" y="-93.0"/>
      <point x="280.0" y="-88.0"/>
      <point x="331.0" y="-82.0" type="curve"/>
      <point x="331.0" y="-23.0" type="line"/>
      <point x="200.0" y="-22.0" type="line"/>
      <point x="200.0" y="774.0" type="line"/>
      <point x="331.0" y="774.0" type="line"/>
      <point x="331.0" y="836.0" type="line"/>
      <point x="280.0" y="842.0"/>
      <point x="246.0" y="848.0"/>
      <point x="183.0" y="848.0" type="curve" smooth="yes"/>
      <point x="108.0" y="848.0"/>
      <point x="90.0" y="822.0"/>
      <point x="90.0" y="726.0" type="curve" smooth="yes"/>
    </contour>
  </outline>
</glyph>
<glyph name="grave" format="2">
  <advance width="594.0"/>
  <unicode hex="0060"/>
  <anchor x="434.0" y="1660.0" name="_top"/>
  <outline>
    <contour>
      <point x="543.0" y="1353.0" type="line"/>
      <point x="433.0" y="1474.0"/>
      <point x="303.0" y="1623.0"/>
      <point x="213.0" y="1746.0" type="curve"/>
      <point x="49.0" y="1608.0" type="line"/>
      <point x="115.0" y="1500.0"/>
      <point x="349.0" y="1293.0"/>
      <point x="429.0" y="1257.0" type="curve"/>
    </contour>
  </outline>
</glyph>
<glyph name="a" format="2">
  <advance width="1118.0"/>
  <unicode hex="0061"/>
  <anchor x="559.0" y="0.0" name="bottom"/>
  <anchor x="559.0" y="-200.0" name="btm"/>
  <anchor x="988.0" y="50.0" name="ogonek"/>
  <anchor x="545.0" y="1660.0" name="top"/>
  <outline>
    <contour>
      <point x="436.0" y="-16.0" type="curve" smooth="yes"/>
      <point x="568.0" y="-16.0"/>
      <point x="686.0" y="40.0"/>
      <point x="745.0" y="94.0" type="curve"/>
      <point x="778.0" y="180.0" type="line"/>
      <point x="732.0" y="229.0" type="line"/>
      <point x="710.0" y="203.0"/>
      <point x="601.0" y="152.0"/>
      <point x="507.0" y="152.0" type="curve" smooth="yes"/>
      <point x="384.0" y="152.0"/>
      <point x="322.0" y="210.0"/>
      <point x="322.0" y="322.0" type="curve" smooth="yes"/>
      <point x="322.0" y="407.0"/>
      <point x="373.0" y="450.0"/>
      <point x="441.0" y="481.0" type="curve" smooth="yes"/>
      <point x="515.0" y="516.0"/>
      <point x="653.0" y="533.0"/>
      <point x="732.0" y="533.0" type="curve"/>
      <point x="780.0" y="614.0" type="line"/>
      <point x="732.0" y="675.0" type="line"/>
      <point x="603.0" y="675.0"/>
      <point x="432.0" y="657.0"/>
      <point x="304.0" y="605.0" type="curve" smooth="yes"/>
      <point x="174.0" y="549.0"/>
      <point x="92.0" y="449.0"/>
      <point x="92.0" y="307.0" type="curve" smooth="yes"/>
      <point x="92.0" y="108.0"/>
      <point x="236.0" y="-16.0"/>
    </contour>
    <contour>
      <point x="963.0" y="0.0" type="line"/>
      <point x="963.0" y="767.0" type="line" smooth="yes"/>
      <point x="963.0" y="1065.0"/>
      <point x="806.0" y="1131.0"/>
      <point x="556.0" y="1131.0" type="curve" smooth="yes"/>
      <point x="383.0" y="1131.0"/>
      <point x="186.0" y="1054.0"/>
      <point x="141.0" y="1026.0" type="curve"/>
      <point x="195.0" y="860.0" type="line"/>
      <point x="255.0" y="897.0"/>
      <point x="407.0" y="941.0"/>
      <point x="534.0" y="941.0" type="curve" smooth="yes"/>
      <point x="661.0" y="941.0"/>
      <point x="732.0" y="911.0"/>
      <point x="732.0" y="780.0" type="curve" smooth="yes"/>
      <point x="732.0" y="166.0" type="line"/>
      <point x="745.0" y="166.0" type="line"/>
      <point x="745.0" y="0.0" type="line"/>
    </contour>
  </outline>
</glyph>
<glyph name="b" format="2">
  <advance width="616.0"/>
  <unicode hex="0062"/>
  <anchor x="310.0" y="0.0" name="bottom"/>
  <anchor x="326.0" y="-83.0" name="btm"/>
  <anchor x="375.0" y="830.0" name="top"/>
  <outline>
    <contour>
      <point x="85.0" y="811.0" type="line"/>
      <point x="85.0" y="31.0" type="line"/>
      <point x="200.0" y="82.0" type="line"/>
      <point x="200.0" y="483.0" type="line"/>
      <point x="196.0" y="486.0" type="line"/>
      <point x="200.0" y="584.0" type="line"/>
      <point x="200.0" y="811.0" type="line"/>
    </contour>
    <contour>
      <point x="287.0" y="-9.0" type="curve" smooth="yes"/>
      <point x="457.0" y="-9.0"/>
      <point x="570.0" y="118.0"/>
      <point x="570.0" y="299.0" type="curve" smooth="yes"/>
      <point x="570.0" y="479.0"/>
      <point x="468.0" y="564.0"/>
      <point x="350.0" y="564.0" type="curve" smooth="yes"/>
      <point x="249.0" y="564.0"/>
      <point x="205.0" y="513.0"/>
      <point x="182.0" y="489.0" type="curve"/>
      <point x="200.0" y="432.0" type="line"/>
      <point x="224.0" y="450.0"/>
      <point x="266.0" y="475.0"/>
      <point x="318.0" y="475.0" type="curve" smooth="yes"/>
      <point x="403.0" y="475.0"/>
      <point x="453.0" y="417.0"/>
      <point x="452.0" y="285.0" type="curve" smooth="yes"/>
      <point x="450.0" y="148.0"/>
      <point x="385.0" y="74.0"/>
      <point x="299.0" y="74.0" type="curve" smooth="yes"/>
      <point x="251.0" y="74.0"/>
      <point x="218.0" y="81.0"/>
      <point x="200.0" y="94.0" type="curve"/>
      <point x="85.0" y="31.0" type="line"/>
      <point x="105.0" y="18.0"/>
      <point x="206.0" y="-9.0"/>
    </contour>
  </outline>
</glyph>
<glyph name="c" format="2">
  <advance width="976.0"/>
  <unicode hex="0063"/>
  <anchor x="480.0" y="0.0" name="bottom"/>
  <anchor x="546.0" y="-166.0" name="btm"/>
  <anchor x="588.0" y="1660.0" name="top"/>
  <outline>
    <contour>
      <point x="80.0" y="544.0" type="curve" smooth="yes"/>
      <point x="80.0" y="226.0"/>
      <point x="256.0" y="-16.0"/>
      <point x="574.0" y="-16.0" type="curve" smooth="yes"/>
      <point x="714.0" y="-16.0"/>
      <point x="848.0" y="26.0"/>
      <point x="916.0" y="90.0" type="curve"/>
      <point x="872.0" y="224.0" type="line"/>
      <point x="824.0" y="194.0"/>
      <point x="722.0" y="160.0"/>
      <point x="612.0" y="160.0" type="curve" smooth="yes"/>
      <point x="436.0" y="160.0"/>
      <point x="296.0" y="308.0"/>
      <point x="304.0" y="584.0" type="curve" smooth="yes"/>
      <point x="314.0" y="846.0"/>
      <point x="468.0" y="948.0"/>
      <point x="618.0" y="948.0" type="curve" smooth="yes"/>
      <point x="730.0" y="948.0"/>
      <point x="806.0" y="928.0"/>
      <point x="862.0" y="890.0" type="curve"/>
      <point x="898.0" y="1072.0" type="line"/>
      <point x="862.0" y="1096.0"/>
      <point x="760.0" y="1128.0"/>
      <point x="620.0" y="1128.0" type="curve" smooth="yes"/>
      <point x="260.0" y="1128.0"/>
      <point x="80.0" y="874.0"/>
    </contour>
  </outline>
</glyph>
<glyph name="d" format="2">
  <advance width="1224.0"/>
  <unicode hex="0064"/>
  <anchor x="612.0" y="0.0" name="bottom"/>
  <anchor x="599.0" y="-166.0" name="btm"/>
  <anchor x="612.0" y="558.0" name="center"/>
  <anchor x="361.0" y="1660.0" name="top"/>
  <anchor x="1184.0" y="1114.0" name="topright"/>
  <outline>
    <contour>
      <point x="844.0" y="0.0" type="line"/>
      <point x="1062.0" y="0.0" type="line"/>
      <point x="1062.0" y="1626.0" type="line"/>
      <point x="832.0" y="1626.0" type="line"/>
      <point x="832.0" y="1168.0" type="line"/>
      <point x="840.0" y="948.0" type="line"/>
      <point x="832.0" y="942.0" type="line"/>
      <point x="832.0" y="154.0" type="line"/>
      <point x="844.0" y="148.0" type="line"/>
    </contour>
    <contour>
      <point x="533.0" y="-16.0" type="curve" smooth="yes"/>
      <point x="735.0" y="-16.0"/>
      <point x="822.0" y="87.0"/>
      <point x="870.0" y="137.0" type="curve"/>
      <point x="832.0" y="251.0" type="line"/>
      <point x="786.0" y="215.0"/>
      <point x="701.0" y="166.0"/>
      <point x="597.0" y="166.0" type="curve" smooth="yes"/>
      <point x="426.0" y="166.0"/>
      <point x="326.0" y="282.0"/>
      <point x="330.0" y="544.0" type="curve" smooth="yes"/>
      <point x="332.0" y="818.0"/>
      <point x="465.0" y="961.0"/>
      <point x="635.0" y="961.0" type="curve" smooth="yes"/>
      <point x="726.0" y="961.0"/>
      <point x="792.0" y="949.0"/>
      <point x="832.0" y="915.0" type="curve"/>
      <point x="914.0" y="1062.0" type="line"/>
      <point x="888.0" y="1084.0"/>
      <point x="789.0" y="1128.0"/>
      <point x="652.0" y="1128.0" type="curve" smooth="yes"/>
      <point x="315.0" y="1128.0"/>
      <point x="92.0" y="878.0"/>
      <point x="92.0" y="517.0" type="curve" smooth="yes"/>
      <point x="92.0" y="155.0"/>
      <point x="299.0" y="-16.0"/>
    </contour>
  </outline>
</glyph>
<glyph name="f" format="2">
  <advance width="800.0"/>
  <unicode hex="0066"/>
  <anchor x="400.0" y="0.0" name="bottom"/>
  <anchor x="380.0" y="-166.0" name="btm"/>
  <anchor x="284.0" y="2036.0" name="top"/>
  <outline>
    <contour>
      <point x="240.0" y="0.0" type="line"/>
      <point x="472.0" y="0.0" type="line"/>
      <point x="472.0" y="943.0" type="line"/>
      <point x="743.0" y="943.0" type="line"/>
      <point x="743.0" y="1114.0" type="line"/>
      <point x="472.0" y="1114.0" type="line"/>
      <point x="472.0" y="1252.0" type="line" smooth="yes"/>
      <point x="472.0" y="1393.0"/>
      <point x="538.0" y="1463.0"/>
      <point x="630.0" y="1463.0" type="curve" smooth="yes"/>
      <point x="715.0" y="1463.0"/>
      <point x="756.0" y="1456.0"/>
      <point x="795.0" y="1444.0" type="curve"/>
      <point x="795.0" y="1622.0" type="line"/>
      <point x="774.0" y="1628.0"/>
      <point x="711.0" y="1642.0"/>
      <point x="646.0" y="1642.0" type="curve" smooth="yes"/>
      <point x="464.0" y="1642.0"/>
      <point x="240.0" y="1543.0"/>
      <point x="240.0" y="1212.0" type="curve" smooth="yes"/>
      <point x="240.0" y="1114.0" type="line"/>
      <point x="75.0" y="1072.0" type="line"/>
      <point x="75.0" y="943.0" type="line"/>
      <point x="240.0" y="943.0" type="line"/>
    </contour>
  </outline>
</glyph>
<glyph name="k" format="2">
  <advance width="1155.0"/>
  <unicode hex="006B"/>
  <anchor x="581.0" y="0.0" name="bottom"/>
  <anchor x="609.0" y="-166.0" name="btm"/>
  <anchor x="675.0" y="1660.0" name="top"/>
  <outline>
    <contour>
      <point x="1099.0" y="1114.0" type="line"/>
      <point x="829.0" y="1114.0" type="line"/>
      <point x="333.0" y="568.0" type="line"/>
      <point x="387.0" y="530.0" type="line"/>
      <point x="395.0" y="774.0" type="line"/>
      <point x="395.0" y="1622.0" type="line"/>
      <point x="171.0" y="1622.0" type="line"/>
      <point x="171.0" y="662.0" type="line"/>
      <point x="171.0" y="0.0" type="line"/>
      <point x="395.0" y="0.0" type="line"/>
      <point x="395.0" y="216.0" type="line"/>
      <point x="391.0" y="408.0" type="line"/>
      <point x="371.0" y="354.0" type="line"/>
    </contour>
    <contour>
      <point x="511.0" y="548.0" type="line"/>
      <point x="885.0" y="0.0" type="line"/>
      <point x="1147.0" y="0.0" type="line"/>
      <point x="667.0" y="698.0" type="line"/>
    </contour>
  </outline>
</glyph>
<glyph name="m" format="2">
  <advance width="1938.0"/>
  <unicode hex="006D"/>
  <anchor x="970.0" y="0.0" name="bottom"/>
  <anchor x="982.0" y="-166.0" name="btm"/>
  <anchor x="977.0" y="1660.0" name="top"/>
  <outline>
    <contour>
      <point x="172.0" y="0.0" type="line"/>
      <point x="402.0" y="0.0" type="line"/>
      <point x="402.0" y="838.0" type="line"/>
      <point x="488.0" y="903.0"/>
      <point x="597.0" y="935.0"/>
      <point x="666.0" y="937.0" type="curve" smooth="yes"/>
      <point x="829.0" y="944.0"/>
      <point x="863.0" y="865.0"/>
      <point x="863.0" y="683.0" type="curve" smooth="yes"/>
      <point x="863.0" y="0.0" type="line"/>
      <point x="1093.0" y="0.0" type="line"/>
      <point x="1093.0" y="697.0" type="line" smooth="yes"/>
      <point x="1093.0" y="1023.0"/>
      <point x="999.0" y="1137.0"/>
      <point x="760.0" y="1130.0" type="curve" smooth="yes"/>
      <point x="616.0" y="1126.0"/>
      <point x="462.0" y="1050.0"/>
      <point x="380.0" y="994.0" type="curve"/>
      <point x="379.0" y="1112.0" type="line"/>
      <point x="172.0" y="1112.0" type="line"/>
    </contour>
    <contour>
      <point x="1081.0" y="837.0" type="line"/>
      <point x="1162.0" y="896.0"/>
      <point x="1270.0" y="935.0"/>
      <point x="1348.0" y="937.0" type="curve" smooth="yes"/>
      <point x="1513.0" y="944.0"/>
      <point x="1543.0" y="865.0"/>
      <point x="1543.0" y="683.0" type="curve" smooth="yes"/>
      <point x="1543.0" y="0.0" type="line"/>
      <point x="1774.0" y="0.0" type="line"/>
      <point x="1774.0" y="698.0" type="line" smooth="yes"/>
      <point x="1774.0" y="1024.0"/>
      <point x="1672.0" y="1134.0"/>
      <point x="1434.0" y="1130.0" type="curve" smooth="yes"/>
      <point x="1276.0" y="1127.0"/>
      <point x="1110.0" y="1048.0"/>
      <point x="1032.0" y="983.0" type="curve"/>
    </contour>
  </outline>
</glyph>
<glyph name="o" format="2">
  <advance width="1198.0"/>
  <unicode hex="006F"/>
  <anchor x="599.0" y="0.0" name="bottom"/>
  <anchor x="593.0" y="-166.0" name="btm"/>
  <anchor x="599.0" y="558.0" name="center"/>
  <anchor x="698.0" y="0.0" name="ogonek"/>
  <anchor x="609.0" y="1660.0" name="top"/>
  <anchor x="832.0" y="1054.0" name="topright"/>
  <outline>
    <contour>
      <point x="589.0" y="-16.0" type="curve" smooth="yes"/>
      <point x="882.0" y="-16.0"/>
      <point x="1099.0" y="176.0"/>
      <point x="1105.0" y="534.0" type="curve" smooth="yes"/>
      <point x="1109.0" y="850.0"/>
      <point x="972.0" y="1128.0"/>
      <point x="609.0" y="1128.0" type="curve" smooth="yes"/>
      <point x="318.0" y="1128.0"/>
      <point x="98.0" y="938.0"/>
      <point x="93.0" y="580.0" type="curve" smooth="yes"/>
      <point x="89.0" y="262.0"/>
      <point x="227.0" y="-16.0"/>
    </contour>
    <contour>
      <point x="595.0" y="147.0" type="curve" smooth="yes"/>
      <point x="411.0" y="151.0"/>
      <point x="329.0" y="345.0"/>
      <point x="329.0" y="577.0" type="curve" smooth="yes"/>
      <point x="329.0" y="826.0"/>
      <point x="421.0" y="967.0"/>
      <point x="603.0" y="963.0" type="curve" smooth="yes"/>
      <point x="789.0" y="961.0"/>
      <point x="871.0" y="774.0"/>
      <point x="871.0" y="543.0" type="curve" smooth="yes"/>
      <point x="871.0" y="293.0"/>
      <point x="778.0" y="144.0"/>
    </contour>
  </outline>
</glyph>
<glyph name="p" format="2">
  <advance width="1224.0"/>
  <unicode hex="0070"/>
  <anchor x="612.0" y="0.0" name="bottom"/>
  <anchor x="635.0" y="-166.0" name="btm"/>
  <anchor x="699.0" y="1660.0" name="top"/>
  <outline>
    <contour>
      <point x="162.0" y="-494.0" type="line"/>
      <point x="392.0" y="-494.0" type="line"/>
      <point x="392.0" y="-136.0" type="line"/>
      <point x="390.0" y="46.0" type="line"/>
      <point x="392.0" y="92.0" type="line"/>
      <point x="392.0" y="954.0" type="line"/>
      <point x="372.0" y="978.0" type="line"/>
      <point x="372.0" y="1114.0" type="line"/>
      <point x="162.0" y="1114.0" type="line"/>
    </contour>
    <contour>
      <point x="573.0" y="-16.0" type="curve" smooth="yes"/>
      <point x="911.0" y="-16.0"/>
      <point x="1132.0" y="236.0"/>
      <point x="1132.0" y="598.0" type="curve" smooth="yes"/>
      <point x="1132.0" y="958.0"/>
      <point x="927.0" y="1128.0"/>
      <point x="691.0" y="1128.0" type="curve" smooth="yes"/>
      <point x="490.0" y="1128.0"/>
      <point x="402.0" y="1025.0"/>
      <point x="356.0" y="977.0" type="curve"/>
      <point x="392.0" y="863.0" type="line"/>
      <point x="440.0" y="900.0"/>
      <point x="523.0" y="950.0"/>
      <point x="627.0" y="950.0" type="curve" smooth="yes"/>
      <point x="798.0" y="950.0"/>
      <point x="898.0" y="835.0"/>
      <point x="896.0" y="569.0" type="curve" smooth="yes"/>
      <point x="892.0" y="298.0"/>
      <point x="761.0" y="150.0"/>
      <point x="589.0" y="150.0" type="curve" smooth="yes"/>
      <point x="498.0" y="150.0"/>
      <point x="434.0" y="164.0"/>
      <point x="392.0" y="200.0" type="curve"/>
      <point x="312.0" y="52.0" type="line"/>
      <point x="338.0" y="30.0"/>
      <point x="435.0" y="-16.0"/>
    </contour>
  </outline>
</glyph>
<glyph name="q" format="2">
  <advance width="1224.0"/>
  <unicode hex="0071"/>
  <anchor x="612.0" y="0.0" name="bottom"/>
  <anchor x="583.0" y="-166.0" name="btm"/>
  <anchor x="556.0" y="1660.0" name="top"/>
  <outline>
    <contour>
      <point x="834.0" y="-136.0" type="line"/>
      <point x="834.0" y="-494.0" type="line"/>
      <point x="1064.0" y="-494.0" type="line"/>
      <point x="1064.0" y="1114.0" type="line"/>
      <point x="862.0" y="1076.0" type="line"/>
      <point x="856.0" y="978.0" type="line"/>
      <point x="834.0" y="954.0" type="line"/>
      <point x="834.0" y="196.0" type="line"/>
      <point x="838.0" y="106.0" type="line"/>
    </contour>
    <contour>
      <point x="533.0" y="-16.0" type="curve" smooth="yes"/>
      <point x="735.0" y="-16.0"/>
      <point x="824.0" y="87.0"/>
      <point x="870.0" y="137.0" type="curve"/>
      <point x="834.0" y="251.0" type="line"/>
      <point x="788.0" y="215.0"/>
      <point x="701.0" y="166.0"/>
      <point x="597.0" y="166.0" type="curve" smooth="yes"/>
      <point x="426.0" y="166.0"/>
      <point x="326.0" y="282.0"/>
      <point x="330.0" y="544.0" type="curve" smooth="yes"/>
      <point x="332.0" y="818.0"/>
      <point x="465.0" y="961.0"/>
      <point x="635.0" y="961.0" type="curve" smooth="yes"/>
      <point x="726.0" y="961.0"/>
      <point x="792.0" y="949.0"/>
      <point x="834.0" y="915.0" type="curve"/>
      <point x="935.0" y="1062.0" type="line"/>
      <point x="911.0" y="1084.0"/>
      <point x="789.0" y="1128.0"/>
      <point x="652.0" y="1128.0" type="curve" smooth="yes"/>
      <point x="315.0" y="1128.0"/>
      <point x="92.0" y="878.0"/>
      <point x="92.0" y="517.0" type="curve" smooth="yes"/>
      <point x="92.0" y="155.0"/>
      <point x="299.0" y="-16.0"/>
    </contour>
  </outline>
</glyph>
<glyph name="s" format="2">
  <advance width="960.0"/>
  <unicode hex="0073"/>
  <anchor x="478.0" y="0.0" name="bottom"/>
  <anchor x="484.0" y="-166.0" name="btm"/>
  <anchor x="490.0" y="1660.0" name="top"/>
  <outline>
    <contour>
      <point x="104.0" y="66.0" type="line"/>
      <point x="158.0" y="26.0"/>
      <point x="310.0" y="-16.0"/>
      <point x="464.0" y="-16.0" type="curve" smooth="yes"/>
      <point x="712.0" y="-16.0"/>
      <point x="864.0" y="94.0"/>
      <point x="864.0" y="302.0" type="curve" smooth="yes"/>
      <point x="864.0" y="486.0"/>
      <point x="704.0" y="566.0"/>
      <point x="498.0" y="666.0" type="curve" smooth="yes"/>
      <point x="402.0" y="712.0"/>
      <point x="322.0" y="748.0"/>
      <point x="324.0" y="846.0" type="curve" smooth="yes"/>
      <point x="326.0" y="916.0"/>
      <point x="396.0" y="958.0"/>
      <point x="532.0" y="958.0" type="curve" smooth="yes"/>
      <point x="634.0" y="958.0"/>
      <point x="738.0" y="926.0"/>
      <point x="774.0" y="896.0" type="curve"/>
      <point x="808.0" y="1070.0" type="line"/>
      <point x="774.0" y="1090.0"/>
      <point x="660.0" y="1128.0"/>
      <point x="520.0" y="1128.0" type="curve" smooth="yes"/>
      <point x="294.0" y="1128.0"/>
      <point x="114.0" y="1032.0"/>
      <point x="110.0" y="834.0" type="curve" smooth="yes"/>
      <point x="108.0" y="652.0"/>
      <point x="234.0" y="558.0"/>
      <point x="414.0" y="476.0" type="curve" smooth="yes"/>
      <point x="548.0" y="416.0"/>
      <point x="646.0" y="370.0"/>
      <point x="646.0" y="284.0" type="curve" smooth="yes"/>
      <point x="646.0" y="202.0"/>
      <point x="578.0" y="154.0"/>
      <point x="450.0" y="156.0" type="curve" smooth="yes"/>
      <point x="308.0" y="158.0"/>
      <point x="166.0" y="214.0"/>
      <point x="136.0" y="236.0" type="curve"/>
    </contour>
  </outline>
</glyph>
<glyph name="t" format="2">
  <advance width="423.0"/>
  <unicode hex="0074"/>
  <anchor x="209.0" y="0.0" name="bottom"/>
  <anchor x="240.0" y="-83.0" name="btm"/>
  <anchor x="209.0" y="279.0" name="center"/>
  <anchor x="187.0" y="913.0" name="top"/>
  <anchor x="399.0" y="557.0" name="topright"/>
  <outline>
    <contour>
      <point x="241.0" y="-8.0" type="curve" smooth="yes"/>
      <point x="301.0" y="-8.0"/>
      <point x="367.0" y="16.0"/>
      <point x="397.0" y="39.0" type="curve"/>
      <point x="378.0" y="105.0" type="line"/>
      <point x="360.0" y="94.0"/>
      <point x="313.0" y="83.0"/>
      <point x="285.0" y="83.0" type="curve" smooth="yes"/>
      <point x="233.0" y="83.0"/>
      <point x="223.0" y="92.0"/>
      <point x="223.0" y="200.0" type="curve" smooth="yes"/>
      <point x="223.0" y="472.0" type="line"/>
      <point x="379.0" y="472.0" type="line"/>
      <point x="379.0" y="557.0" type="line"/>
      <point x="223.0" y="557.0" type="line"/>
      <point x="223.0" y="684.0" type="line"/>
      <point x="154.0" y="684.0" type="line"/>
      <point x="140.0" y="640.0"/>
      <point x="129.0" y="605.0"/>
      <point x="121.0" y="583.0" type="curve" smooth="yes"/>
      <point x="109.0" y="551.0"/>
      <point x="85.0" y="548.0"/>
      <point x="36.0" y="534.0" type="curve"/>
      <point x="36.0" y="472.0" type="line"/>
      <point x="108.0" y="472.0" type="line"/>
      <point x="108.0" y="139.0" type="line" smooth="yes"/>
      <point x="108.0" y="22.0"/>
      <point x="162.0" y="-8.0"/>
    </contour>
  </outline>
</glyph>
<glyph name="v" format="2">
  <advance width="1100.0"/>
  <unicode hex="0076"/>
  <anchor x="551.0" y="0.0" name="bottom"/>
  <anchor x="551.0" y="1114.0" name="top"/>
  <outline>
    <contour>
      <point x="456.0" y="-16.0" type="line"/>
      <point x="655.0" y="-16.0" type="line"/>
      <point x="1082.0" y="1114.0" type="line"/>
      <point x="837.0" y="1114.0" type="line"/>
      <point x="633.0" y="495.0" type="line"/>
      <point x="530.0" y="121.0" type="line"/>
      <point x="590.0" y="121.0" type="line"/>
      <point x="478.0" y="495.0" type="line"/>
      <point x="267.0" y="1114.0" type="line"/>
      <point x="18.0" y="1114.0" type="line"/>
    </contour>
  </outline>
</glyph>
<glyph name="x" format="2">
  <advance width="1088.0"/>
  <unicode hex="0078"/>
  <anchor x="538.0" y="0.0" name="bottom"/>
  <anchor x="552.0" y="-166.0" name="btm"/>
  <anchor x="552.0" y="1660.0" name="top"/>
  <outline>
    <contour>
      <point x="22.0" y="0.0" type="line"/>
      <point x="286.0" y="0.0" type="line"/>
      <point x="504.0" y="358.0" type="line"/>
      <point x="570.0" y="492.0" type="line"/>
      <point x="484.0" y="492.0" type="line"/>
      <point x="566.0" y="360.0" type="line"/>
      <point x="802.0" y="0.0" type="line"/>
      <point x="1068.0" y="0.0" type="line"/>
      <point x="638.0" y="606.0" type="line"/>
      <point x="638.0" y="532.0" type="line"/>
      <point x="1060.0" y="1114.0" type="line"/>
      <point x="800.0" y="1114.0" type="line"/>
      <point x="566.0" y="760.0" type="line"/>
      <point x="508.0" y="644.0" type="line"/>
      <point x="584.0" y="644.0" type="line"/>
      <point x="516.0" y="758.0" type="line"/>
      <point x="282.0" y="1114.0" type="line"/>
      <point x="20.0" y="1114.0" type="line"/>
      <point x="440.0" y="530.0" type="line"/>
      <point x="438.0" y="596.0" type="line"/>
    </contour>
  </outline>
</glyph>
<glyph name="y" format="2">
  <advance width="551.0"/>
  <unicode hex="0079"/>
  <anchor x="462.0" y="0.0" name="bottom"/>
  <anchor x="296.0" y="830.0" name="top"/>
  <outline>
    <contour>
      <point x="69.0" y="-240.0" type="line"/>
      <point x="75.0" y="-244.0"/>
      <point x="112.0" y="-248.0"/>
      <point x="127.0" y="-248.0" type="curve" smooth="yes"/>
      <point x="142.0" y="-248.0"/>
      <point x="169.0" y="-244.0"/>
      <point x="183.0" y="-239.0" type="curve" smooth="yes"/>
      <point x="255.0" y="-219.0"/>
      <point x="317.0" y="-151.0"/>
      <point x="361.0" y="-17.0" type="curve" smooth="yes"/>
      <point x="546.0" y="557.0" type="line"/>
      <point x="422.0" y="557.0" type="line"/>
      <point x="323.0" y="196.0" type="line"/>
      <point x="282.0" y="40.0" type="line"/>
      <point x="312.0" y="40.0" type="line"/>
      <point x="265.0" y="196.0" type="line"/>
      <point x="149.0" y="557.0" type="line"/>
      <point x="25.0" y="557.0" type="line"/>
      <point x="224.0" y="0.0" type="line"/>
      <point x="272.0" y="0.0" type="line"/>
      <point x="265.0" y="14.0" type="line"/>
      <point x="236.0" y="-130.0"/>
      <point x="160.0" y="-153.0"/>
      <point x="118.0" y="-153.0" type="curve" smooth="yes"/>
      <point x="107.0" y="-153.0"/>
      <point x="80.0" y="-150.0"/>
      <point x="69.0" y="-146.0" type="curve"/>
    </contour>
  </outline>
</glyph>
<glyph name="z" format="2">
  <advance width="1026.0"/>
  <unicode hex="007A"/>
  <anchor x="504.0" y="0.0" name="bottom"/>
  <anchor x="504.0" y="-166.0" name="btm"/>
  <anchor x="504.0" y="558.0" name="center"/>
  <anchor x="510.0" y="1660.0" name="top"/>
  <outline>
    <contour>
      <point x="102.0" y="0.0" type="line"/>
      <point x="938.0" y="0.0" type="line"/>
      <point x="938.0" y="166.0" type="line"/>
      <point x="374.0" y="166.0" type="line"/>
      <point x="432.0" y="248.0" type="line"/>
      <point x="958.0" y="1020.0" type="line"/>
      <point x="924.0" y="1114.0" type="line"/>
      <point x="120.0" y="1114.0" type="line"/>
      <point x="120.0" y="942.0" type="line"/>
      <point x="648.0" y="942.0" type="line"/>
      <point x="590.0" y="860.0" type="line"/>
      <point x="60.0" y="80.0" type="line"/>
    </contour>
  </outline>
</glyph>
<glyph name="braceleft" format="2">
  <advance width="962.0"/>
  <unicode hex="007B"/>
  <outline>
    <contour>
      <point x="328.0" y="58.0" type="line"/>
      <point x="328.0" y="-134.0"/>
      <point x="374.0" y="-194.0"/>
      <point x="524.0" y="-194.0" type="curve" smooth="yes"/>
      <point x="632.0" y="-194.0"/>
      <point x="718.0" y="-182.0"/>
      <point x="802.0" y="-160.0" type="curve"/>
      <point x="802.0" y="-44.0" type="line"/>
      <point x="542.0" y="-44.0" type="line"/>
      <point x="542.0" y="556.0" type="line" smooth="yes"/>
      <point x="542.0" y="590.0"/>
      <point x="526.0" y="618.0"/>
      <point x="502.0" y="644.0" type="curve" smooth="yes"/>
      <point x="452.0" y="698.0"/>
      <point x="358.0" y="740.0"/>
      <point x="276.0" y="770.0" type="curve"/>
      <point x="276.0" y="746.0" type="line"/>
      <point x="358.0" y="780.0"/>
      <point x="452.0" y="814.0"/>
      <point x="500.0" y="862.0" type="curve" smooth="yes"/>
      <point x="526.0" y="888.0"/>
      <point x="542.0" y="918.0"/>
      <point x="542.0" y="956.0" type="curve" smooth="yes"/>
      <point x="542.0" y="1552.0" type="line"/>
      <point x="802.0" y="1552.0" type="line"/>
      <point x="802.0" y="1680.0" type="line"/>
      <point x="718.0" y="1690.0"/>
      <point x="632.0" y="1704.0"/>
      <point x="524.0" y="1704.0" type="curve" smooth="yes"/>
      <point x="374.0" y="1704.0"/>
      <point x="328.0" y="1644.0"/>
      <point x="328.0" y="1452.0" type="curve" smooth="yes"/>
      <point x="328.0" y="956.0" type="line" smooth="yes"/>
      <point x="328.0" y="896.0"/>
      <point x="178.0" y="842.0"/>
      <point x="80.0" y="832.0" type="curve"/>
      <point x="80.0" y="686.0" type="line"/>
      <point x="178.0" y="676.0"/>
      <point x="328.0" y="612.0"/>
      <point x="328.0" y="554.0" type="curve" smooth="yes"/>
    </contour>
  </outline>
</glyph>
<glyph name="sterling" format="2">
  <advance width="1504.0"/>
  <unicode hex="00A3"/>
  <outline>
    <contour>
      <point x="137.0" y="84.0" type="curve" smooth="yes"/>
      <point x="137.0" y="29.0"/>
      <point x="202.0" y="-3.0"/>
      <point x="248.0" y="-3.0" type="curve" smooth="yes"/>
      <point x="326.0" y="-3.0"/>
      <point x="405.0" y="45.0"/>
      <point x="445.0" y="90.0" type="curve"/>
      <point x="541.0" y="98.0"/>
      <point x="671.0" y="-20.0"/>
      <point x="945.0" y="-20.0" type="curve" smooth="yes"/>
      <point x="1223.0" y="-20.0"/>
      <point x="1370.0" y="91.0"/>
      <point x="1370.0" y="315.0" type="curve" smooth="yes"/>
      <point x="1370.0" y="443.0"/>
      <point x="1291.0" y="531.0"/>
      <point x="1244.0" y="557.0" type="curve"/>
      <point x="1083.0" y="474.0" type="line"/>
      <point x="1113.0" y="462.0"/>
      <point x="1154.0" y="401.0"/>
      <point x="1154.0" y="328.0" type="curve" smooth="yes"/>
      <point x="1154.0" y="229.0"/>
      <point x="1100.0" y="144.0"/>
      <point x="916.0" y="144.0" type="curve" smooth="yes"/>
      <point x="749.0" y="144.0"/>
      <point x="693.0" y="193.0"/>
      <point x="574.0" y="214.0" type="curve"/>
      <point x="644.0" y="287.0"/>
      <point x="657.0" y="430.0"/>
      <point x="656.0" y="675.0" type="curve" smooth="yes"/>
      <point x="654.0" y="983.0" type="line" smooth="yes"/>
      <point x="652.0" y="1279.0"/>
      <point x="771.0" y="1326.0"/>
      <point x="879.0" y="1326.0" type="curve" smooth="yes"/>
      <point x="994.0" y="1326.0"/>
      <point x="1061.0" y="1283.0"/>
      <point x="1113.0" y="1238.0" type="curve"/>
      <point x="1219.0" y="1406.0" type="line"/>
      <point x="1158.0" y="1456.0"/>
      <point x="1054.0" y="1502.0"/>
      <point x="892.0" y="1502.0" type="curve" smooth="yes"/>
      <point x="592.0" y="1502.0"/>
      <point x="422.0" y="1307.0"/>
      <point x="422.0" y="1016.0" type="curve" smooth="yes"/>
      <point x="422.0" y="469.0" type="line" smooth="yes"/>
      <point x="422.0" y="398.0"/>
      <point x="418.0" y="310.0"/>
      <point x="393.0" y="259.0" type="curve"/>
      <point x="225.0" y="251.0"/>
      <point x="137.0" y="177.0"/>
    </contour>
    <contour>
      <point x="247.0" y="731.0" type="line"/>
      <point x="991.0" y="731.0" type="line"/>
      <point x="991.0" y="884.0" type="line"/>
      <point x="247.0" y="884.0" type="line"/>
    </contour>
  </outline>
</glyph>
<glyph name="section" format="2">
  <advance width="1334.0"/>
  <unicode hex="00A7"/>
  <outline>
    <contour>
      <point x="225.0" y="1299.0" type="curve" smooth="yes"/>
      <point x="225.0" y="882.0"/>
      <point x="923.0" y="928.0"/>
      <point x="923.0" y="604.0" type="curve" smooth="yes"/>
      <point x="923.0" y="522.0"/>
      <point x="867.0" y="396.0"/>
      <point x="829.0" y="344.0" type="curve"/>
      <point x="931.0" y="286.0" type="line"/>
      <point x="1045.0" y="372.0"/>
      <point x="1129.0" y="498.0"/>
      <point x="1129.0" y="642.0" type="curve" smooth="yes"/>
      <point x="1129.0" y="1052.0"/>
      <point x="438.0" y="1053.0"/>
      <point x="438.0" y="1318.0" type="curve" smooth="yes"/>
      <point x="438.0" y="1423.0"/>
      <point x="553.0" y="1462.0"/>
      <point x="680.0" y="1464.0" type="curve" smooth="yes"/>
      <point x="854.0" y="1464.0"/>
      <point x="953.0" y="1420.0"/>
      <point x="998.0" y="1390.0" type="curve"/>
      <point x="1038.0" y="1562.0" type="line"/>
      <point x="982.0" y="1596.0"/>
      <point x="864.0" y="1634.0"/>
      <point x="680.0" y="1634.0" type="curve" smooth="yes"/>
      <point x="480.0" y="1634.0"/>
      <point x="225.0" y="1558.0"/>
    </contour>
    <contour>
      <point x="1113.0" y="148.0" type="curve" smooth="yes"/>
      <point x="1113.0" y="552.0"/>
      <point x="416.0" y="479.0"/>
      <point x="416.0" y="786.0" type="curve" smooth="yes"/>
      <point x="416.0" y="868.0"/>
      <point x="472.0" y="984.0"/>
      <point x="511.0" y="1036.0" type="curve"/>
      <point x="402.0" y="1094.0" type="line"/>
      <point x="292.0" y="1012.0"/>
      <point x="208.0" y="888.0"/>
      <point x="208.0" y="750.0" type="curve" smooth="yes"/>
      <point x="208.0" y="348.0"/>
      <point x="901.0" y="372.0"/>
      <point x="901.0" y="132.0" type="curve" smooth="yes"/>
      <point x="901.0" y="21.0"/>
      <point x="774.0" y="-18.0"/>
      <point x="633.0" y="-18.0" type="curve" smooth="yes"/>
      <point x="457.0" y="-20.0"/>
      <point x="322.0" y="36.0"/>
      <point x="269.0" y="74.0" type="curve"/>
      <point x="229.0" y="-98.0" type="line"/>
      <point x="289.0" y="-140.0"/>
      <point x="451.0" y="-188.0"/>
      <point x="633.0" y="-188.0" type="curve" smooth="yes"/>
      <point x="847.0" y="-188.0"/>
      <point x="1113.0" y="-108.0"/>
    </contour>
  </outline>
</glyph>
<glyph name="ordfeminine" format="2">
  <advance width="1016.0"/>
  <unicode hex="00AA"/>
  <outline>
    <contour>
      <point x="417.0" y="660.0" type="curve" smooth="yes"/>
      <point x="531.0" y="660.0"/>
      <point x="628.0" y="708.0"/>
      <point x="671.0" y="753.0" type="curve"/>
      <point x="703.0" y="813.0" type="line"/>
      <point x="661.0" y="871.0" type="line"/>
      <point x="641.0" y="852.0"/>
      <point x="554.0" y="810.0"/>
      <point x="461.0" y="810.0" type="curve" smooth="yes"/>
      <point x="384.0" y="810.0"/>
      <point x="322.0" y="845.0"/>
      <point x="322.0" y="920.0" type="curve" smooth="yes"/>
      <point x="322.0" y="988.0"/>
      <point x="347.0" y="1023.0"/>
      <point x="405.0" y="1052.0" type="curve" smooth="yes"/>
      <point x="475.0" y="1087.0"/>
      <point x="569.0" y="1086.0"/>
      <point x="661.0" y="1086.0" type="curve"/>
      <point x="703.0" y="1150.0" type="line"/>
      <point x="661.0" y="1210.0" type="line"/>
      <point x="553.0" y="1210.0"/>
      <point x="415.0" y="1198.0"/>
      <point x="299.0" y="1154.0" type="curve" smooth="yes"/>
      <point x="195.0" y="1114.0"/>
      <point x="123.0" y="1039.0"/>
      <point x="123.0" y="906.0" type="curve" smooth="yes"/>
      <point x="123.0" y="750.0"/>
      <point x="242.0" y="660.0"/>
    </contour>
    <contour>
      <point x="866.0" y="669.0" type="line"/>
      <point x="866.0" y="1138.0" type="line"/>
      <point x="866.0" y="1273.0" type="line" smooth="yes"/>
      <point x="866.0" y="1494.0"/>
      <point x="734.0" y="1565.0"/>
      <point x="519.0" y="1565.0" type="curve" smooth="yes"/>
      <point x="368.0" y="1565.0"/>
      <point x="183.0" y="1488.0"/>
      <point x="147.0" y="1454.0" type="curve"/>
      <point x="203.0" y="1330.0" type="line"/>
      <point x="245.0" y="1360.0"/>
      <point x="388.0" y="1407.0"/>
      <point x="476.0" y="1407.0" type="curve" smooth="yes"/>
      <point x="598.0" y="1407.0"/>
      <point x="661.0" y="1394.0"/>
      <point x="661.0" y="1267.0" type="curve" smooth="yes"/>
      <point x="661.0" y="803.0" type="line"/>
      <point x="671.0" y="803.0" type="line"/>
      <point x="671.0" y="741.0" type="line" smooth="yes"/>
      <point x="671.0" y="664.0"/>
      <point x="713.0" y="669.0"/>
      <point x="786.0" y="669.0" type="curve" smooth="yes"/>
    </contour>
  </outline>
</glyph>
<glyph name="logicalnot" format="2">
  <advance width="1438.0"/>
  <unicode hex="00AC"/>
  <outline>
    <contour>
      <point x="235.0" y="663.0" type="line"/>
      <point x="999.0" y="663.0" type="line"/>
      <point x="999.0" y="316.0" type="line"/>
      <point x="1203.0" y="316.0" type="line"/>
      <point x="1203.0" y="832.0" type="line"/>
      <point x="235.0" y="832.0" type="line"/>
    </contour>
  </outline>
</glyph>
<glyph name="registered" format="2">
  <advance width="2074.0"/>
  <unicode hex="00AE"/>
  <outline>
    <contour>
      <point x="186.0" y="940.0" type="curve" smooth="yes"/>
      <point x="186.0" y="464.0"/>
      <point x="561.0" y="80.0"/>
      <point x="1037.0" y="80.0" type="curve" smooth="yes"/>
      <point x="1511.0" y="80.0"/>
      <point x="1888.0" y="464.0"/>
      <point x="1888.0" y="940.0" type="curve" smooth="yes"/>
      <point x="1888.0" y="1416.0"/>
      <point x="1511.0" y="1796.0"/>
      <point x="1037.0" y="1796.0" type="curve" smooth="yes"/>
      <point x="561.0" y="1796.0"/>
      <point x="186.0" y="1416.0"/>
    </contour>
    <contour>
      <point x="324.0" y="940.0" type="curve" smooth="yes"/>
      <point x="324.0" y="1344.0"/>
      <point x="628.0" y="1674.0"/>
      <point x="1037.0" y="1674.0" type="curve" smooth="yes"/>
      <point x="1444.0" y="1674.0"/>
      <point x="1748.0" y="1344.0"/>
      <point x="1748.0" y="940.0" type="curve" smooth="yes"/>
      <point x="1748.0" y="536.0"/>
      <point x="1444.0" y="206.0"/>
      <point x="1037.0" y="206.0" type="curve" smooth="yes"/>
      <point x="628.0" y="206.0"/>
      <point x="324.0" y="536.0"/>
    </contour>
    <contour>
      <point x="715.0" y="468.0" type="line"/>
      <point x="895.0" y="468.0" type="line"/>
      <point x="895.0" y="825.0" type="line"/>
      <point x="938.0" y="825.0"/>
      <point x="987.0" y="825.0"/>
      <point x="1009.0" y="827.0" type="curve"/>
      <point x="1099.0" y="801.0"/>
      <point x="1138.0" y="683.0"/>
      <point x="1179.0" y="595.0" type="curve" smooth="yes"/>
      <point x="1202.0" y="546.0"/>
      <point x="1221.0" y="507.0"/>
      <point x="1251.0" y="468.0" type="curve"/>
      <point x="1458.0" y="468.0" type="line"/>
      <point x="1404.0" y="549.0"/>
      <point x="1384.0" y="576.0"/>
      <point x="1364.0" y="614.0" type="curve" smooth="yes"/>
      <point x="1318.0" y="698.0"/>
      <point x="1280.0" y="800.0"/>
      <point x="1208.0" y="851.0" type="curve"/>
      <point x="1346.0" y="893.0"/>
      <point x="1395.0" y="1004.0"/>
      <point x="1395.0" y="1146.0" type="curve" smooth="yes"/>
      <point x="1395.0" y="1294.0"/>
      <point x="1289.0" y="1414.0"/>
      <point x="1046.0" y="1414.0" type="curve" smooth="yes"/>
      <point x="949.0" y="1414.0"/>
      <point x="864.0" y="1408.0"/>
      <point x="793.0" y="1408.0" type="curve" smooth="yes"/>
      <point x="766.0" y="1408.0"/>
      <point x="742.0" y="1408.0"/>
      <point x="715.0" y="1408.0" type="curve"/>
    </contour>
    <contour>
      <point x="895.0" y="959.0" type="curve"/>
      <point x="895.0" y="1269.0" type="line"/>
      <point x="931.0" y="1280.0"/>
      <point x="958.0" y="1279.0"/>
      <point x="999.0" y="1281.0" type="curve" smooth="yes"/>
      <point x="1167.0" y="1285.0"/>
      <point x="1209.0" y="1221.0"/>
      <point x="1209.0" y="1123.0" type="curve" smooth="yes"/>
      <point x="1209.0" y="1000.0"/>
      <point x="1146.0" y="955.0"/>
      <point x="1019.0" y="955.0" type="curve" smooth="yes"/>
      <point x="986.0" y="955.0"/>
      <point x="923.0" y="955.0"/>
    </contour>
  </outline>
</glyph>
<glyph name="macron" format="2">
  <advance width="641.0"/>
  <unicode hex="00AF"/>
  <anchor x="319.0" y="1660.0" name="_top"/>
  <outline>
    <contour>
      <point x="49.0" y="1391.0" type="line"/>
      <point x="592.0" y="1391.0" type="line"/>
      <point x="592.0" y="1557.0" type="line"/>
      <point x="49.0" y="1557.0" type="line"/>
    </contour>
  </outline>
</glyph>
<glyph name="degree" format="2">
  <advance width="898.0"/>
  <unicode hex="00B0"/>
  <outline>
    <contour>
      <point x="114.0" y="1248.0" type="curve" smooth="yes"/>
      <point x="114.0" y="1057.0"/>
      <point x="264.0" y="913.0"/>
      <point x="450.0" y="913.0" type="curve" smooth="yes"/>
      <point x="637.0" y="913.0"/>
      <point x="785.0" y="1054.0"/>
      <point x="785.0" y="1248.0" type="curve" smooth="yes"/>
      <point x="785.0" y="1439.0"/>
      <point x="636.0" y="1583.0"/>
      <point x="450.0" y="1583.0" type="curve" smooth="yes"/>
      <point x="261.0" y="1583.0"/>
      <point x="114.0" y="1441.0"/>
    </contour>
    <contour>
      <point x="278.0" y="1248.0" type="curve" smooth="yes"/>
      <point x="278.0" y="1352.0"/>
      <point x="354.0" y="1428.0"/>
      <point x="450.0" y="1428.0" type="curve" smooth="yes"/>
      <point x="544.0" y="1428.0"/>
      <point x="620.0" y="1352.0"/>
      <point x="620.0" y="1248.0" type="curve" smooth="yes"/>
      <point x="620.0" y="1144.0"/>
      <point x="544.0" y="1068.0"/>
      <point x="450.0" y="1068.0" type="curve" smooth="yes"/>
      <point x="354.0" y="1068.0"/>
      <point x="278.0" y="1144.0"/>
    </contour>
  </outline>
</glyph>
<glyph name="acute" format="2">
  <advance width="592.0"/>
  <unicode hex="00B4"/>
  <anchor x="177.0" y="1660.0" name="_top"/>
  <outline>
    <contour>
      <point x="165.0" y="1257.0" type="line"/>
      <point x="237.0" y="1286.0"/>
      <point x="494.0" y="1516.0"/>
      <point x="543.0" y="1608.0" type="curve"/>
      <point x="379.0" y="1746.0" type="line"/>
      <point x="285.0" y="1606.0"/>
      <point x="161.0" y="1472.0"/>
      <point x="49.0" y="1353.0" type="curve"/>
    </contour>
  </outline>
</glyph>
<glyph name="paragraph" format="2">
  <advance width="1368.0"/>
  <unicode hex="00B6"/>
  <outline>
    <contour>
      <point x="562.0" y="0.0" type="line"/>
      <point x="754.0" y="0.0" type="line"/>
      <point x="754.0" y="1508.0" type="line"/>
      <point x="984.0" y="1508.0" type="line"/>
      <point x="984.0" y="0.0" type="line"/>
      <point x="1176.0" y="0.0" type="line"/>
      <point x="1176.0" y="1652.0" type="line"/>
      <point x="1060.0" y="1654.0"/>
      <point x="798.0" y="1670.0"/>
      <point x="704.0" y="1670.0" type="curve" smooth="yes"/>
      <point x="332.0" y="1670.0"/>
      <point x="140.0" y="1496.0"/>
      <point x="140.0" y="1218.0" type="curve" smooth="yes"/>
      <point x="140.0" y="894.0"/>
      <point x="290.0" y="758.0"/>
      <point x="562.0" y="758.0" type="curve"/>
    </contour>
  </outline>
</glyph>
<glyph name="cedilla" format="2">
  <advance width="480.0"/>
  <unicode hex="00B8"/>
  <anchor x="320.0" y="-166.0" name="_btm"/>
  <outline>
    <contour>
      <point x="44.0" y="-426.0" type="line"/>
      <point x="66.0" y="-442.0"/>
      <point x="139.0" y="-454.0"/>
      <point x="193.0" y="-454.0" type="curve" smooth="yes"/>
      <point x="308.0" y="-454.0"/>
      <point x="417.0" y="-387.0"/>
      <point x="430.0" y="-223.0" type="curve" smooth="yes"/>
      <point x="437.0" y="-117.0"/>
      <point x="419.0" y="-17.0"/>
      <point x="373.0" y="30.0" type="curve"/>
      <point x="330.0" y="34.0" type="line"/>
      <point x="240.0" y="30.0" type="line"/>
      <point x="259.0" y="-7.0"/>
      <point x="273.0" y="-58.0"/>
      <point x="261.0" y="-150.0" type="curve" smooth="yes"/>
      <point x="255.0" y="-255.0"/>
      <point x="202.0" y="-296.0"/>
      <point x="138.0" y="-296.0" type="curve" smooth="yes"/>
      <point x="108.0" y="-296.0"/>
      <point x="76.0" y="-294.0"/>
      <point x="59.0" y="-284.0" type="curve"/>
    </contour>
  </outline>
</glyph>
<glyph name="ordmasculine" format="2">
  <advance width="1014.0"/>
  <unicode hex="00BA"/>
  <outline>
    <contour>
      <point x="103.0" y="1125.0" type="curve" smooth="yes"/>
      <point x="101.0" y="844.0"/>
      <point x="246.0" y="661.0"/>
      <point x="503.0" y="661.0" type="curve" smooth="yes"/>
      <point x="704.0" y="661.0"/>
      <point x="906.0" y="784.0"/>
      <point x="910.0" y="1105.0" type="curve" smooth="yes"/>
      <point x="914.0" y="1378.0"/>
      <point x="777.0" y="1565.0"/>
      <point x="524.0" y="1565.0" type="curve" smooth="yes"/>
      <point x="330.0" y="1565.0"/>
      <point x="109.0" y="1446.0"/>
    </contour>
    <contour>
      <point x="317.0" y="1125.0" type="curve" smooth="yes"/>
      <point x="317.0" y="1333.0"/>
      <point x="399.0" y="1412.0"/>
      <point x="513.0" y="1414.0" type="curve" smooth="yes"/>
      <point x="634.0" y="1416.0"/>
      <point x="698.0" y="1296.0"/>
      <point x="698.0" y="1103.0" type="curve" smooth="yes"/>
      <point x="698.0" y="895.0"/>
      <point x="634.0" y="814.0"/>
      <point x="513.0" y="812.0" type="curve" smooth="yes"/>
      <point x="389.0" y="810.0"/>
      <point x="317.0" y="933.0"/>
    </contour>
  </outline>
</glyph>
<glyph name="guillemetright" format="2">
  <advance width="1924.0"/>
  <unicode hex="00BB"/>
  <outline>
    <contour>
      <point x="1684.0" y="502.0" type="line"/>
      <point x="1684.0" y="692.0" type="line"/>
      <point x="1072.0" y="1110.0" type="line"/>
      <point x="1014.0" y="942.0" type="line"/>
      <point x="1518.0" y="558.0" type="line"/>
      <point x="1518.0" y="642.0" type="line"/>
      <point x="1014.0" y="260.0" type="line"/>
      <point x="1072.0" y="98.0" type="line"/>
    </contour>
    <contour>
      <point x="934.0" y="502.0" type="line"/>
      <point x="934.0" y="692.0" type="line"/>
      <point x="308.0" y="1110.0" type="line"/>
      <point x="250.0" y="942.0" type="line"/>
      <point x="766.0" y="558.0" type="line"/>
      <point x="766.0" y="642.0" type="line"/>
      <point x="250.0" y="260.0" type="line"/>
      <point x="308.0" y="98.0" type="line"/>
    </contour>
  </outline>
</glyph>
<glyph name="AE" format="2">
  <advance width="1830.0"/>
  <unicode hex="00C6"/>
  <anchor x="915.0" y="0.0" name="bottom"/>
  <anchor x="1354.0" y="-166.0" name="btm"/>
  <anchor x="1001.0" y="1660.0" name="top"/>
  <outline>
    <contour>
      <point x="-78.0" y="0.0" type="line"/>
      <point x="179.0" y="0.0" type="line"/>
      <point x="834.0" y="1378.0" type="line"/>
      <point x="637.0" y="1486.0" type="line"/>
    </contour>
    <contour>
      <point x="822.0" y="1486.0" type="line"/>
      <point x="637.0" y="1486.0" type="line"/>
      <point x="667.0" y="1344.0" type="line"/>
      <point x="901.0" y="1344.0" type="line"/>
    </contour>
    <contour>
      <point x="230.0" y="375.0" type="line"/>
      <point x="986.0" y="375.0" type="line"/>
      <point x="952.0" y="546.0" type="line"/>
      <point x="272.0" y="546.0" type="line"/>
    </contour>
    <contour>
      <point x="822.0" y="0.0" type="line"/>
      <point x="1756.0" y="0.0" type="line"/>
      <point x="1756.0" y="184.0" type="line"/>
      <point x="1056.0" y="184.0" type="line"/>
      <point x="1056.0" y="676.0" type="line"/>
      <point x="1521.0" y="676.0" type="line"/>
      <point x="1521.0" y="856.0" type="line"/>
      <point x="1056.0" y="856.0" type="line"/>
      <point x="1056.0" y="1306.0" type="line"/>
      <point x="1685.0" y="1306.0" type="line"/>
      <point x="1685.0" y="1486.0" type="line"/>
      <point x="822.0" y="1486.0" type="line"/>
    </contour>
  </outline>
</glyph>
<glyph name="Eth" format="2">
  <advance width="726.11111"/>
  <unicode hex="00D0"/>
  <anchor x="358.0" y="0.0" name="bottom"/>
  <anchor x="318.0" y="-83.0" name="btm"/>
  <anchor x="358.0" y="372.0" name="center"/>
  <anchor x="353.0" y="830.0" name="top"/>
  <outline>
    <contour>
      <point x="32.356" y="349.689" type="line"/>
      <point x="399.022" y="349.689" type="line"/>
      <point x="399.022" y="426.311" type="line"/>
      <point x="32.356" y="426.311" type="line"/>
    </contour>
    <component base="D"/>
  </outline>
</glyph>
<glyph name="multiply" format="2">
  <advance width="1340.0"/>
  <unicode hex="00D7"/>
  <outline>
    <contour>
      <point x="217.0" y="423.0" type="line"/>
      <point x="352.0" y="291.0" type="line"/>
      <point x="671.0" y="629.0" type="line"/>
      <point x="990.0" y="291.0" type="line"/>
      <point x="1125.0" y="423.0" type="line"/>
      <point x="792.0" y="758.0" type="line"/>
      <point x="1125.0" y="1099.0" type="line"/>
      <point x="990.0" y="1231.0" type="line"/>
      <point x="671.0" y="881.0" type="line"/>
      <point x="352.0" y="1231.0" type="line"/>
      <point x="217.0" y="1099.0" type="line"/>
      <point x="550.0" y="756.0" type="line"/>
    </contour>
  </outline>
</glyph>
<glyph name="Oslash" format="2">
  <advance width="1537.0"/>
  <unicode hex="00D8"/>
  <anchor x="768.0" y="0.0" name="bottom"/>
  <anchor x="752.0" y="1660.0" name="top"/>
  <outline>
    <contour>
      <point x="359.0" y="-199.0" type="line"/>
      <point x="1296.0" y="1670.0" type="line"/>
      <point x="1180.0" y="1705.0" type="line"/>
      <point x="242.0" y="-164.0" type="line"/>
    </contour>
    <contour>
      <point x="762.0" y="-16.0" type="curve" smooth="yes"/>
      <point x="1145.0" y="-8.0"/>
      <point x="1429.0" y="245.0"/>
      <point x="1439.0" y="744.0" type="curve" smooth="yes"/>
      <point x="1449.0" y="1204.0"/>
      <point x="1189.0" y="1504.0"/>
      <point x="792.0" y="1502.0" type="curve" smooth="yes"/>
      <point x="410.0" y="1500.0"/>
      <point x="108.0" y="1253.0"/>
      <point x="98.0" y="753.0" type="curve" smooth="yes"/>
      <point x="88.0" y="302.0"/>
      <point x="347.0" y="-24.0"/>
    </contour>
    <contour>
      <point x="768.0" y="163.0" type="curve" smooth="yes"/>
      <point x="482.0" y="163.0"/>
      <point x="335.0" y="435.0"/>
      <point x="335.0" y="740.0" type="curve" smooth="yes"/>
      <point x="335.0" y="1143.0"/>
      <point x="542.0" y="1324.0"/>
      <point x="784.0" y="1324.0" type="curve" smooth="yes"/>
      <point x="1061.0" y="1324.0"/>
      <point x="1201.0" y="1062.0"/>
      <point x="1201.0" y="754.0" type="curve" smooth="yes"/>
      <point x="1201.0" y="366.0"/>
      <point x="1031.0" y="163.0"/>
    </contour>
  </outline>
</glyph>
<glyph name="ae" format="2">
  <advance width="1750.0"/>
  <unicode hex="00E6"/>
  <anchor x="876.0" y="0.0" name="bottom"/>
  <anchor x="888.0" y="1660.0" name="top"/>
  <outline>
    <contour>
      <point x="1236.0" y="-16.0" type="curve" smooth="yes"/>
      <point x="1377.0" y="-16.0"/>
      <point x="1548.0" y="26.0"/>
      <point x="1620.0" y="86.0" type="curve"/>
      <point x="1578.0" y="219.0" type="line"/>
      <point x="1522.0" y="185.0"/>
      <point x="1371.0" y="159.0"/>
      <point x="1296.0" y="159.0" type="curve" smooth="yes"/>
      <point x="1115.0" y="159.0"/>
      <point x="976.0" y="234.0"/>
      <point x="965.0" y="492.0" type="curve"/>
      <point x="954.0" y="850.0"/>
      <point x="1073.0" y="965.0"/>
      <point x="1229.0" y="965.0" type="curve" smooth="yes"/>
      <point x="1413.0" y="965.0"/>
      <point x="1450.0" y="813.0"/>
      <point x="1440.0" y="652.0" type="curve"/>
      <point x="890.0" y="652.0" type="line"/>
      <point x="872.0" y="505.0" type="line"/>
      <point x="1644.0" y="505.0" type="line"/>
      <point x="1656.0" y="555.0"/>
      <point x="1656.0" y="623.0"/>
      <point x="1656.0" y="705.0" type="curve"/>
      <point x="1647.0" y="993.0"/>
      <point x="1464.0" y="1132.0"/>
      <point x="1240.0" y="1128.0" type="curve" smooth="yes"/>
      <point x="912.0" y="1124.0"/>
      <point x="736.0" y="882.0"/>
      <point x="736.0" y="558.0" type="curve" smooth="yes"/>
      <point x="736.0" y="184.0"/>
      <point x="916.0" y="-16.0"/>
    </contour>
    <contour>
      <point x="93.0" y="302.0" type="curve" smooth="yes"/>
      <point x="93.0" y="101.0"/>
      <point x="246.0" y="-16.0"/>
      <point x="443.0" y="-16.0" type="curve" smooth="yes"/>
      <point x="609.0" y="-16.0"/>
      <point x="761.0" y="43.0"/>
      <point x="869.0" y="188.0" type="curve"/>
      <point x="838.0" y="252.0" type="line"/>
      <point x="792.0" y="290.0" type="line"/>
      <point x="748.0" y="212.0"/>
      <point x="614.0" y="152.0"/>
      <point x="506.0" y="152.0" type="curve" smooth="yes"/>
      <point x="385.0" y="152.0"/>
      <point x="326.0" y="210.0"/>
      <point x="326.0" y="320.0" type="curve" smooth="yes"/>
      <point x="326.0" y="408.0"/>
      <point x="376.0" y="450.0"/>
      <point x="444.0" y="481.0" type="curve" smooth="yes"/>
      <point x="516.0" y="516.0"/>
      <point x="630.0" y="533.0"/>
      <point x="737.0" y="533.0" type="curve"/>
      <point x="781.0" y="614.0" type="line"/>
      <point x="734.0" y="675.0" type="line"/>
      <point x="592.0" y="675.0"/>
      <point x="434.0" y="657.0"/>
      <point x="308.0" y="604.0" type="curve" smooth="yes"/>
      <point x="182.0" y="548.0"/>
      <point x="93.0" y="446.0"/>
    </contour>
    <contour>
      <point x="204.0" y="873.0" type="line"/>
      <point x="260.0" y="908.0"/>
      <point x="418.0" y="956.0"/>
      <point x="519.0" y="956.0" type="curve" smooth="yes"/>
      <point x="666.0" y="956.0"/>
      <point x="734.0" y="930.0"/>
      <point x="734.0" y="778.0" type="curve" smooth="yes"/>
      <point x="734.0" y="580.0" type="line"/>
      <point x="940.0" y="580.0" type="line"/>
      <point x="940.0" y="767.0" type="line" smooth="yes"/>
      <point x="940.0" y="1065.0"/>
      <point x="808.0" y="1131.0"/>
      <point x="576.0" y="1131.0" type="curve" smooth="yes"/>
      <point x="394.0" y="1131.0"/>
      <point x="191.0" y="1050.0"/>
      <point x="148.0" y="1026.0" type="curve"/>
    </contour>
  </outline>
</glyph>
<glyph name="eth" format="2">
  <advance width="1180.0"/>
  <unicode hex="00F0"/>
  <outline>
    <contour>
      <point x="600.0" y="-26.0" type="curve" smooth="yes"/>
      <point x="900.0" y="-22.0"/>
      <point x="1105.0" y="184.0"/>
      <point x="1105.0" y="601.0" type="curve" smooth="yes"/>
      <point x="1105.0" y="993.0"/>
      <point x="943.0" y="1330.0"/>
      <point x="659.0" y="1535.0" type="curve" smooth="yes"/>
      <point x="643.0" y="1547.0"/>
      <point x="618.0" y="1564.0"/>
      <point x="600.0" y="1576.0" type="curve" smooth="yes"/>
      <point x="502.0" y="1641.0"/>
      <point x="394.0" y="1693.0"/>
      <point x="268.0" y="1733.0" type="curve"/>
      <point x="216.0" y="1602.0" type="line"/>
      <point x="307.0" y="1571.0"/>
      <point x="394.0" y="1523.0"/>
      <point x="474.0" y="1466.0" type="curve" smooth="yes"/>
      <point x="489.0" y="1456.0"/>
      <point x="504.0" y="1443.0"/>
      <point x="520.0" y="1432.0" type="curve" smooth="yes"/>
      <point x="680.0" y="1310.0"/>
      <point x="804.0" y="1131.0"/>
      <point x="834.0" y="919.0" type="curve"/>
      <point x="915.0" y="875.0" type="line"/>
      <point x="885.0" y="1002.0"/>
      <point x="776.0" y="1125.0"/>
      <point x="595.0" y="1125.0" type="curve" smooth="yes"/>
      <point x="292.0" y="1127.0"/>
      <point x="92.0" y="904.0"/>
      <point x="92.0" y="540.0" type="curve" smooth="yes"/>
      <point x="92.0" y="194.0"/>
      <point x="291.0" y="-30.0"/>
    </contour>
    <contour>
      <point x="609.0" y="136.0" type="curve" smooth="yes"/>
      <point x="421.0" y="136.0"/>
      <point x="324.0" y="304.0"/>
      <point x="324.0" y="546.0" type="curve" smooth="yes"/>
      <point x="324.0" y="789.0"/>
      <point x="417.0" y="956.0"/>
      <point x="608.0" y="956.0" type="curve" smooth="yes"/>
      <point x="772.0" y="956.0"/>
      <point x="852.0" y="883.0"/>
      <point x="869.0" y="824.0" type="curve"/>
      <point x="877.0" y="728.0"/>
      <point x="874.0" y="640.0"/>
      <point x="874.0" y="545.0" type="curve" smooth="yes"/>
      <point x="874.0" y="293.0"/>
      <point x="769.0" y="136.0"/>
    </contour>
    <contour>
      <point x="415.0" y="1268.0" type="line"/>
      <point x="574.0" y="1452.0" type="line"/>
      <point x="598.0" y="1486.0" type="line"/>
      <point x="655.0" y="1535.0"/>
      <point x="780.0" y="1685.0"/>
      <point x="780.0" y="1685.0" type="curve"/>
      <point x="660.0" y="1775.0" type="line"/>
      <point x="660.0" y="1775.0"/>
      <point x="534.0" y="1615.0"/>
      <point x="487.0" y="1572.0" type="curve"/>
      <point x="461.0" y="1542.0" type="line"/>
      <point x="296.0" y="1358.0" type="line"/>
    </contour>
  </outline>
</glyph>
<glyph name="divide" format="2">
  <advance width="1362.0"/>
  <unicode hex="00F7"/>
  <outline>
    <contour>
      <point x="680.0" y="1003.0" type="curve" smooth="yes"/>
      <point x="767.0" y="1003.0"/>
      <point x="846.0" y="1074.0"/>
      <point x="846.0" y="1169.0" type="curve" smooth="yes"/>
      <point x="846.0" y="1250.0"/>
      <point x="799.0" y="1314.0"/>
      <point x="701.0" y="1314.0" type="curve" smooth="yes"/>
      <point x="616.0" y="1314.0"/>
      <point x="534.0" y="1239.0"/>
      <point x="534.0" y="1148.0" type="curve" smooth="yes"/>
      <point x="534.0" y="1062.0"/>
      <point x="600.0" y="1003.0"/>
    </contour>
    <contour>
      <point x="677.0" y="205.0" type="curve" smooth="yes"/>
      <point x="766.0" y="205.0"/>
      <point x="846.0" y="274.0"/>
      <point x="846.0" y="369.0" type="curve" smooth="yes"/>
      <point x="846.0" y="450.0"/>
      <point x="796.0" y="513.0"/>
      <point x="700.0" y="513.0" type="curve" smooth="yes"/>
      <point x="616.0" y="513.0"/>
      <point x="533.0" y="439.0"/>
      <point x="533.0" y="348.0" type="curve" smooth="yes"/>
      <point x="533.0" y="261.0"/>
      <point x="598.0" y="205.0"/>
    </contour>
    <contour>
      <point x="219.0" y="666.0" type="line"/>
      <point x="1142.0" y="666.0" type="line"/>
      <point x="1142.0" y="843.0" type="line"/>
      <point x="219.0" y="843.0" type="line"/>
    </contour>
  </outline>
</glyph>
<glyph name="thorn" format="2">
  <advance width="1242.0"/>
  <unicode hex="00FE"/>
  <anchor x="621.0" y="0.0" name="bottom"/>
  <anchor x="621.0" y="1114.0" name="top"/>
  <anchor x="662.0" y="-166.0" name="btm"/>
  <outline>
    <contour>
      <point x="171.0" y="62.0" type="line"/>
      <point x="171.0" y="-496.0" type="line"/>
      <point x="403.0" y="-496.0" type="line"/>
      <point x="403.0" y="-166.0" type="line"/>
      <point x="391.0" y="18.0" type="line"/>
    </contour>
    <component base="b" xOffset="9.0"/>
  </outline>
</glyph>
<glyph name="kgreenlandic" format="2">
  <advance width="1154.0"/>
  <unicode hex="0138"/>
  <anchor x="578.0" y="0.0" name="bottom"/>
  <anchor x="578.0" y="1114.0" name="top"/>
  <outline>
    <contour>
      <point x="1119.0" y="1114.0" type="line"/>
      <point x="857.0" y="1114.0" type="line"/>
      <point x="347.0" y="507.0" type="line"/>
      <point x="398.0" y="472.0" type="line"/>
      <point x="407.0" y="665.0" type="line"/>
      <point x="407.0" y="1114.0" type="line"/>
      <point x="175.0" y="1114.0" type="line"/>
      <point x="178.0" y="0.0" type="line"/>
      <point x="408.0" y="0.0" type="line"/>
      <point x="408.0" y="181.0" type="line"/>
      <point x="403.0" y="350.0" type="line"/>
      <point x="384.0" y="296.0" type="line"/>
    </contour>
    <contour>
      <point x="526.0" y="513.0" type="line"/>
      <point x="893.0" y="0.0" type="line"/>
      <point x="1156.0" y="0.0" type="line"/>
      <point x="684.0" y="662.0" type="line"/>
    </contour>
  </outline>
</glyph>
<glyph name="OE" format="2">
  <advance width="2026.0"/>
  <unicode hex="0152"/>
  <anchor x="1014.0" y="0.0" name="bottom"/>
  <anchor x="1034.0" y="-166.0" name="btm"/>
  <anchor x="1034.0" y="1660.0" name="top"/>
  <outline>
    <contour>
      <point x="99.0" y="750.0" type="curve" smooth="yes"/>
      <point x="89.0" y="306.0"/>
      <point x="346.0" y="-23.0"/>
      <point x="759.0" y="-16.0" type="curve" smooth="yes"/>
      <point x="907.0" y="-12.0"/>
      <point x="1004.0" y="30.0"/>
      <point x="1092.0" y="96.0" type="curve"/>
      <point x="1088.0" y="319.0" type="line"/>
      <point x="1015.0" y="209.0"/>
      <point x="907.0" y="160.0"/>
      <point x="770.0" y="160.0" type="curve" smooth="yes"/>
      <point x="484.0" y="160.0"/>
      <point x="334.0" y="426.0"/>
      <point x="334.0" y="740.0" type="curve" smooth="yes"/>
      <point x="334.0" y="1156.0"/>
      <point x="552.0" y="1324.0"/>
      <point x="785.0" y="1324.0" type="curve" smooth="yes"/>
      <point x="930.0" y="1324.0"/>
      <point x="1026.0" y="1273.0"/>
      <point x="1092.0" y="1185.0" type="curve"/>
      <point x="1080.0" y="1426.0" type="line"/>
      <point x="997.0" y="1487.0"/>
      <point x="882.0" y="1504.0"/>
      <point x="788.0" y="1502.0" type="curve" smooth="yes"/>
      <point x="391.0" y="1490.0"/>
      <point x="109.0" y="1242.0"/>
    </contour>
    <contour>
      <point x="1018.0" y="0.0" type="line"/>
      <point x="1952.0" y="0.0" type="line"/>
      <point x="1952.0" y="184.0" type="line"/>
      <point x="1253.0" y="184.0" type="line"/>
      <point x="1253.0" y="676.0" type="line"/>
      <point x="1716.0" y="676.0" type="line"/>
      <point x="1716.0" y="856.0" type="line"/>
      <point x="1253.0" y="856.0" type="line"/>
      <point x="1253.0" y="1306.0" type="line"/>
      <point x="1883.0" y="1306.0" type="line"/>
      <point x="1883.0" y="1486.0" type="line"/>
      <point x="1018.0" y="1486.0" type="line"/>
    </contour>
  </outline>
</glyph>
<glyph name="tbar" format="2">
  <advance width="420.51111"/>
  <unicode hex="0167"/>
  <anchor x="209.0" y="0.0" name="bottom"/>
  <anchor x="240.0" y="-83.0" name="btm"/>
  <anchor x="209.0" y="279.0" name="center"/>
  <anchor x="187.0" y="913.0" name="top"/>
  <anchor x="399.0" y="557.0" name="topright"/>
  <outline>
    <contour>
      <point x="40.0" y="284.6" type="line"/>
      <point x="381.222" y="284.6" type="line"/>
      <point x="381.222" y="369.044" type="line"/>
      <point x="40.0" y="369.044" type="line"/>
    </contour>
    <component base="t"/>
  </outline>
</glyph>
<glyph name="Schwa" format="2">
  <advance width="1480.0"/>
  <unicode hex="018F"/>
  <anchor x="744.0" y="0.0" name="bottom"/>
  <anchor x="718.0" y="-166.0" name="btm"/>
  <anchor x="710.0" y="1662.0" name="top"/>
  <outline>
    <contour>
      <point x="682.0" y="-16.0" type="curve" smooth="yes"/>
      <point x="1148.0" y="-16.0"/>
      <point x="1386.0" y="280.0"/>
      <point x="1386.0" y="744.0" type="curve" smooth="yes"/>
      <point x="1386.0" y="1250.0"/>
      <point x="1084.0" y="1506.0"/>
      <point x="720.0" y="1504.0" type="curve" smooth="yes"/>
      <point x="476.0" y="1502.0"/>
      <point x="282.0" y="1432.0"/>
      <point x="168.0" y="1322.0" type="curve"/>
      <point x="222.0" y="1136.0" type="line"/>
      <point x="334.0" y="1250.0"/>
      <point x="498.0" y="1318.0"/>
      <point x="716.0" y="1318.0" type="curve" smooth="yes"/>
      <point x="970.0" y="1318.0"/>
      <point x="1154.0" y="1114.0"/>
      <point x="1154.0" y="762.0" type="curve" smooth="yes"/>
      <point x="1154.0" y="426.0"/>
      <point x="1012.0" y="164.0"/>
      <point x="708.0" y="164.0" type="curve" smooth="yes"/>
      <point x="400.0" y="164.0"/>
      <point x="306.0" y="406.0"/>
      <point x="318.0" y="626.0" type="curve"/>
      <point x="1224.0" y="626.0" type="line"/>
      <point x="1250.0" y="812.0" type="line"/>
      <point x="108.0" y="812.0" type="line"/>
      <point x="100.0" y="750.0"/>
      <point x="94.0" y="710.0"/>
      <point x="94.0" y="602.0" type="curve" smooth="yes"/>
      <point x="94.0" y="174.0"/>
      <point x="380.0" y="-16.0"/>
    </contour>
  </outline>
</glyph>
<glyph name="jdotless" format="2">
  <advance width="572.0"/>
  <unicode hex="0237"/>
  <anchor x="286.0" y="-546.0" name="bottom"/>
  <anchor x="304.0" y="1660.0" name="top"/>
  <outline>
    <contour>
      <point x="-82.0" y="-480.0" type="line"/>
      <point x="-65.0" y="-490.0"/>
      <point x="29.0" y="-496.0"/>
      <point x="60.0" y="-496.0" type="curve" smooth="yes"/>
      <point x="287.0" y="-496.0"/>
      <point x="416.0" y="-346.0"/>
      <point x="416.0" y="44.0" type="curve" smooth="yes"/>
      <point x="416.0" y="1112.0" type="line"/>
      <point x="185.0" y="1112.0" type="line"/>
      <point x="185.0" y="-38.0" type="line" smooth="yes"/>
      <point x="185.0" y="-238.0"/>
      <point x="150.0" y="-335.0"/>
      <point x="33.0" y="-335.0" type="curve" smooth="yes"/>
      <point x="0.0" y="-335.0"/>
      <point x="-61.0" y="-325.0"/>
      <point x="-82.0" y="-315.0" type="curve"/>
    </contour>
  </outline>
</glyph>
<glyph name="ezh" format="2">
  <advance width="946.0"/>
  <unicode hex="0292"/>
  <anchor x="476.0" y="0.0" name="bottom"/>
  <anchor x="454.0" y="1662.0" name="top"/>
  <outline>
    <contour>
      <point x="300.0" y="-294.0" type="curve" smooth="yes"/>
      <point x="652.0" y="-294.0"/>
      <point x="858.0" y="-98.0"/>
      <point x="858.0" y="164.0" type="curve" smooth="yes"/>
      <point x="858.0" y="364.0"/>
      <point x="676.0" y="488.0"/>
      <point x="466.0" y="512.0" type="curve"/>
      <point x="854.0" y="1000.0" type="line"/>
      <point x="780.0" y="1114.0" type="line"/>
      <point x="96.0" y="1114.0" type="line"/>
      <point x="96.0" y="940.0" type="line"/>
      <point x="578.0" y="940.0" type="line"/>
      <point x="478.0" y="836.0" type="line"/>
      <point x="198.0" y="480.0" type="line"/>
      <point x="324.0" y="368.0" type="line"/>
      <point x="490.0" y="368.0"/>
      <point x="626.0" y="320.0"/>
      <point x="626.0" y="142.0" type="curve" smooth="yes"/>
      <point x="626.0" y="-16.0"/>
      <point x="486.0" y="-134.0"/>
      <point x="264.0" y="-128.0" type="curve" smooth="yes"/>
      <point x="198.0" y="-126.0"/>
      <point x="154.0" y="-120.0"/>
      <point x="96.0" y="-110.0" type="curve"/>
      <point x="98.0" y="-286.0" type="line"/>
      <point x="164.0" y="-288.0"/>
      <point x="230.0" y="-294.0"/>
    </contour>
  </outline>
</glyph>
<glyph name="commaturnedmod" format="2">
  <unicode hex="02BB"/>
  <outline>
    <contour>
      <point x="12.0" y="1260.0" type="curve" smooth="yes"/>
      <point x="22.0" y="1260.0" type="line" smooth="yes"/>
      <point x="52.0" y="1260.0"/>
      <point x="130.0" y="1274.0"/>
      <point x="130.0" y="1356.0" type="curve" smooth="yes"/>
      <point x="130.0" y="1402.0"/>
      <point x="108.0" y="1422.0"/>
      <point x="84.0" y="1438.0" type="curve" smooth="yes"/>
      <point x="60.0" y="1454.0"/>
      <point x="32.0" y="1474.0"/>
      <point x="32.0" y="1518.0" type="curve" smooth="yes"/>
      <point x="32.0" y="1586.0"/>
      <point x="66.0" y="1650.0"/>
      <point x="116.0" y="1672.0" type="curve"/>
      <point x="116.0" y="1686.0" type="line"/>
      <point x="50.0" y="1728.0" type="line"/>
      <point x="46.0" y="1728.0" type="line"/>
      <point x="20.0" y="1720.0"/>
      <point x="-136.0" y="1610.0"/>
      <point x="-136.0" y="1436.0" type="curve" smooth="yes"/>
      <point x="-136.0" y="1322.0"/>
      <point x="-78.0" y="1260.0"/>
    </contour>
  </outline>
</glyph>
<glyph name="circumflex" format="2">
  <advance width="823.0"/>
  <unicode hex="02C6"/>
  <anchor x="415.0" y="1660.0" name="_top"/>
  <outline>
    <contour>
      <point x="173.0" y="1252.0" type="line"/>
      <point x="415.0" y="1474.0" type="line"/>
      <point x="642.0" y="1254.0" type="line"/>
      <point x="778.0" y="1314.0" type="line"/>
      <point x="514.0" y="1645.0" type="line"/>
      <point x="317.0" y="1645.0" type="line"/>
      <point x="45.0" y="1314.0" type="line"/>
    </contour>
  </outline>
</glyph>
<glyph name="firsttonechinese" format="2">
  <advance width="641.0"/>
  <unicode hex="02C9"/>
  <anchor x="318.0" y="1660.0" name="_top"/>
  <outline>
    <contour>
      <point x="49.0" y="1733.0" type="line"/>
      <point x="592.0" y="1733.0" type="line"/>
      <point x="592.0" y="1898.0" type="line"/>
      <point x="49.0" y="1898.0" type="line"/>
    </contour>
  </outline>
</glyph>
<glyph name="verticallinelowmod" format="2">
  <unicode hex="02CC"/>
  <outline>
    <contour>
      <point x="104.0" y="190.0" type="line"/>
      <point x="-104.0" y="190.0" type="line"/>
      <point x="-61.0" y="-567.0" type="line"/>
      <point x="59.0" y="-567.0" type="line"/>
    </contour>
  </outline>
</glyph>
<glyph name="breve" format="2">
  <unicode hex="02D8"/>
  <anchor x="385.0" y="1660.0" name="_top"/>
  <outline>
    <contour>
      <point x="385.0" y="1276.0" type="curve" smooth="yes"/>
      <point x="598.0" y="1276.0"/>
      <point x="739.0" y="1456.0"/>
      <point x="724.0" y="1646.0" type="curve"/>
      <point x="571.0" y="1646.0" type="line"/>
      <point x="568.0" y="1617.0"/>
      <point x="566.0" y="1452.0"/>
      <point x="387.0" y="1452.0" type="curve" smooth="yes"/>
      <point x="207.0" y="1452.0"/>
      <point x="207.0" y="1617.0"/>
      <point x="204.0" y="1646.0" type="curve"/>
      <point x="47.0" y="1646.0" type="line"/>
      <point x="33.0" y="1456.0"/>
      <point x="161.0" y="1276.0"/>
    </contour>
  </outline>
</glyph>
<glyph name="tilde" format="2">
  <advance width="908.0"/>
  <unicode hex="02DC"/>
  <anchor x="458.0" y="1660.0" name="_top"/>
  <outline>
    <contour>
      <point x="133.0" y="1350.0" type="line"/>
      <point x="172.0" y="1393.0"/>
      <point x="233.0" y="1447.0"/>
      <point x="307.0" y="1447.0" type="curve" smooth="yes"/>
      <point x="411.0" y="1447.0"/>
      <point x="431.0" y="1312.0"/>
      <point x="596.0" y="1312.0" type="curve" smooth="yes"/>
      <point x="721.0" y="1312.0"/>
      <point x="816.0" y="1398.0"/>
      <point x="865.0" y="1506.0" type="curve"/>
      <point x="774.0" y="1584.0" type="line"/>
      <point x="735.0" y="1539.0"/>
      <point x="685.0" y="1486.0"/>
      <point x="600.0" y="1486.0" type="curve" smooth="yes"/>
      <point x="500.0" y="1486.0"/>
      <point x="471.0" y="1619.0"/>
      <point x="313.0" y="1619.0" type="curve" smooth="yes"/>
      <point x="189.0" y="1619.0"/>
      <point x="87.0" y="1524.0"/>
      <point x="44.0" y="1422.0" type="curve"/>
    </contour>
  </outline>
</glyph>
<glyph name="hungarumlaut" format="2">
  <advance width="1012.0"/>
  <unicode hex="02DD"/>
  <anchor x="407.0" y="1635.0" name="_top"/>
  <outline>
    <contour>
      <point x="149.0" y="1288.0" type="line"/>
      <point x="226.0" y="1339.0"/>
      <point x="402.0" y="1544.0"/>
      <point x="462.0" y="1647.0" type="curve"/>
      <point x="299.0" y="1760.0" type="line"/>
      <point x="44.0" y="1362.0" type="line"/>
    </contour>
    <contour>
      <point x="636.0" y="1288.0" type="line"/>
      <point x="718.0" y="1334.0"/>
      <point x="902.0" y="1544.0"/>
      <point x="954.0" y="1640.0" type="curve"/>
      <point x="797.0" y="1753.0" type="line"/>
      <point x="534.0" y="1362.0" type="line"/>
    </contour>
  </outline>
</glyph>
<glyph name="gravecomb" format="2">
  <unicode hex="0300"/>
  <anchor x="0.0" y="830.178" name="_top"/>
  <anchor x="-68.778" y="873.133" name="top"/>
  <outline>
    <contour>
      <point x="45.0" y="673.0" type="line"/>
      <point x="-10.0" y="734.0"/>
      <point x="-76.0" y="808.0"/>
      <point x="-120.0" y="870.0" type="curve"/>
      <point x="-192.444" y="803.756" type="line"/>
      <point x="-159.444" y="750.022"/>
      <point x="-42.667" y="646.444"/>
      <point x="-2.4890000000000008" y="628.267" type="curve"/>
    </contour>
  </outline>
</glyph>
<glyph name="tildecomb" format="2">
  <unicode hex="0303"/>
  <anchor x="0.0" y="1660.0" name="_top"/>
  <anchor x="0.0" y="2062.0" name="top"/>
  <outline>
    <contour>
      <point x="131.0" y="1291.0" type="curve" smooth="yes"/>
      <point x="247.0" y="1291.0"/>
      <point x="334.0" y="1383.0"/>
      <point x="359.0" y="1497.0" type="curve"/>
      <point x="265.0" y="1549.0" type="line"/>
      <point x="243.0" y="1498.0"/>
      <point x="204.0" y="1461.0"/>
      <point x="130.0" y="1461.0" type="curve" smooth="yes"/>
      <point x="42.0" y="1461.0"/>
      <point x="8.0" y="1598.0"/>
      <point x="-130.0" y="1598.0" type="curve" smooth="yes"/>
      <point x="-263.0" y="1598.0"/>
      <point x="-324.0" y="1490.0"/>
      <point x="-360.0" y="1387.0" type="curve"/>
      <point x="-270.0" y="1341.0" type="line"/>
      <point x="-247.0" y="1390.0"/>
      <point x="-216.0" y="1430.0"/>
      <point x="-132.0" y="1430.0" type="curve" smooth="yes"/>
      <point x="-43.0" y="1430.0"/>
      <point x="-12.0" y="1291.0"/>
    </contour>
  </outline>
</glyph>
<glyph name="dieresiscomb" format="2">
  <unicode hex="0308"/>
  <anchor x="0.0" y="1660.0" name="_top"/>
  <anchor x="0.0" y="2046.0" name="top"/>
  <outline>
    <contour>
      <point x="-236.0" y="1302.0" type="curve" smooth="yes"/>
      <point x="-154.0" y="1302.0"/>
      <point x="-81.0" y="1364.0"/>
      <point x="-81.0" y="1453.0" type="curve" smooth="yes"/>
      <point x="-81.0" y="1527.0"/>
      <point x="-122.0" y="1587.0"/>
      <point x="-213.0" y="1587.0" type="curve" smooth="yes"/>
      <point x="-291.0" y="1587.0"/>
      <point x="-370.0" y="1520.0"/>
      <point x="-370.0" y="1435.0" type="curve" smooth="yes"/>
      <point x="-370.0" y="1354.0"/>
      <point x="-311.0" y="1302.0"/>
    </contour>
    <contour>
      <point x="216.0" y="1302.0" type="curve" smooth="yes"/>
      <point x="299.0" y="1302.0"/>
      <point x="371.0" y="1364.0"/>
      <point x="371.0" y="1453.0" type="curve" smooth="yes"/>
      <point x="371.0" y="1527.0"/>
      <point x="331.0" y="1587.0"/>
      <point x="239.0" y="1587.0" type="curve" smooth="yes"/>
      <point x="160.0" y="1587.0"/>
      <point x="82.0" y="1520.0"/>
      <point x="82.0" y="1435.0" type="curve" smooth="yes"/>
      <point x="82.0" y="1354.0"/>
      <point x="142.0" y="1302.0"/>
    </contour>
  </outline>
</glyph>
<glyph name="hookabovecomb" format="2">
  <unicode hex="0309"/>
  <anchor x="0.0" y="1660.0" name="_top"/>
  <anchor x="0.0" y="1966.0" name="top"/>
  <outline>
    <contour>
      <point x="-58.0" y="1278.0" type="curve"/>
      <point x="60.0" y="1278.0" type="line"/>
      <point x="44.0" y="1330.0"/>
      <point x="66.0" y="1382.0"/>
      <point x="86.0" y="1400.0" type="curve" smooth="yes"/>
      <point x="140.0" y="1448.0"/>
      <point x="206.0" y="1482.0"/>
      <point x="206.0" y="1588.0" type="curve" smooth="yes"/>
      <point x="206.0" y="1704.0"/>
      <point x="110.0" y="1776.0"/>
      <point x="-30.0" y="1776.0" type="curve" smooth="yes"/>
      <point x="-84.0" y="1776.0"/>
      <point x="-162.0" y="1764.0"/>
      <point x="-206.0" y="1736.0" type="curve"/>
      <point x="-202.0" y="1606.0" type="line"/>
      <point x="-178.0" y="1620.0"/>
      <point x="-122.0" y="1638.0"/>
      <point x="-76.0" y="1638.0" type="curve" smooth="yes"/>
      <point x="-6.0" y="1638.0"/>
      <point x="34.0" y="1612.0"/>
      <point x="34.0" y="1558.0" type="curve" smooth="yes"/>
      <point x="34.0" y="1474.0"/>
      <point x="-82.0" y="1470.0"/>
      <point x="-82.0" y="1368.0" type="curve" smooth="yes"/>
      <point x="-82.0" y="1332.0"/>
      <point x="-70.0" y="1306.0"/>
    </contour>
  </outline>
</glyph>
<glyph name="ringcomb" format="2">
  <unicode hex="030A"/>
  <anchor x="0.0" y="1660.0" name="_top"/>
  <anchor x="186.0" y="2074.0" name="top"/>
  <outline>
    <contour>
      <point x="-4.0" y="1294.0" type="curve" smooth="yes"/>
      <point x="165.0" y="1294.0"/>
      <point x="316.0" y="1380.0"/>
      <point x="318.0" y="1568.0" type="curve" smooth="yes"/>
      <point x="320.0" y="1738.0"/>
      <point x="192.0" y="1832.0"/>
      <point x="-1.0" y="1832.0" type="curve" smooth="yes"/>
      <point x="-155.0" y="1832.0"/>
      <point x="-316.0" y="1758.0"/>
      <point x="-318.0" y="1570.0" type="curve" smooth="yes"/>
      <point x="-320.0" y="1402.0"/>
      <point x="-196.0" y="1294.0"/>
    </contour>
    <contour>
      <point x="-4.0" y="1422.0" type="curve" smooth="yes"/>
      <point x="-100.0" y="1424.0"/>
      <point x="-161.0" y="1483.0"/>
      <point x="-161.0" y="1570.0" type="curve" smooth="yes"/>
      <point x="-161.0" y="1675.0"/>
      <point x="-82.0" y="1707.0"/>
      <point x="-4.0" y="1707.0" type="curve" smooth="yes"/>
      <point x="89.0" y="1707.0"/>
      <point x="161.0" y="1657.0"/>
      <point x="161.0" y="1567.0" type="curve" smooth="yes"/>
      <point x="161.0" y="1462.0"/>
      <point x="93.0" y="1420.0"/>
    </contour>
  </outline>
</glyph>
<glyph name="caroncomb" format="2">
  <unicode hex="030C"/>
  <anchor x="0.0" y="1660.0" name="_top"/>
  <anchor x="0.0" y="2041.0" name="top"/>
  <outline>
    <contour>
      <point x="-368.0" y="1620.0" type="line"/>
      <point x="-96.0" y="1287.0" type="line"/>
      <point x="100.0" y="1287.0" type="line"/>
      <point x="365.0" y="1618.0" type="line"/>
      <point x="228.0" y="1680.0" type="line"/>
      <point x="2.0" y="1457.0" type="line"/>
      <point x="-241.0" y="1680.0" type="line"/>
    </contour>
  </outline>
</glyph>
<glyph name="horncomb" format="2">
  <unicode hex="031B"/>
  <anchor x="0.0" y="557.0" name="_topright"/>
  <anchor x="86.089" y="557.0" name="topright"/>
  <outline>
    <contour>
      <point x="-12.0" y="490.0" type="line"/>
      <point x="94.0" y="490.0"/>
      <point x="189.0" y="566.0"/>
      <point x="189.0" y="662.0" type="curve" smooth="yes"/>
      <point x="189.0" y="669.0"/>
      <point x="188.0" y="676.0"/>
      <point x="187.0" y="684.0" type="curve"/>
      <point x="109.0" y="684.0" type="line"/>
      <point x="110.0" y="680.0"/>
      <point x="109.0" y="674.0"/>
      <point x="108.0" y="667.0" type="curve" smooth="yes"/>
      <point x="102.0" y="626.0"/>
      <point x="79.0" y="557.0"/>
      <point x="-12.0" y="557.0" type="curve"/>
    </contour>
  </outline>
</glyph>
<glyph name="dieresisbelowcomb" format="2">
  <unicode hex="0324"/>
  <anchor x="1.0" y="0.0" name="_bottom"/>
  <anchor x="0.0" y="-166.0" name="_btm"/>
  <anchor x="0.0" y="1660.0" name="_top"/>
  <anchor x="1.0" y="-404.0" name="bottom"/>
  <outline>
    <contour>
      <point x="-236.0" y="-404.0" type="curve" smooth="yes"/>
      <point x="-154.0" y="-404.0"/>
      <point x="-81.0" y="-342.0"/>
      <point x="-81.0" y="-254.0" type="curve" smooth="yes"/>
      <point x="-81.0" y="-180.0"/>
      <point x="-122.0" y="-120.0"/>
      <point x="-213.0" y="-120.0" type="curve" smooth="yes"/>
      <point x="-291.0" y="-120.0"/>
      <point x="-370.0" y="-187.0"/>
      <point x="-370.0" y="-272.0" type="curve" smooth="yes"/>
      <point x="-370.0" y="-353.0"/>
      <point x="-311.0" y="-404.0"/>
    </contour>
    <contour>
      <point x="216.0" y="-404.0" type="curve" smooth="yes"/>
      <point x="299.0" y="-404.0"/>
      <point x="371.0" y="-342.0"/>
      <point x="371.0" y="-254.0" type="curve" smooth="yes"/>
      <point x="371.0" y="-180.0"/>
      <point x="331.0" y="-120.0"/>
      <point x="239.0" y="-120.0" type="curve" smooth="yes"/>
      <point x="160.0" y="-120.0"/>
      <point x="82.0" y="-187.0"/>
      <point x="82.0" y="-272.0" type="curve" smooth="yes"/>
      <point x="82.0" y="-353.0"/>
      <point x="142.0" y="-404.0"/>
    </contour>
  </outline>
</glyph>
<glyph name="commaaccentcomb" format="2">
  <unicode hex="0326"/>
  <anchor x="170.0" y="0.0" name="_bottom"/>
  <anchor x="156.0" y="-166.0" name="_btm"/>
  <anchor x="170.0" y="-546.0" name="bottom"/>
  <outline>
    <contour>
      <point x="176.0" y="-538.0" type="line"/>
      <point x="232.0" y="-514.0"/>
      <point x="298.0" y="-410.0"/>
      <point x="298.0" y="-306.0" type="curve" smooth="yes"/>
      <point x="298.0" y="-196.0"/>
      <point x="248.0" y="-120.0"/>
      <point x="208.0" y="-100.0" type="curve"/>
      <point x="42.0" y="-182.0" type="line"/>
      <point x="42.0" y="-230.0" type="line"/>
      <point x="80.0" y="-240.0"/>
      <point x="106.0" y="-300.0"/>
      <point x="106.0" y="-362.0" type="curve" smooth="yes"/>
      <point x="106.0" y="-424.0"/>
      <point x="89.0" y="-458.0"/>
      <point x="69.0" y="-481.0" type="curve"/>
      <point x="69.0" y="-506.0" type="line"/>
    </contour>
  </outline>
</glyph>
<glyph name="cedillacomb" format="2">
  <unicode hex="0327"/>
  <anchor x="-41.867" y="0.0" name="_bottom"/>
  <anchor x="0.0" y="-83.0" name="_btm"/>
  <anchor x="-41.867" y="-227.0" name="bottom"/>
  <outline>
    <contour>
      <point x="-178.0" y="-213.0" type="line"/>
      <point x="-167.0" y="-221.0"/>
      <point x="-131.0" y="-227.0"/>
      <point x="-103.0" y="-227.0" type="curve" smooth="yes"/>
      <point x="-46.0" y="-227.0"/>
      <point x="15.0" y="-190.0"/>
      <point x="15.0" y="-106.0" type="curve" smooth="yes"/>
      <point x="15.0" y="-53.0"/>
      <point x="7.0" y="-8.0"/>
      <point x="-13.0" y="15.0" type="curve"/>
      <point x="-35.0" y="17.0" type="line"/>
      <point x="-80.0" y="15.0" type="line"/>
      <point x="-71.0" y="-4.0"/>
      <point x="-64.0" y="-32.0"/>
      <point x="-65.0" y="-75.0" type="curve" smooth="yes"/>
      <point x="-66.0" y="-128.0"/>
      <point x="-91.0" y="-148.0"/>
      <point x="-131.0" y="-148.0" type="curve" smooth="yes"/>
      <point x="-146.0" y="-148.0"/>
      <point x="-162.0" y="-147.0"/>
      <point x="-171.0" y="-142.0" type="curve"/>
    </contour>
  </outline>
</glyph>
<glyph name="dram-arm" format="2">
  <advance width="1678.0"/>
  <unicode hex="058F"/>
  <anchor x="684.0" y="-166.0" name="btm"/>
  <anchor x="686.0" y="1660.0" name="top"/>
  <outline>
    <contour>
      <point x="680.0" y="1486.0" type="curve" smooth="yes"/>
      <point x="284.0" y="1486.0"/>
      <point x="106.0" y="1250.0"/>
      <point x="108.0" y="848.0" type="curve" smooth="yes"/>
      <point x="108.0" y="730.0" type="line"/>
      <point x="342.0" y="730.0" type="line"/>
      <point x="340.0" y="802.0" type="line" smooth="yes"/>
      <point x="330.0" y="1202.0"/>
      <point x="466.0" y="1302.0"/>
      <point x="688.0" y="1302.0" type="curve" smooth="yes"/>
      <point x="886.0" y="1302.0"/>
      <point x="1008.0" y="1198.0"/>
      <point x="1008.0" y="802.0" type="curve" smooth="yes"/>
      <point x="1008.0" y="-16.0" type="line"/>
      <point x="1240.0" y="-16.0" type="line"/>
      <point x="1240.0" y="852.0" type="line" smooth="yes"/>
      <point x="1240.0" y="1260.0"/>
      <point x="1058.0" y="1486.0"/>
    </contour>
    <contour>
      <point x="664.0" y="598.0" type="line"/>
      <point x="1548.0" y="598.0" type="line"/>
      <point x="1548.0" y="746.0" type="line"/>
      <point x="664.0" y="746.0" type="line"/>
    </contour>
    <contour>
      <point x="634.0" y="232.0" type="line"/>
      <point x="1512.0" y="232.0" type="line"/>
      <point x="1512.0" y="380.0" type="line"/>
      <point x="634.0" y="380.0" type="line"/>
    </contour>
  </outline>
</glyph>
<glyph name="endash" format="2">
  <advance width="1544.0"/>
  <unicode hex="2013"/>
  <outline>
    <contour>
      <point x="180.0" y="562.0" type="line"/>
      <point x="1364.0" y="562.0" type="line"/>
      <point x="1364.0" y="748.0" type="line"/>
      <point x="180.0" y="748.0" type="line"/>
    </contour>
  </outline>
</glyph>
<glyph name="quotereversed" format="2">
  <advance width="515.0"/>
  <unicode hex="201B"/>
  <outline>
    <contour>
      <point x="292.0" y="1684.0" type="line"/>
      <point x="179.0" y="1644.0"/>
      <point x="95.0" y="1518.0"/>
      <point x="95.0" y="1338.0" type="curve" smooth="yes"/>
      <point x="95.0" y="1132.0"/>
      <point x="223.0" y="982.0"/>
      <point x="297.0" y="934.0" type="curve"/>
      <point x="397.0" y="998.0" type="line"/>
      <point x="397.0" y="1028.0" type="line"/>
      <point x="341.0" y="1078.0"/>
      <point x="306.0" y="1201.0"/>
      <point x="306.0" y="1293.0" type="curve" smooth="yes"/>
      <point x="306.0" y="1396.0"/>
      <point x="363.0" y="1484.0"/>
      <point x="413.0" y="1507.0" type="curve"/>
      <point x="413.0" y="1569.0" type="line"/>
    </contour>
  </outline>
</glyph>
<glyph name="daggerdbl" format="2">
  <advance width="1004.0"/>
  <unicode hex="2021"/>
  <outline>
    <contour>
      <point x="414.0" y="-348.0" type="line"/>
      <point x="587.0" y="-348.0" type="line"/>
      <point x="602.0" y="459.0" type="line"/>
      <point x="885.0" y="455.0" type="line"/>
      <point x="885.0" y="624.0" type="line"/>
      <point x="602.0" y="622.0" type="line"/>
      <point x="602.0" y="1093.0" type="line"/>
      <point x="885.0" y="1089.0" type="line"/>
      <point x="885.0" y="1258.0" type="line"/>
      <point x="602.0" y="1254.0" type="line"/>
      <point x="605.0" y="1620.0" type="line"/>
      <point x="396.0" y="1620.0" type="line"/>
      <point x="400.0" y="1254.0" type="line"/>
      <point x="119.0" y="1258.0" type="line"/>
      <point x="119.0" y="1089.0" type="line"/>
      <point x="400.0" y="1093.0" type="line"/>
      <point x="400.0" y="622.0" type="line"/>
      <point x="119.0" y="624.0" type="line"/>
      <point x="119.0" y="455.0" type="line"/>
      <point x="400.0" y="459.0" type="line"/>
    </contour>
  </outline>
</glyph>
<glyph name="bullet" format="2">
  <advance width="843.0"/>
  <unicode hex="2022"/>
  <outline>
    <contour>
      <point x="412.0" y="482.0" type="curve" smooth="yes"/>
      <point x="535.0" y="482.0"/>
      <point x="639.0" y="587.0"/>
      <point x="644.0" y="712.0" type="curve" smooth="yes"/>
      <point x="651.0" y="840.0"/>
      <point x="554.0" y="937.0"/>
      <point x="433.0" y="937.0" type="curve" smooth="yes"/>
      <point x="310.0" y="937.0"/>
      <point x="204.0" y="835.0"/>
      <point x="198.0" y="708.0" type="curve" smooth="yes"/>
      <point x="193.0" y="584.0"/>
      <point x="290.0" y="482.0"/>
    </contour>
  </outline>
</glyph>
<glyph name="minute" format="2">
  <advance width="668.0"/>
  <unicode hex="2032"/>
  <outline>
    <contour>
      <point x="181.0" y="1162.0" type="line"/>
      <point x="351.0" y="1162.0" type="line"/>
      <point x="512.0" y="1756.0" type="line"/>
      <point x="276.0" y="1756.0" type="line"/>
    </contour>
  </outline>
</glyph>
<glyph name="fraction" format="2">
  <advance width="294.0"/>
  <unicode hex="2044"/>
  <outline>
    <contour>
      <point x="349.0" y="958.0" type="line"/>
      <point x="-140.0" y="-51.0" type="line"/>
      <point x="-55.0" y="-51.0" type="line"/>
      <point x="434.0" y="958.0" type="line"/>
    </contour>
  </outline>
</glyph>
<glyph name="colonsign" format="2">
  <advance width="692.0"/>
  <unicode hex="20A1"/>
  <outline>
    <contour>
      <point x="252.0" y="-173.0" type="line"/>
      <point x="309.0" y="-173.0" type="line"/>
      <point x="320.0" y="0.0" type="line"/>
      <point x="342.0" y="-3.0"/>
      <point x="363.0" y="-6.0"/>
      <point x="386.0" y="-7.0" type="curve"/>
      <point x="376.0" y="-173.0" type="line"/>
      <point x="433.0" y="-173.0" type="line"/>
      <point x="444.0" y="-6.0" type="line"/>
      <point x="512.0" y="-1.0"/>
      <point x="557.0" y="17.0"/>
      <point x="593.0" y="31.0" type="curve"/>
      <point x="593.0" y="136.0" type="line"/>
      <point x="571.0" y="117.0"/>
      <point x="512.0" y="98.0"/>
      <point x="450.0" y="92.0" type="curve"/>
      <point x="487.0" y="644.0" type="line"/>
      <point x="543.0" y="637.0"/>
      <point x="571.0" y="619.0"/>
      <point x="581.0" y="613.0" type="curve"/>
      <point x="599.0" y="723.0" type="line"/>
      <point x="579.0" y="728.0"/>
      <point x="548.0" y="739.0"/>
      <point x="494.0" y="746.0" type="curve"/>
      <point x="503.0" y="886.0" type="line"/>
      <point x="446.0" y="886.0" type="line"/>
      <point x="437.0" y="750.0" type="line"/>
      <point x="418.0" y="752.0"/>
      <point x="386.0" y="752.0"/>
      <point x="370.0" y="750.0" type="curve"/>
      <point x="379.0" y="886.0" type="line"/>
      <point x="322.0" y="886.0" type="line"/>
      <point x="312.0" y="739.0" type="line"/>
      <point x="163.0" y="703.0"/>
      <point x="48.0" y="574.0"/>
      <point x="48.0" y="368.0" type="curve" smooth="yes"/>
      <point x="48.0" y="195.0"/>
      <point x="128.0" y="67.0"/>
      <point x="264.0" y="17.0" type="curve"/>
    </contour>
    <contour>
      <point x="326.0" y="105.0" type="curve"/>
      <point x="362.0" y="645.0" type="line"/>
      <point x="381.0" y="649.0"/>
      <point x="413.0" y="652.0"/>
      <point x="430.0" y="649.0" type="curve"/>
      <point x="392.0" y="92.0" type="line"/>
      <point x="369.0" y="93.0"/>
      <point x="347.0" y="98.0"/>
    </contour>
    <contour>
      <point x="271.0" y="136.0" type="line"/>
      <point x="208.0" y="185.0"/>
      <point x="175.0" y="271.0"/>
      <point x="175.0" y="376.0" type="curve" smooth="yes"/>
      <point x="175.0" y="497.0"/>
      <point x="222.0" y="586.0"/>
      <point x="304.0" y="626.0" type="curve"/>
    </contour>
  </outline>
</glyph>
<glyph name="franc" format="2">
  <advance width="650.0"/>
  <unicode hex="20A3"/>
  <outline>
    <contour>
      <point x="54.0" y="117.0" type="line"/>
      <point x="151.0" y="117.0" type="line"/>
      <point x="151.0" y="0.0" type="line"/>
      <point x="276.0" y="0.0" type="line"/>
      <point x="276.0" y="117.0" type="line"/>
      <point x="400.0" y="117.0" type="line"/>
      <point x="400.0" y="199.0" type="line"/>
      <point x="276.0" y="199.0" type="line"/>
      <point x="276.0" y="322.0" type="line"/>
      <point x="509.0" y="322.0" type="line"/>
      <point x="509.0" y="417.0" type="line"/>
      <point x="276.0" y="417.0" type="line"/>
      <point x="276.0" y="648.0" type="line"/>
      <point x="585.0" y="648.0" type="line"/>
      <point x="585.0" y="743.0" type="line"/>
      <point x="151.0" y="743.0" type="line"/>
      <point x="151.0" y="199.0" type="line"/>
      <point x="54.0" y="199.0" type="line"/>
    </contour>
  </outline>
</glyph>
<glyph name="lira" format="2">
  <advance width="1529.0"/>
  <unicode hex="20A4"/>
  <outline>
    <contour>
      <point x="229.0" y="828.0" type="line"/>
      <point x="423.0" y="828.0" type="line"/>
      <point x="423.0" y="704.0" type="line"/>
      <point x="207.0" y="704.0" type="line"/>
      <point x="207.0" y="566.0" type="line"/>
      <point x="423.0" y="566.0" type="line"/>
      <point x="423.0" y="470.0" type="line" smooth="yes"/>
      <point x="423.0" y="394.0"/>
      <point x="419.0" y="310.0"/>
      <point x="395.0" y="262.0" type="curve"/>
      <point x="229.0" y="254.0"/>
      <point x="137.0" y="180.0"/>
      <point x="137.0" y="86.0" type="curve" smooth="yes"/>
      <point x="137.0" y="28.0"/>
      <point x="205.0" y="-2.0"/>
      <point x="255.0" y="-2.0" type="curve" smooth="yes"/>
      <point x="331.0" y="-2.0"/>
      <point x="413.0" y="46.0"/>
      <point x="453.0" y="88.0" type="curve"/>
      <point x="547.0" y="96.0"/>
      <point x="689.0" y="-20.0"/>
      <point x="967.0" y="-20.0" type="curve" smooth="yes"/>
      <point x="1249.0" y="-20.0"/>
      <point x="1395.0" y="94.0"/>
      <point x="1395.0" y="316.0" type="curve" smooth="yes"/>
      <point x="1395.0" y="444.0"/>
      <point x="1311.0" y="538.0"/>
      <point x="1265.0" y="564.0" type="curve"/>
      <point x="1089.0" y="478.0" type="line"/>
      <point x="1119.0" y="466.0"/>
      <point x="1163.0" y="406.0"/>
      <point x="1163.0" y="334.0" type="curve" smooth="yes"/>
      <point x="1163.0" y="234.0"/>
      <point x="1109.0" y="150.0"/>
      <point x="927.0" y="150.0" type="curve" smooth="yes"/>
      <point x="767.0" y="150.0"/>
      <point x="709.0" y="202.0"/>
      <point x="593.0" y="222.0" type="curve"/>
      <point x="651.0" y="282.0"/>
      <point x="665.0" y="396.0"/>
      <point x="667.0" y="566.0" type="curve"/>
      <point x="1007.0" y="566.0" type="line"/>
      <point x="1007.0" y="704.0" type="line"/>
      <point x="667.0" y="704.0" type="line"/>
      <point x="667.0" y="828.0" type="line"/>
      <point x="1027.0" y="828.0" type="line"/>
      <point x="1027.0" y="966.0" type="line"/>
      <point x="667.0" y="966.0" type="line"/>
      <point x="667.0" y="990.0" type="line" smooth="yes"/>
      <point x="667.0" y="1262.0"/>
      <point x="775.0" y="1314.0"/>
      <point x="889.0" y="1314.0" type="curve" smooth="yes"/>
      <point x="1005.0" y="1314.0"/>
      <point x="1077.0" y="1272.0"/>
      <point x="1129.0" y="1226.0" type="curve"/>
      <point x="1239.0" y="1404.0" type="line"/>
      <point x="1181.0" y="1452.0"/>
      <point x="1079.0" y="1502.0"/>
      <point x="907.0" y="1502.0" type="curve" smooth="yes"/>
      <point x="603.0" y="1502.0"/>
      <point x="423.0" y="1308.0"/>
      <point x="423.0" y="1018.0" type="curve" smooth="yes"/>
      <point x="423.0" y="966.0" type="line"/>
      <point x="229.0" y="966.0" type="line"/>
    </contour>
  </outline>
</glyph>
<glyph name="won" format="2">
  <advance width="1161.0"/>
  <unicode hex="20A9"/>
  <anchor x="581.3109999999999" y="0.0" name="bottom"/>
  <anchor x="579.533" y="-83.0" name="btm"/>
  <anchor x="579.533" y="830.0" name="top"/>
  <outline>
    <contour>
      <point x="138.0" y="171.0" type="line"/>
      <point x="317.0" y="171.0" type="line"/>
      <point x="316.0" y="264.0" type="line"/>
      <point x="137.0" y="264.0" type="line"/>
    </contour>
    <contour>
      <point x="260.0" y="557.0" type="line"/>
      <point x="90.0" y="557.0" type="line"/>
      <point x="91.0" y="465.0" type="line"/>
      <point x="261.0" y="465.0" type="line"/>
    </contour>
    <contour>
      <point x="843.0" y="170.0" type="line"/>
      <point x="1022.0" y="170.0" type="line"/>
      <point x="1021.0" y="263.0" type="line"/>
      <point x="842.0" y="263.0" type="line"/>
    </contour>
    <contour>
      <point x="1070.0" y="556.0" type="line"/>
      <point x="908.0" y="556.0" type="line"/>
      <point x="909.0" y="464.0" type="line"/>
      <point x="1071.0" y="464.0" type="line"/>
    </contour>
    <component base="W" xOffset="110.0"/>
  </outline>
</glyph>
<glyph name="dong" format="2">
  <advance width="1450.0"/>
  <unicode hex="20AB"/>
  <outline>
    <contour>
      <point x="556.0" y="284.0" type="curve" smooth="yes"/>
      <point x="732.0" y="284.0"/>
      <point x="818.0" y="352.0"/>
      <point x="860.0" y="392.0" type="curve"/>
      <point x="860.0" y="284.0" type="line"/>
      <point x="1061.0" y="284.0" type="line"/>
      <point x="1061.0" y="1322.0" type="line"/>
      <point x="1270.0" y="1322.0" type="line"/>
      <point x="1270.0" y="1486.0" type="line"/>
      <point x="1061.0" y="1486.0" type="line"/>
      <point x="1061.0" y="1654.0" type="line"/>
      <point x="826.0" y="1654.0" type="line"/>
      <point x="826.0" y="1486.0" type="line"/>
      <point x="498.0" y="1486.0" type="line"/>
      <point x="498.0" y="1322.0" type="line"/>
      <point x="826.0" y="1322.0" type="line"/>
      <point x="830.0" y="1202.0" type="line"/>
      <point x="790.0" y="1210.0"/>
      <point x="726.0" y="1218.0"/>
      <point x="649.0" y="1218.0" type="curve" smooth="yes"/>
      <point x="337.0" y="1218.0"/>
      <point x="153.0" y="1034.0"/>
      <point x="153.0" y="718.0" type="curve" smooth="yes"/>
      <point x="153.0" y="422.0"/>
      <point x="341.0" y="284.0"/>
    </contour>
    <contour>
      <point x="585.0" y="472.0" type="curve" smooth="yes"/>
      <point x="504.0" y="472.0"/>
      <point x="401.0" y="539.0"/>
      <point x="401.0" y="724.0" type="curve" smooth="yes"/>
      <point x="401.0" y="890.0"/>
      <point x="438.0" y="1034.0"/>
      <point x="648.0" y="1034.0" type="curve" smooth="yes"/>
      <point x="796.0" y="1034.0"/>
      <point x="814.0" y="1000.0"/>
      <point x="826.0" y="986.0" type="curve"/>
      <point x="826.0" y="551.0" type="line"/>
      <point x="802.0" y="533.0"/>
      <point x="773.0" y="472.0"/>
    </contour>
    <contour>
      <point x="116.0" y="0.0" type="line"/>
      <point x="1195.0" y="0.0" type="line"/>
      <point x="1195.0" y="172.0" type="line"/>
      <point x="116.0" y="172.0" type="line"/>
    </contour>
  </outline>
</glyph>
<glyph name="euro" format="2">
  <advance width="1470.0"/>
  <unicode hex="20AC"/>
  <outline>
    <contour>
      <point x="908.0" y="-28.0" type="curve" smooth="yes"/>
      <point x="1194.0" y="-28.0"/>
      <point x="1254.0" y="43.0"/>
      <point x="1340.0" y="56.0" type="curve"/>
      <point x="1282.0" y="230.0" type="line"/>
      <point x="1211.0" y="179.0"/>
      <point x="1079.0" y="140.0"/>
      <point x="939.0" y="140.0" type="curve" smooth="yes"/>
      <point x="615.0" y="140.0"/>
      <point x="544.0" y="421.0"/>
      <point x="544.0" y="767.0" type="curve" smooth="yes"/>
      <point x="544.0" y="1135.0"/>
      <point x="705.0" y="1328.0"/>
      <point x="944.0" y="1326.0" type="curve" smooth="yes"/>
      <point x="1120.0" y="1326.0"/>
      <point x="1185.0" y="1302.0"/>
      <point x="1258.0" y="1260.0" type="curve"/>
      <point x="1310.0" y="1442.0" type="line"/>
      <point x="1230.0" y="1460.0"/>
      <point x="1156.0" y="1510.0"/>
      <point x="944.0" y="1502.0" type="curve" smooth="yes"/>
      <point x="546.0" y="1488.0"/>
      <point x="294.0" y="1200.0"/>
      <point x="294.0" y="704.0" type="curve" smooth="yes"/>
      <point x="294.0" y="266.0"/>
      <point x="502.0" y="-28.0"/>
    </contour>
    <contour>
      <point x="139.0" y="857.0" type="line"/>
      <point x="1084.0" y="857.0" type="line"/>
      <point x="1084.0" y="1006.0" type="line"/>
      <point x="139.0" y="1006.0" type="line"/>
    </contour>
    <contour>
      <point x="108.0" y="493.0" type="line"/>
      <point x="1047.0" y="493.0" type="line"/>
      <point x="1047.0" y="640.0" type="line"/>
      <point x="108.0" y="640.0" type="line"/>
    </contour>
  </outline>
</glyph>
<glyph name="kip" format="2">
  <advance width="707.0"/>
  <unicode hex="20AD"/>
  <outline>
    <contour>
      <point x="40.0" y="336.0" type="line"/>
      <point x="567.0" y="336.0" type="line"/>
      <point x="567.0" y="418.0" type="line"/>
      <point x="40.0" y="418.0" type="line"/>
    </contour>
    <contour>
      <point x="107.0" y="0.0" type="line"/>
      <point x="224.0" y="0.0" type="line"/>
      <point x="224.0" y="360.0" type="line"/>
      <point x="203.0" y="257.0" type="line"/>
      <point x="293.0" y="338.0" type="line"/>
      <point x="306.0" y="352.0" type="line"/>
      <point x="652.0" y="743.0" type="line"/>
      <point x="512.0" y="743.0" type="line"/>
      <point x="224.0" y="416.0" type="line"/>
      <point x="224.0" y="743.0" type="line"/>
      <point x="107.0" y="743.0" type="line"/>
    </contour>
    <contour>
      <point x="522.0" y="0.0" type="line"/>
      <point x="665.0" y="0.0" type="line"/>
      <point x="306.0" y="440.0" type="line"/>
      <point x="245.0" y="375.0" type="line"/>
      <point x="224.0" y="360.0" type="line"/>
    </contour>
  </outline>
</glyph>
<glyph name="peso" format="2">
  <advance width="1692.0"/>
  <unicode hex="20B1"/>
  <anchor x="798.0" y="0.0" name="bottom"/>
  <anchor x="848.0" y="-166.0" name="btm"/>
  <anchor x="856.0" y="1660.0" name="top"/>
  <outline>
    <contour>
      <point x="358.0" y="0.0" type="line"/>
      <point x="594.0" y="0.0" type="line"/>
      <point x="594.0" y="322.0" type="line"/>
      <point x="630.0" y="322.0"/>
      <point x="688.0" y="320.0"/>
      <point x="782.0" y="320.0" type="curve" smooth="yes"/>
      <point x="1154.0" y="320.0"/>
      <point x="1354.0" y="590.0"/>
      <point x="1354.0" y="914.0" type="curve" smooth="yes"/>
      <point x="1354.0" y="1258.0"/>
      <point x="1156.0" y="1502.0"/>
      <point x="832.0" y="1502.0" type="curve" smooth="yes"/>
      <point x="698.0" y="1502.0"/>
      <point x="582.0" y="1486.0"/>
      <point x="460.0" y="1486.0" type="curve" smooth="yes"/>
      <point x="358.0" y="1486.0" type="line"/>
    </contour>
    <contour>
      <point x="594.0" y="502.0" type="curve"/>
      <point x="594.0" y="1316.0" type="line"/>
      <point x="646.0" y="1328.0"/>
      <point x="708.0" y="1332.0"/>
      <point x="766.0" y="1334.0" type="curve" smooth="yes"/>
      <point x="996.0" y="1342.0"/>
      <point x="1122.0" y="1142.0"/>
      <point x="1122.0" y="914.0" type="curve" smooth="yes"/>
      <point x="1122.0" y="630.0"/>
      <point x="954.0" y="492.0"/>
      <point x="768.0" y="492.0" type="curve" smooth="yes"/>
      <point x="714.0" y="492.0"/>
      <point x="654.0" y="494.0"/>
    </contour>
    <contour>
      <point x="180.0" y="972.0" type="line"/>
      <point x="1552.0" y="972.0" type="line"/>
      <point x="1552.0" y="1116.0" type="line"/>
      <point x="180.0" y="1116.0" type="line"/>
    </contour>
    <contour>
      <point x="180.0" y="708.0" type="line"/>
      <point x="1552.0" y="708.0" type="line"/>
      <point x="1552.0" y="852.0" type="line"/>
      <point x="180.0" y="852.0" type="line"/>
    </contour>
  </outline>
</glyph>
<glyph name="guarani" format="2">
  <advance width="1490.0"/>
  <unicode hex="20B2"/>
  <outline>
    <contour>
      <point x="96.0" y="736.0" type="curve" smooth="yes"/>
      <point x="96.0" y="340.0"/>
      <point x="308.0" y="46.0"/>
      <point x="670.0" y="-6.0" type="curve"/>
      <point x="668.0" y="-252.0" type="line"/>
      <point x="870.0" y="-252.0" type="line"/>
      <point x="872.0" y="-12.0" type="line"/>
      <point x="1122.0" y="2.0"/>
      <point x="1216.0" y="84.0"/>
      <point x="1304.0" y="88.0" type="curve"/>
      <point x="1304.0" y="762.0" type="line"/>
      <point x="808.0" y="762.0" type="line"/>
      <point x="808.0" y="584.0" type="line"/>
      <point x="1068.0" y="572.0" type="line"/>
      <point x="1068.0" y="224.0" type="line"/>
      <point x="1014.0" y="188.0"/>
      <point x="896.0" y="174.0"/>
      <point x="792.0" y="174.0" type="curve" smooth="yes"/>
      <point x="496.0" y="174.0"/>
      <point x="352.0" y="428.0"/>
      <point x="352.0" y="762.0" type="curve" smooth="yes"/>
      <point x="352.0" y="1104.0"/>
      <point x="534.0" y="1306.0"/>
      <point x="794.0" y="1306.0" type="curve" smooth="yes"/>
      <point x="1006.0" y="1306.0"/>
      <point x="1120.0" y="1272.0"/>
      <point x="1210.0" y="1224.0" type="curve"/>
      <point x="1220.0" y="1444.0" type="line"/>
      <point x="1112.0" y="1464.0"/>
      <point x="1044.0" y="1492.0"/>
      <point x="886.0" y="1500.0" type="curve"/>
      <point x="886.0" y="1720.0" type="line"/>
      <point x="684.0" y="1720.0" type="line"/>
      <point x="684.0" y="1494.0" type="line"/>
      <point x="348.0" y="1448.0"/>
      <point x="96.0" y="1202.0"/>
    </contour>
  </outline>
</glyph>
<glyph name="hryvnia" format="2">
  <advance width="1358.0"/>
  <unicode hex="20B4"/>
  <anchor x="662.0" y="-166.0" name="btm"/>
  <anchor x="704.0" y="1660.0" name="top"/>
  <outline>
    <contour>
      <point x="108.0" y="626.0" type="line"/>
      <point x="108.0" y="460.0" type="line"/>
      <point x="240.0" y="460.0" type="line"/>
      <point x="236.0" y="438.0"/>
      <point x="234.0" y="416.0"/>
      <point x="234.0" y="390.0" type="curve" smooth="yes"/>
      <point x="234.0" y="116.0"/>
      <point x="426.0" y="-16.0"/>
      <point x="696.0" y="-16.0" type="curve" smooth="yes"/>
      <point x="884.0" y="-16.0"/>
      <point x="1052.0" y="36.0"/>
      <point x="1104.0" y="70.0" type="curve"/>
      <point x="1056.0" y="262.0" type="line"/>
      <point x="980.0" y="216.0"/>
      <point x="842.0" y="170.0"/>
      <point x="710.0" y="170.0" type="curve" smooth="yes"/>
      <point x="554.0" y="170.0"/>
      <point x="466.0" y="228.0"/>
      <point x="466.0" y="366.0" type="curve" smooth="yes"/>
      <point x="466.0" y="402.0"/>
      <point x="472.0" y="432.0"/>
      <point x="486.0" y="460.0" type="curve"/>
      <point x="1228.0" y="460.0" type="line"/>
      <point x="1228.0" y="626.0" type="line"/>
    </contour>
    <contour>
      <point x="1228.0" y="860.0" type="line"/>
      <point x="1228.0" y="1024.0" type="line"/>
      <point x="1090.0" y="1024.0" type="line"/>
      <point x="1100.0" y="1052.0"/>
      <point x="1102.0" y="1084.0"/>
      <point x="1102.0" y="1116.0" type="curve" smooth="yes"/>
      <point x="1102.0" y="1404.0"/>
      <point x="852.0" y="1502.0"/>
      <point x="604.0" y="1502.0" type="curve" smooth="yes"/>
      <point x="422.0" y="1502.0"/>
      <point x="304.0" y="1456.0"/>
      <point x="252.0" y="1422.0" type="curve"/>
      <point x="296.0" y="1238.0" type="line"/>
      <point x="366.0" y="1280.0"/>
      <point x="446.0" y="1320.0"/>
      <point x="604.0" y="1320.0" type="curve" smooth="yes"/>
      <point x="750.0" y="1320.0"/>
      <point x="878.0" y="1266.0"/>
      <point x="878.0" y="1144.0" type="curve" smooth="yes"/>
      <point x="878.0" y="1094.0"/>
      <point x="868.0" y="1056.0"/>
      <point x="846.0" y="1024.0" type="curve"/>
      <point x="110.0" y="1024.0" type="line"/>
      <point x="110.0" y="860.0" type="line"/>
    </contour>
  </outline>
</glyph>
<glyph name="tenge" format="2">
  <advance width="755.0"/>
  <unicode hex="20B8"/>
  <anchor x="374.0" y="-83.0" name="btm"/>
  <anchor x="374.0" y="830.0" name="top"/>
  <outline>
    <contour>
      <point x="319.0" y="0.0" type="line"/>
      <point x="437.0" y="0.0" type="line"/>
      <point x="437.0" y="467.0" type="line"/>
      <point x="665.0" y="467.0" type="line"/>
      <point x="665.0" y="557.0" type="line"/>
      <point x="90.0" y="557.0" type="line"/>
      <point x="90.0" y="467.0" type="line"/>
      <point x="319.0" y="467.0" type="line"/>
    </contour>
    <contour>
      <point x="90.0" y="653.0" type="line"/>
      <point x="665.0" y="653.0" type="line"/>
      <point x="665.0" y="743.0" type="line"/>
      <point x="90.0" y="743.0" type="line"/>
    </contour>
  </outline>
</glyph>
<glyph name="rupeeIndian" format="2">
  <advance width="1450.0"/>
  <unicode hex="20B9"/>
  <outline>
    <contour>
      <point x="1244.0" y="0.0" type="line"/>
      <point x="1076.0" y="186.0"/>
      <point x="1064.0" y="544.0"/>
      <point x="866.0" y="664.0" type="curve"/>
      <point x="972.0" y="718.0"/>
      <point x="1088.0" y="822.0"/>
      <point x="1088.0" y="984.0" type="curve"/>
      <point x="1290.0" y="984.0" type="line"/>
      <point x="1290.0" y="1144.0" type="line"/>
      <point x="1100.0" y="1144.0" type="line"/>
      <point x="1094.0" y="1238.0"/>
      <point x="1052.0" y="1308.0"/>
      <point x="1000.0" y="1334.0" type="curve"/>
      <point x="1320.0" y="1334.0" type="line"/>
      <point x="1320.0" y="1486.0" type="line"/>
      <point x="180.0" y="1486.0" type="line"/>
      <point x="180.0" y="1334.0" type="line"/>
      <point x="592.0" y="1334.0" type="line"/>
      <point x="832.0" y="1334.0"/>
      <point x="872.0" y="1224.0"/>
      <point x="872.0" y="1144.0" type="curve"/>
      <point x="180.0" y="1144.0" type="line"/>
      <point x="180.0" y="984.0" type="line"/>
      <point x="860.0" y="984.0" type="line"/>
      <point x="858.0" y="828.0"/>
      <point x="726.0" y="746.0"/>
      <point x="578.0" y="746.0" type="curve" smooth="yes"/>
      <point x="408.0" y="746.0"/>
      <point x="222.0" y="744.0"/>
      <point x="180.0" y="748.0" type="curve"/>
      <point x="180.0" y="600.0" type="line"/>
      <point x="236.0" y="594.0"/>
      <point x="458.0" y="584.0"/>
      <point x="682.0" y="604.0" type="curve"/>
      <point x="820.0" y="480.0"/>
      <point x="908.0" y="0.0"/>
      <point x="990.0" y="0.0" type="curve" smooth="yes"/>
    </contour>
  </outline>
</glyph>
<glyph name="liraTurkish" format="2">
  <advance width="1438.0"/>
  <unicode hex="20BA"/>
  <outline>
    <contour>
      <point x="350.0" y="0.0" type="line"/>
      <point x="590.0" y="0.0" type="line" smooth="yes"/>
      <point x="1006.0" y="0.0"/>
      <point x="1308.0" y="250.0"/>
      <point x="1308.0" y="648.0" type="curve" smooth="yes"/>
      <point x="1308.0" y="702.0" type="line"/>
      <point x="1082.0" y="702.0" type="line"/>
      <point x="1080.0" y="334.0"/>
      <point x="868.0" y="192.0"/>
      <point x="590.0" y="192.0" type="curve"/>
      <point x="590.0" y="624.0" type="line"/>
      <point x="1018.0" y="808.0" type="line"/>
      <point x="1018.0" y="972.0" type="line"/>
      <point x="590.0" y="788.0" type="line"/>
      <point x="590.0" y="998.0" type="line"/>
      <point x="1040.0" y="1194.0" type="line"/>
      <point x="1040.0" y="1366.0" type="line"/>
      <point x="590.0" y="1170.0" type="line"/>
      <point x="590.0" y="1502.0" type="line"/>
      <point x="350.0" y="1502.0" type="line"/>
      <point x="350.0" y="1066.0" type="line"/>
      <point x="108.0" y="960.0" type="line"/>
      <point x="108.0" y="788.0" type="line"/>
      <point x="350.0" y="894.0" type="line"/>
      <point x="350.0" y="686.0" type="line"/>
      <point x="118.0" y="584.0" type="line"/>
      <point x="118.0" y="420.0" type="line"/>
      <point x="350.0" y="522.0" type="line"/>
    </contour>
  </outline>
</glyph>
<glyph name="manat" format="2">
  <advance width="1630.0"/>
  <unicode hex="20BC"/>
  <outline>
    <contour>
      <point x="699.0" y="276.0" type="line"/>
      <point x="931.0" y="276.0" type="line"/>
      <point x="931.0" y="1570.0" type="line"/>
      <point x="699.0" y="1570.0" type="line"/>
    </contour>
    <contour>
      <point x="164.0" y="0.0" type="line"/>
      <point x="398.0" y="0.0" type="line"/>
      <point x="398.0" y="681.0" type="line" smooth="yes"/>
      <point x="398.0" y="939.0"/>
      <point x="563.0" y="1057.0"/>
      <point x="816.0" y="1057.0" type="curve" smooth="yes"/>
      <point x="1077.0" y="1057.0"/>
      <point x="1232.0" y="939.0"/>
      <point x="1232.0" y="681.0" type="curve" smooth="yes"/>
      <point x="1232.0" y="4.0" type="line"/>
      <point x="1466.0" y="0.0" type="line"/>
      <point x="1466.0" y="656.0" type="line" smooth="yes"/>
      <point x="1466.0" y="1088.0"/>
      <point x="1184.0" y="1266.0"/>
      <point x="786.0" y="1266.0" type="curve" smooth="yes"/>
      <point x="466.0" y="1266.0"/>
      <point x="164.0" y="1100.0"/>
      <point x="164.0" y="666.0" type="curve" smooth="yes"/>
    </contour>
  </outline>
</glyph>
<glyph name="ruble" format="2">
  <advance width="1402.0"/>
  <unicode hex="20BD"/>
  <anchor x="766.0" y="-166.0" name="btm"/>
  <anchor x="774.0" y="1660.0" name="top"/>
  <outline>
    <contour>
      <point x="276.0" y="0.0" type="line"/>
      <point x="512.0" y="0.0" type="line"/>
      <point x="512.0" y="556.0" type="line"/>
      <point x="548.0" y="556.0"/>
      <point x="606.0" y="552.0"/>
      <point x="700.0" y="552.0" type="curve" smooth="yes"/>
      <point x="1072.0" y="552.0"/>
      <point x="1272.0" y="722.0"/>
      <point x="1272.0" y="1038.0" type="curve" smooth="yes"/>
      <point x="1272.0" y="1364.0"/>
      <point x="1074.0" y="1502.0"/>
      <point x="750.0" y="1502.0" type="curve" smooth="yes"/>
      <point x="616.0" y="1502.0"/>
      <point x="500.0" y="1486.0"/>
      <point x="378.0" y="1486.0" type="curve" smooth="yes"/>
      <point x="276.0" y="1486.0" type="line"/>
    </contour>
    <contour>
      <point x="512.0" y="736.0" type="curve"/>
      <point x="512.0" y="1316.0" type="line"/>
      <point x="564.0" y="1328.0"/>
      <point x="626.0" y="1332.0"/>
      <point x="684.0" y="1334.0" type="curve" smooth="yes"/>
      <point x="914.0" y="1342.0"/>
      <point x="1040.0" y="1250.0"/>
      <point x="1040.0" y="1038.0" type="curve" smooth="yes"/>
      <point x="1040.0" y="764.0"/>
      <point x="872.0" y="726.0"/>
      <point x="686.0" y="726.0" type="curve" smooth="yes"/>
      <point x="632.0" y="726.0"/>
      <point x="572.0" y="726.0"/>
    </contour>
    <contour>
      <point x="108.0" y="196.0" type="line"/>
      <point x="968.0" y="196.0" type="line"/>
      <point x="968.0" y="382.0" type="line"/>
      <point x="108.0" y="382.0" type="line"/>
    </contour>
  </outline>
</glyph>
<glyph name="bitcoin" format="2">
  <advance width="1322.0"/>
  <unicode hex="20BF"/>
  <anchor x="661.0" y="0.0" name="bottom"/>
  <anchor x="710.0" y="-166.0" name="btm"/>
  <anchor x="652.0" y="1660.0" name="top"/>
  <outline>
    <contour>
      <point x="435.0" y="1426.0" type="line"/>
      <point x="547.0" y="1426.0" type="line"/>
      <point x="553.0" y="1704.0" type="line"/>
      <point x="441.0" y="1704.0" type="line"/>
    </contour>
    <contour>
      <point x="723.0" y="1426.0" type="line"/>
      <point x="835.0" y="1426.0" type="line"/>
      <point x="841.0" y="1704.0" type="line"/>
      <point x="729.0" y="1704.0" type="line"/>
    </contour>
    <contour>
      <point x="391.0" y="-184.0" type="line"/>
      <point x="503.0" y="-184.0" type="line"/>
      <point x="509.0" y="94.0" type="line"/>
      <point x="397.0" y="94.0" type="line"/>
    </contour>
    <contour>
      <point x="679.0" y="-184.0" type="line"/>
      <point x="791.0" y="-184.0" type="line"/>
      <point x="797.0" y="94.0" type="line"/>
      <point x="685.0" y="94.0" type="line"/>
    </contour>
    <component base="B"/>
  </outline>
</glyph>
<glyph name="numero" format="2">
  <advance width="2549.0"/>
  <unicode hex="2116"/>
  <outline>
    <contour>
      <point x="189.0" y="0.0" type="line"/>
      <point x="400.0" y="0.0" type="line"/>
      <point x="400.0" y="910.0" type="line"/>
      <point x="382.0" y="1351.0" type="line"/>
      <point x="292.0" y="1346.0" type="line"/>
      <point x="516.0" y="884.0" type="line"/>
      <point x="1050.0" y="0.0" type="line"/>
      <point x="1257.0" y="0.0" type="line"/>
      <point x="1257.0" y="1486.0" type="line"/>
      <point x="1045.0" y="1486.0" type="line"/>
      <point x="1045.0" y="530.0" type="line"/>
      <point x="1063.0" y="99.0" type="line"/>
      <point x="1159.0" y="99.0" type="line"/>
      <point x="949.0" y="558.0" type="line"/>
      <point x="395.0" y="1486.0" type="line"/>
      <point x="189.0" y="1486.0" type="line"/>
    </contour>
    <contour>
      <point x="1966.0" y="390.0" type="curve" smooth="yes"/>
      <point x="2249.0" y="390.0"/>
      <point x="2451.0" y="582.0"/>
      <point x="2455.0" y="926.0" type="curve" smooth="yes"/>
      <point x="2459.0" y="1232.0"/>
      <point x="2325.0" y="1494.0"/>
      <point x="1984.0" y="1494.0" type="curve" smooth="yes"/>
      <point x="1698.0" y="1494.0"/>
      <point x="1493.0" y="1307.0"/>
      <point x="1489.0" y="961.0" type="curve" smooth="yes"/>
      <point x="1485.0" y="658.0"/>
      <point x="1607.0" y="390.0"/>
    </contour>
    <contour>
      <point x="1970.0" y="551.0" type="curve" smooth="yes"/>
      <point x="1798.0" y="553.0"/>
      <point x="1715.0" y="725.0"/>
      <point x="1715.0" y="961.0" type="curve" smooth="yes"/>
      <point x="1715.0" y="1203.0"/>
      <point x="1807.0" y="1334.0"/>
      <point x="1978.0" y="1330.0" type="curve" smooth="yes"/>
      <point x="2151.0" y="1329.0"/>
      <point x="2230.0" y="1164.0"/>
      <point x="2230.0" y="931.0" type="curve" smooth="yes"/>
      <point x="2230.0" y="684.0"/>
      <point x="2142.0" y="548.0"/>
    </contour>
    <contour>
      <point x="1554.0" y="0.0" type="line"/>
      <point x="2402.0" y="0.0" type="line"/>
      <point x="2402.0" y="171.0" type="line"/>
      <point x="1554.0" y="171.0" type="line"/>
    </contour>
  </outline>
</glyph>
<glyph name="trademark" format="2">
  <advance width="2168.0"/>
  <unicode hex="2122"/>
  <outline>
    <contour>
      <point x="411.0" y="750.0" type="line"/>
      <point x="597.0" y="750.0" type="line"/>
      <point x="597.0" y="1351.0" type="line"/>
      <point x="847.0" y="1351.0" type="line"/>
      <point x="847.0" y="1506.0" type="line"/>
      <point x="167.0" y="1506.0" type="line"/>
      <point x="169.0" y="1351.0" type="line"/>
      <point x="411.0" y="1351.0" type="line"/>
    </contour>
    <contour>
      <point x="1153.0" y="750.0" type="line"/>
      <point x="1175.0" y="1263.0" type="line"/>
      <point x="1179.0" y="1421.0" type="line"/>
      <point x="1167.0" y="1421.0" type="line"/>
      <point x="1229.0" y="1252.0" type="line"/>
      <point x="1428.0" y="743.0" type="line"/>
      <point x="1548.0" y="743.0" type="line"/>
      <point x="1725.0" y="1252.0" type="line"/>
      <point x="1779.0" y="1419.0" type="line"/>
      <point x="1765.0" y="1419.0" type="line"/>
      <point x="1773.0" y="1263.0" type="line"/>
      <point x="1810.0" y="750.0" type="line"/>
      <point x="1990.0" y="750.0" type="line"/>
      <point x="1919.0" y="1506.0" type="line"/>
      <point x="1639.0" y="1506.0" type="line"/>
      <point x="1517.0" y="1123.0" type="line"/>
      <point x="1460.0" y="853.0" type="line"/>
      <point x="1523.0" y="853.0" type="line"/>
      <point x="1452.0" y="1123.0" type="line"/>
      <point x="1316.0" y="1506.0" type="line"/>
      <point x="1019.0" y="1506.0" type="line"/>
      <point x="979.0" y="750.0" type="line"/>
    </contour>
  </outline>
</glyph>
<glyph name="Ohm" format="2">
  <advance width="883.66667"/>
  <unicode hex="2126"/>
  <outline>
    <contour>
      <point x="373.489" y="76.311" type="line"/>
      <point x="301.333" y="125.467"/>
      <point x="213.0" y="250.0"/>
      <point x="212.356" y="412.978" type="curve" smooth="yes"/>
      <point x="212.0" y="581.0"/>
      <point x="328.0" y="650.0"/>
      <point x="439.0" y="650.0" type="curve" smooth="yes"/>
      <point x="544.0" y="650.0"/>
      <point x="657.0" y="580.0"/>
      <point x="657.378" y="412.978" type="curve" smooth="yes"/>
      <point x="658.0" y="250.0"/>
      <point x="585.867" y="125.467"/>
      <point x="508.778" y="76.311" type="curve"/>
      <point x="508.778" y="0.0" type="line"/>
      <point x="521.356" y="7.111"/>
      <point x="565.333" y="43.622"/>
      <point x="579.089" y="50.733" type="curve"/>
      <point x="679.333" y="102.6"/>
      <point x="775.089" y="249.778"/>
      <point x="775.622" y="417.756" type="curve" smooth="yes"/>
      <point x="776.333" y="639.6"/>
      <point x="632.511" y="754.0"/>
      <point x="438.956" y="754.0" type="curve" smooth="yes"/>
      <point x="267.756" y="754.0"/>
      <point x="95.178" y="652.6"/>
      <point x="94.289" y="417.756" type="curve" smooth="yes"/>
      <point x="93.756" y="249.778"/>
      <point x="207.4" y="102.067"/>
      <point x="288.467" y="57.844" type="curve"/>
      <point x="373.489" y="0.0" type="line"/>
    </contour>
    <contour>
      <point x="94.511" y="0.0" type="line"/>
      <point x="373.489" y="0.0" type="line"/>
      <point x="289.0" y="80.511" type="line"/>
      <point x="94.511" y="80.511" type="line"/>
    </contour>
    <contour>
      <point x="794.911" y="0.0" type="line"/>
      <point x="794.911" y="80.511" type="line"/>
      <point x="562.667" y="80.511" type="line"/>
      <point x="508.778" y="0.0" type="line"/>
    </contour>
  </outline>
</glyph>
<glyph name="estimated" format="2">
  <advance width="1342.0"/>
  <unicode hex="212E"/>
  <outline>
    <contour>
      <point x="711.0" y="-16.0" type="curve" smooth="yes"/>
      <point x="868.0" y="-16.0"/>
      <point x="1056.0" y="32.0"/>
      <point x="1140.0" y="92.0" type="curve"/>
      <point x="1089.0" y="217.0" type="line"/>
      <point x="1023.0" y="176.0"/>
      <point x="879.0" y="116.0"/>
      <point x="730.0" y="116.0" type="curve" smooth="yes"/>
      <point x="587.0" y="116.0"/>
      <point x="462.0" y="154.0"/>
      <point x="383.0" y="262.0" type="curve"/>
      <point x="383.0" y="610.0" type="line"/>
      <point x="1229.0" y="610.0" type="line"/>
      <point x="1241.0" y="660.0"/>
      <point x="1241.0" y="728.0"/>
      <point x="1241.0" y="812.0" type="curve"/>
      <point x="1229.0" y="1134.0"/>
      <point x="999.0" y="1330.0"/>
      <point x="715.0" y="1324.0" type="curve" smooth="yes"/>
      <point x="302.0" y="1318.0"/>
      <point x="103.0" y="1038.0"/>
      <point x="103.0" y="656.0" type="curve" smooth="yes"/>
      <point x="103.0" y="236.0"/>
      <point x="326.0" y="-16.0"/>
    </contour>
    <contour>
      <point x="383.0" y="750.0" type="line"/>
      <point x="383.0" y="1042.0" type="line"/>
      <point x="458.0" y="1148.0"/>
      <point x="575.0" y="1192.0"/>
      <point x="703.0" y="1192.0" type="curve" smooth="yes"/>
      <point x="840.0" y="1192.0"/>
      <point x="926.0" y="1151.0"/>
      <point x="979.0" y="1089.0" type="curve"/>
      <point x="979.0" y="750.0" type="line"/>
    </contour>
  </outline>
</glyph>
<glyph name="emptyset" format="2">
  <advance width="1360.0"/>
  <unicode hex="2205"/>
  <outline>
    <contour>
      <point x="100.0" y="566.0" type="curve" smooth="yes"/>
      <point x="96.0" y="244.0"/>
      <point x="358.0" y="-14.0"/>
      <point x="680.0" y="-14.0" type="curve"/>
      <point x="1000.0" y="-14.0"/>
      <point x="1262.0" y="244.0"/>
      <point x="1260.0" y="566.0" type="curve" smooth="yes"/>
      <point x="1258.0" y="888.0"/>
      <point x="1000.0" y="1146.0"/>
      <point x="680.0" y="1146.0" type="curve" smooth="yes"/>
      <point x="360.0" y="1146.0"/>
      <point x="104.0" y="888.0"/>
    </contour>
    <contour>
      <point x="302.0" y="560.0" type="curve" smooth="yes"/>
      <point x="302.0" y="770.0"/>
      <point x="468.0" y="946.0"/>
      <point x="678.0" y="946.0" type="curve" smooth="yes"/>
      <point x="888.0" y="946.0"/>
      <point x="1050.0" y="770.0"/>
      <point x="1048.0" y="560.0" type="curve" smooth="yes"/>
      <point x="1046.0" y="352.0"/>
      <point x="888.0" y="178.0"/>
      <point x="678.0" y="178.0" type="curve" smooth="yes"/>
      <point x="468.0" y="178.0"/>
      <point x="302.0" y="352.0"/>
    </contour>
    <contour>
      <point x="1152.0" y="1246.0" type="line"/>
      <point x="130.0" y="-18.0" type="line"/>
      <point x="230.0" y="-96.0" type="line"/>
      <point x="1254.0" y="1168.0" type="line"/>
    </contour>
  </outline>
</glyph>
<glyph name="increment" format="2">
  <advance width="1548.0"/>
  <unicode hex="2206"/>
  <outline>
    <contour>
      <point x="72.0" y="0.0" type="line"/>
      <point x="1474.0" y="0.0" type="line"/>
      <point x="1490.0" y="26.0" type="line"/>
      <point x="760.0" y="1472.0" type="line"/>
      <point x="730.0" y="1472.0" type="line"/>
      <point x="58.0" y="22.0" type="line"/>
    </contour>
    <contour>
      <point x="352.0" y="184.0" type="line"/>
      <point x="753.0" y="1072.0" type="line"/>
      <point x="1177.0" y="184.0" type="line"/>
    </contour>
  </outline>
</glyph>
<glyph name="product" format="2">
  <advance width="1627.0"/>
  <unicode hex="220F"/>
  <outline>
    <contour>
      <point x="557.0" y="-166.0" type="line"/>
      <point x="557.0" y="1329.0" type="line"/>
      <point x="542.0" y="1313.0" type="line"/>
      <point x="1083.0" y="1313.0" type="line"/>
      <point x="1069.0" y="1329.0" type="line"/>
      <point x="1069.0" y="-166.0" type="line"/>
      <point x="1303.0" y="-166.0" type="line"/>
      <point x="1303.0" y="1329.0" type="line"/>
      <point x="1288.0" y="1313.0" type="line"/>
      <point x="1499.0" y="1313.0" type="line"/>
      <point x="1499.0" y="1486.0" type="line"/>
      <point x="128.0" y="1486.0" type="line"/>
      <point x="128.0" y="1313.0" type="line"/>
      <point x="337.0" y="1313.0" type="line"/>
      <point x="322.0" y="1335.0" type="line"/>
      <point x="322.0" y="-166.0" type="line"/>
    </contour>
  </outline>
</glyph>
<glyph name="summation" format="2">
  <advance width="1533.0"/>
  <unicode hex="2211"/>
  <outline>
    <contour>
      <point x="235.0" y="-166.0" type="line"/>
      <point x="1273.0" y="-166.0" type="line"/>
      <point x="1273.0" y="-3.0" type="line"/>
      <point x="409.0" y="-3.0" type="line"/>
      <point x="470.0" y="-90.0" type="line"/>
      <point x="984.0" y="667.0" type="line"/>
      <point x="442.0" y="1416.0" type="line"/>
      <point x="357.0" y="1313.0" type="line"/>
      <point x="1254.0" y="1313.0" type="line"/>
      <point x="1254.0" y="1486.0" type="line"/>
      <point x="237.0" y="1486.0" type="line"/>
      <point x="209.0" y="1408.0" type="line"/>
      <point x="747.0" y="661.0" type="line"/>
      <point x="209.0" y="-112.0" type="line"/>
    </contour>
  </outline>
</glyph>
<glyph name="minus" format="2">
  <advance width="1320.0"/>
  <unicode hex="2212"/>
  <outline>
    <contour>
      <point x="245.0" y="659.0" type="line"/>
      <point x="1075.0" y="659.0" type="line"/>
      <point x="1075.0" y="845.0" type="line"/>
      <point x="245.0" y="845.0" type="line"/>
    </contour>
  </outline>
</glyph>
<glyph name="divisionslash" format="2">
  <advance width="834.0"/>
  <unicode hex="2215"/>
  <outline>
    <contour>
      <point x="-63.0" y="-354.0" type="line"/>
      <point x="139.0" y="-354.0" type="line"/>
      <point x="897.0" y="1562.0" type="line"/>
      <point x="695.0" y="1562.0" type="line"/>
    </contour>
  </outline>
</glyph>
<glyph name="notequal" format="2">
  <advance width="1370.0"/>
  <unicode hex="2260"/>
  <outline>
    <contour>
      <point x="399.0" y="198.0" type="line"/>
      <point x="569.0" y="198.0" type="line"/>
      <point x="688.0" y="522.0" type="line"/>
      <point x="694.0" y="538.0" type="line"/>
      <point x="863.0" y="1006.0" type="line"/>
      <point x="869.0" y="1020.0" type="line"/>
      <point x="969.0" y="1288.0" type="line"/>
      <point x="797.0" y="1288.0" type="line"/>
      <point x="698.0" y="1020.0" type="line"/>
      <point x="692.0" y="1006.0" type="line"/>
      <point x="525.0" y="538.0" type="line"/>
      <point x="519.0" y="524.0" type="line"/>
    </contour>
    <component base="equal"/>
  </outline>
</glyph>
<glyph name="lozenge" format="2">
  <advance width="1172.0"/>
  <unicode hex="25CA"/>
  <outline>
    <contour>
      <point x="52.0" y="756.0" type="line"/>
      <point x="52.0" y="744.0" type="line"/>
      <point x="584.0" y="0.0" type="line"/>
      <point x="588.0" y="0.0" type="line"/>
      <point x="1119.0" y="744.0" type="line"/>
      <point x="1119.0" y="756.0" type="line"/>
      <point x="588.0" y="1484.0" type="line"/>
      <point x="584.0" y="1484.0" type="line"/>
    </contour>
    <contour>
      <point x="584.0" y="1186.0" type="line"/>
      <point x="588.0" y="1186.0" type="line"/>
      <point x="895.0" y="754.0" type="line"/>
      <point x="895.0" y="750.0" type="line"/>
      <point x="588.0" y="298.0" type="line"/>
      <point x="584.0" y="298.0" type="line"/>
      <point x="276.0" y="748.0" type="line"/>
      <point x="276.0" y="754.0" type="line"/>
    </contour>
  </outline>
</glyph>
<glyph name=".notdef" format="2">
  <advance width="1830.0"/>
  <outline>
    <contour>
      <point x="223.0" y="0.0" type="line"/>
      <point x="1607.0" y="0.0" type="line"/>
      <point x="1607.0" y="1382.0" type="line"/>
      <point x="223.0" y="1382.0" type="line"/>
    </contour>
    <contour>
      <point x="573.0" y="214.0" type="line"/>
      <point x="449.0" y="354.0" type="line"/>
      <point x="797.0" y="688.0" type="line"/>
      <point x="447.0" y="1042.0" type="line"/>
      <point x="567.0" y="1166.0" type="line"/>
      <point x="917.0" y="806.0" type="line"/>
      <point x="1259.0" y="1164.0" type="line"/>
      <point x="1385.0" y="1042.0" type="line"/>
      <point x="1031.0" y="692.0" type="line"/>
      <point x="1385.0" y="334.0" type="line"/>
      <point x="1265.0" y="214.0" type="line"/>
      <point x="913.0" y="574.0" type="line"/>
    </contour>
  </outline>
</glyph>
<glyph name="a.sc" format="2">
  <advance width="1334.0"/>
  <anchor x="668.0" y="0.0" name="bottom"/>
  <anchor x="671.0" y="-218.0" name="btm"/>
  <anchor x="1222.0" y="0.0" name="ogonek"/>
  <anchor x="672.0" y="1800.0" name="top"/>
  <outline>
    <contour>
      <point x="266.0" y="0.0" type="line"/>
      <point x="630.0" y="952.0" type="line"/>
      <point x="672.0" y="1084.0" type="line"/>
      <point x="712.0" y="952.0" type="line"/>
      <point x="1063.0" y="0.0" type="line"/>
      <point x="1314.0" y="0.0" type="line"/>
      <point x="787.0" y="1305.0" type="line"/>
      <point x="552.0" y="1305.0" type="line"/>
      <point x="18.0" y="0.0" type="line"/>
    </contour>
    <contour>
      <point x="286.0" y="295.0" type="line"/>
      <point x="1020.0" y="295.0" type="line"/>
      <point x="981.0" y="468.0" type="line"/>
      <point x="326.0" y="468.0" type="line"/>
    </contour>
  </outline>
</glyph>
<glyph name="acutecomb.case" format="2">
  <anchor x="0.0" y="1660.0" name="_top"/>
  <anchor x="0.0" y="2048.0" name="top"/>
  <outline>
    <contour>
      <point x="-60.0" y="1619.0" type="line"/>
      <point x="52.0" y="1659.0"/>
      <point x="232.0" y="1796.0"/>
      <point x="322.0" y="1890.0" type="curve"/>
      <point x="171.0" y="2020.0" type="line"/>
      <point x="165.0" y="2006.0"/>
      <point x="-152.0" y="1718.0"/>
      <point x="-160.0" y="1712.0" type="curve"/>
    </contour>
  </outline>
</glyph>
<glyph name="ae.sc" format="2">
  <advance width="1773.0"/>
  <anchor x="887.0" y="0.0" name="bottom"/>
  <anchor x="1306.0" y="-144.0" name="btm"/>
  <anchor x="1072.0" y="1826.0" name="top"/>
  <outline>
    <contour>
      <point x="-76.0" y="0.0" type="line"/>
      <point x="183.0" y="0.0" type="line"/>
      <point x="786.0" y="1196.0" type="line"/>
      <point x="612.0" y="1292.0" type="line"/>
    </contour>
    <contour>
      <point x="796.0" y="1292.0" type="line"/>
      <point x="612.0" y="1292.0" type="line"/>
      <point x="642.0" y="1110.0" type="line"/>
      <point x="868.0" y="1110.0" type="line"/>
    </contour>
    <contour>
      <point x="227.0" y="316.0" type="line"/>
      <point x="951.0" y="316.0" type="line"/>
      <point x="921.0" y="486.0" type="line"/>
      <point x="268.0" y="486.0" type="line"/>
    </contour>
    <contour>
      <point x="796.0" y="0.0" type="line"/>
      <point x="1697.0" y="0.0" type="line"/>
      <point x="1697.0" y="186.0" type="line"/>
      <point x="1032.0" y="186.0" type="line"/>
      <point x="1032.0" y="576.0" type="line"/>
      <point x="1476.0" y="576.0" type="line"/>
      <point x="1476.0" y="755.0" type="line"/>
      <point x="1032.0" y="755.0" type="line"/>
      <point x="1032.0" y="1112.0" type="line"/>
      <point x="1630.0" y="1112.0" type="line"/>
      <point x="1630.0" y="1292.0" type="line"/>
      <point x="796.0" y="1292.0" type="line"/>
    </contour>
  </outline>
</glyph>
<glyph name="b.sc" format="2">
  <advance width="1284.0"/>
  <anchor x="632.0" y="0.0" name="bottom"/>
  <anchor x="686.0" y="-144.0" name="btm"/>
  <anchor x="628.0" y="1800.0" name="top"/>
  <outline>
    <contour>
      <point x="172.0" y="0.0" type="line"/>
      <point x="290.0" y="0.0" type="line"/>
      <point x="364.0" y="-4.0"/>
      <point x="504.0" y="-12.0"/>
      <point x="608.0" y="-12.0" type="curve" smooth="yes"/>
      <point x="1054.0" y="-12.0"/>
      <point x="1188.0" y="156.0"/>
      <point x="1188.0" y="390.0" type="curve" smooth="yes"/>
      <point x="1188.0" y="550.0"/>
      <point x="1054.0" y="680.0"/>
      <point x="880.0" y="692.0" type="curve"/>
      <point x="1030.0" y="728.0"/>
      <point x="1096.0" y="860.0"/>
      <point x="1096.0" y="988.0" type="curve" smooth="yes"/>
      <point x="1096.0" y="1180.0"/>
      <point x="946.0" y="1304.0"/>
      <point x="614.0" y="1304.0" type="curve" smooth="yes"/>
      <point x="472.0" y="1304.0"/>
      <point x="378.0" y="1292.0"/>
      <point x="284.0" y="1292.0" type="curve"/>
      <point x="172.0" y="1294.0" type="line"/>
    </contour>
    <contour>
      <point x="402.0" y="748.0" type="curve"/>
      <point x="402.0" y="1126.0" type="line"/>
      <point x="428.0" y="1134.0"/>
      <point x="538.0" y="1138.0"/>
      <point x="578.0" y="1138.0" type="curve" smooth="yes"/>
      <point x="762.0" y="1138.0"/>
      <point x="864.0" y="1084.0"/>
      <point x="864.0" y="962.0" type="curve" smooth="yes"/>
      <point x="864.0" y="812.0"/>
      <point x="776.0" y="744.0"/>
      <point x="642.0" y="744.0" type="curve" smooth="yes"/>
      <point x="578.0" y="744.0"/>
      <point x="466.0" y="740.0"/>
    </contour>
    <contour>
      <point x="402.0" y="174.0" type="curve"/>
      <point x="402.0" y="578.0" type="line"/>
      <point x="452.0" y="584.0"/>
      <point x="554.0" y="582.0"/>
      <point x="632.0" y="582.0" type="curve" smooth="yes"/>
      <point x="846.0" y="582.0"/>
      <point x="942.0" y="518.0"/>
      <point x="942.0" y="374.0" type="curve" smooth="yes"/>
      <point x="942.0" y="208.0"/>
      <point x="828.0" y="154.0"/>
      <point x="626.0" y="154.0" type="curve" smooth="yes"/>
      <point x="554.0" y="154.0"/>
      <point x="434.0" y="156.0"/>
    </contour>
  </outline>
</glyph>
<glyph name="braceleft.case" format="2">
  <advance width="946.0"/>
  <outline>
    <contour>
      <point x="319.0" y="58.0" type="line"/>
      <point x="319.0" y="-134.0"/>
      <point x="365.0" y="-194.0"/>
      <point x="516.0" y="-194.0" type="curve" smooth="yes"/>
      <point x="623.0" y="-194.0"/>
      <point x="709.0" y="-183.0"/>
      <point x="793.0" y="-160.0" type="curve"/>
      <point x="793.0" y="-43.0" type="line"/>
      <point x="534.0" y="-43.0" type="line"/>
      <point x="534.0" y="556.0" type="line" smooth="yes"/>
      <point x="534.0" y="590.0"/>
      <point x="518.0" y="619.0"/>
      <point x="494.0" y="645.0" type="curve" smooth="yes"/>
      <point x="445.0" y="697.0"/>
      <point x="351.0" y="740.0"/>
      <point x="267.0" y="770.0" type="curve"/>
      <point x="267.0" y="746.0" type="line"/>
      <point x="349.0" y="779.0"/>
      <point x="443.0" y="814.0"/>
      <point x="491.0" y="863.0" type="curve" smooth="yes"/>
      <point x="518.0" y="887.0"/>
      <point x="534.0" y="918.0"/>
      <point x="534.0" y="956.0" type="curve" smooth="yes"/>
      <point x="534.0" y="1552.0" type="line"/>
      <point x="793.0" y="1552.0" type="line"/>
      <point x="793.0" y="1680.0" type="line"/>
      <point x="709.0" y="1691.0"/>
      <point x="623.0" y="1704.0"/>
      <point x="516.0" y="1704.0" type="curve" smooth="yes"/>
      <point x="365.0" y="1704.0"/>
      <point x="319.0" y="1644.0"/>
      <point x="319.0" y="1452.0" type="curve" smooth="yes"/>
      <point x="319.0" y="956.0" type="line" smooth="yes"/>
      <point x="319.0" y="896.0"/>
      <point x="171.0" y="842.0"/>
      <point x="73.0" y="832.0" type="curve"/>
      <point x="73.0" y="686.0" type="line"/>
      <point x="171.0" y="676.0"/>
      <point x="319.0" y="612.0"/>
      <point x="319.0" y="554.0" type="curve" smooth="yes"/>
    </contour>
  </outline>
</glyph>
<glyph name="brevecomb.case" format="2">
  <anchor x="0.0" y="1660.0" name="_top"/>
  <anchor x="0.0" y="2010.0" name="top"/>
  <outline>
    <contour>
      <point x="0.0" y="1594.0" type="curve" smooth="yes"/>
      <point x="213.0" y="1594.0"/>
      <point x="354.0" y="1774.0"/>
      <point x="340.0" y="1948.0" type="curve"/>
      <point x="186.0" y="1948.0" type="line"/>
      <point x="183.0" y="1919.0"/>
      <point x="181.0" y="1769.0"/>
      <point x="2.0" y="1769.0" type="curve" smooth="yes"/>
      <point x="-178.0" y="1769.0"/>
      <point x="-178.0" y="1919.0"/>
      <point x="-180.0" y="1948.0" type="curve"/>
      <point x="-338.0" y="1948.0" type="line"/>
      <point x="-352.0" y="1774.0"/>
      <point x="-223.0" y="1594.0"/>
    </contour>
  </outline>
</glyph>
<glyph name="brevecomb_acutecomb.case" format="2">
  <anchor x="0.0" y="1660.0" name="_top"/>
  <anchor x="7.0" y="2300.0" name="top"/>
  <outline>
    <contour>
      <point x="7.0" y="1591.0" type="curve" smooth="yes"/>
      <point x="224.0" y="1591.0"/>
      <point x="359.0" y="1742.0"/>
      <point x="344.0" y="1922.0" type="curve"/>
      <point x="192.0" y="1922.0" type="line"/>
      <point x="191.0" y="1894.0"/>
      <point x="186.0" y="1764.0"/>
      <point x="7.0" y="1764.0" type="curve" smooth="yes"/>
      <point x="-173.0" y="1764.0"/>
      <point x="-174.0" y="1894.0"/>
      <point x="-174.0" y="1922.0" type="curve"/>
      <point x="-331.0" y="1922.0" type="line"/>
      <point x="-345.0" y="1742.0"/>
      <point x="-222.0" y="1591.0"/>
    </contour>
    <contour>
      <point x="-52.0" y="1896.0" type="line"/>
      <point x="57.0" y="1935.0"/>
      <point x="240.0" y="2073.0"/>
      <point x="329.0" y="2170.0" type="curve"/>
      <point x="175.0" y="2300.0" type="line"/>
      <point x="167.0" y="2279.0"/>
      <point x="-141.0" y="2002.0"/>
      <point x="-153.0" y="1992.0" type="curve"/>
    </contour>
  </outline>
</glyph>
<glyph name="brevecomb_gravecomb.case" format="2">
  <anchor x="0.0" y="1660.0" name="_top"/>
  <anchor x="0.0" y="2338.0" name="top"/>
  <outline>
    <contour>
      <point x="0.0" y="1591.0" type="curve" smooth="yes"/>
      <point x="217.0" y="1591.0"/>
      <point x="352.0" y="1742.0"/>
      <point x="338.0" y="1922.0" type="curve"/>
      <point x="186.0" y="1922.0" type="line"/>
      <point x="185.0" y="1894.0"/>
      <point x="180.0" y="1764.0"/>
      <point x="0.0" y="1764.0" type="curve" smooth="yes"/>
      <point x="-180.0" y="1764.0"/>
      <point x="-180.0" y="1894.0"/>
      <point x="-181.0" y="1922.0" type="curve"/>
      <point x="-338.0" y="1922.0" type="line"/>
      <point x="-352.0" y="1742.0"/>
      <point x="-228.0" y="1591.0"/>
    </contour>
    <contour>
      <point x="154.0" y="2030.0" type="line"/>
      <point x="145.0" y="2040.0"/>
      <point x="-165.0" y="2318.0"/>
      <point x="-171.0" y="2338.0" type="curve"/>
      <point x="-327.0" y="2208.0" type="line"/>
      <point x="-251.0" y="2119.0"/>
      <point x="-38.0" y="1968.0"/>
      <point x="55.0" y="1935.0" type="curve"/>
    </contour>
  </outline>
</glyph>
<glyph name="brevecomb_gravecomb" format="2">
  <anchor x="0.0" y="1660.0" name="_top"/>
  <anchor x="0.0" y="1966.0" name="top"/>
  <outline>
    <contour>
      <point x="7.0" y="1278.0" type="curve" smooth="yes"/>
      <point x="224.0" y="1278.0"/>
      <point x="359.0" y="1438.0"/>
      <point x="344.0" y="1618.0" type="curve"/>
      <point x="192.0" y="1618.0" type="line"/>
      <point x="191.0" y="1590.0"/>
      <point x="186.0" y="1451.0"/>
      <point x="7.0" y="1451.0" type="curve" smooth="yes"/>
      <point x="-173.0" y="1451.0"/>
      <point x="-174.0" y="1590.0"/>
      <point x="-174.0" y="1618.0" type="curve"/>
      <point x="-331.0" y="1618.0" type="line"/>
      <point x="-345.0" y="1438.0"/>
      <point x="-222.0" y="1278.0"/>
    </contour>
    <contour>
      <point x="34.0" y="1638.0" type="curve"/>
      <point x="138.0" y="1731.0" type="line"/>
      <point x="35.0" y="1843.0"/>
      <point x="-47.0" y="1935.0"/>
      <point x="-106.0" y="2025.0" type="curve"/>
      <point x="-254.0" y="1907.0" type="line"/>
      <point x="-199.0" y="1817.0"/>
      <point x="-35.0" y="1667.0"/>
    </contour>
  </outline>
</glyph>
<glyph name="brevecomb_hookabovecomb.case" format="2">
  <anchor x="0.0" y="1660.0" name="_top"/>
  <anchor x="13.0" y="2382.0" name="top"/>
  <outline>
    <contour>
      <point x="7.0" y="1591.0" type="curve" smooth="yes"/>
      <point x="224.0" y="1591.0"/>
      <point x="359.0" y="1742.0"/>
      <point x="344.0" y="1922.0" type="curve"/>
      <point x="192.0" y="1922.0" type="line"/>
      <point x="191.0" y="1894.0"/>
      <point x="186.0" y="1764.0"/>
      <point x="7.0" y="1764.0" type="curve" smooth="yes"/>
      <point x="-173.0" y="1764.0"/>
      <point x="-174.0" y="1894.0"/>
      <point x="-174.0" y="1922.0" type="curve"/>
      <point x="-331.0" y="1922.0" type="line"/>
      <point x="-345.0" y="1742.0"/>
      <point x="-222.0" y="1591.0"/>
    </contour>
    <contour>
      <point x="-36.0" y="1967.0" type="curve"/>
      <point x="66.0" y="1967.0" type="line"/>
      <point x="50.0" y="2018.0"/>
      <point x="73.0" y="2072.0"/>
      <point x="93.0" y="2089.0" type="curve" smooth="yes"/>
      <point x="147.0" y="2136.0"/>
      <point x="219.0" y="2171.0"/>
      <point x="219.0" y="2278.0" type="curve" smooth="yes"/>
      <point x="219.0" y="2392.0"/>
      <point x="123.0" y="2466.0"/>
      <point x="-17.0" y="2466.0" type="curve" smooth="yes"/>
      <point x="-70.0" y="2466.0"/>
      <point x="-150.0" y="2453.0"/>
      <point x="-193.0" y="2425.0" type="curve"/>
      <point x="-189.0" y="2294.0" type="line"/>
      <point x="-166.0" y="2309.0"/>
      <point x="-109.0" y="2326.0"/>
      <point x="-63.0" y="2326.0" type="curve" smooth="yes"/>
      <point x="8.0" y="2326.0"/>
      <point x="47.0" y="2301.0"/>
      <point x="47.0" y="2247.0" type="curve"/>
      <point x="47.0" y="2163.0"/>
      <point x="-61.0" y="2159.0"/>
      <point x="-61.0" y="2058.0" type="curve"/>
      <point x="-61.0" y="2021.0"/>
      <point x="-49.0" y="1995.0"/>
    </contour>
  </outline>
</glyph>
<glyph name="brevecomb_tildecomb" format="2">
  <anchor x="0.0" y="1660.0" name="_top"/>
  <anchor x="6.0" y="2013.0" name="top"/>
  <outline>
    <contour>
      <point x="7.0" y="1278.0" type="curve" smooth="yes"/>
      <point x="224.0" y="1278.0"/>
      <point x="359.0" y="1438.0"/>
      <point x="344.0" y="1618.0" type="curve"/>
      <point x="192.0" y="1618.0" type="line"/>
      <point x="191.0" y="1590.0"/>
      <point x="186.0" y="1451.0"/>
      <point x="7.0" y="1451.0" type="curve" smooth="yes"/>
      <point x="-173.0" y="1451.0"/>
      <point x="-174.0" y="1590.0"/>
      <point x="-174.0" y="1618.0" type="curve"/>
      <point x="-331.0" y="1618.0" type="line"/>
      <point x="-345.0" y="1438.0"/>
      <point x="-222.0" y="1278.0"/>
    </contour>
    <contour>
      <point x="143.0" y="1743.0" type="curve" smooth="yes"/>
      <point x="244.0" y="1743.0"/>
      <point x="320.0" y="1828.0"/>
      <point x="345.0" y="1936.0" type="curve"/>
      <point x="256.0" y="1980.0" type="line"/>
      <point x="234.0" y="1931.0"/>
      <point x="218.0" y="1885.0"/>
      <point x="155.0" y="1886.0" type="curve" smooth="yes"/>
      <point x="71.0" y="1888.0"/>
      <point x="43.0" y="2013.0"/>
      <point x="-97.0" y="2013.0" type="curve" smooth="yes"/>
      <point x="-200.0" y="2013.0"/>
      <point x="-276.0" y="1928.0"/>
      <point x="-301.0" y="1824.0" type="curve"/>
      <point x="-212.0" y="1777.0" type="line"/>
      <point x="-190.0" y="1826.0"/>
      <point x="-171.0" y="1874.0"/>
      <point x="-110.0" y="1872.0" type="curve" smooth="yes"/>
      <point x="-26.0" y="1870.0"/>
      <point x="3.0" y="1743.0"/>
    </contour>
  </outline>
</glyph>
<glyph name="circumflexcomb.case" format="2">
  <anchor x="0.0" y="1660.0" name="_top"/>
  <anchor x="0.0" y="2036.0" name="top"/>
  <outline>
    <contour>
      <point x="-218.0" y="1614.0" type="line"/>
      <point x="-2.0" y="1811.0" type="line"/>
      <point x="212.0" y="1614.0" type="line"/>
      <point x="356.0" y="1677.0" type="line"/>
      <point x="98.0" y="1971.0" type="line"/>
      <point x="-100.0" y="1971.0" type="line"/>
      <point x="-356.0" y="1675.0" type="line"/>
    </contour>
  </outline>
</glyph>
<glyph name="circumflexcomb_gravecomb.case" format="2">
  <anchor x="1.0" y="1660.0" name="_top"/>
  <anchor x="87.0" y="2234.0" name="top"/>
  <outline>
    <contour>
      <point x="-215.0" y="1582.0" type="line"/>
      <point x="1.0" y="1779.0" type="line"/>
      <point x="214.0" y="1582.0" type="line"/>
      <point x="358.0" y="1645.0" type="line"/>
      <point x="99.0" y="1939.0" type="line"/>
      <point x="-96.0" y="1939.0" type="line"/>
      <point x="-353.0" y="1643.0" type="line"/>
    </contour>
    <contour>
      <point x="526.0" y="1926.0" type="line"/>
      <point x="517.0" y="1936.0"/>
      <point x="207.0" y="2214.0"/>
      <point x="201.0" y="2234.0" type="curve"/>
      <point x="45.0" y="2104.0" type="line"/>
      <point x="121.0" y="2015.0"/>
      <point x="334.0" y="1864.0"/>
      <point x="427.0" y="1831.0" type="curve"/>
    </contour>
  </outline>
</glyph>
<glyph name="circumflexcomb_hookabovecomb" format="2">
  <anchor x="0.0" y="1660.0" name="_top"/>
  <anchor x="83.0" y="1979.0" name="top"/>
  <outline>
    <contour>
      <point x="-256.0" y="1232.0" type="line"/>
      <point x="0.0" y="1429.0" type="line"/>
      <point x="246.0" y="1234.0" type="line"/>
      <point x="366.0" y="1293.0" type="line"/>
      <point x="98.0" y="1592.0" type="line"/>
      <point x="-86.0" y="1598.0" type="line"/>
      <point x="-366.0" y="1293.0" type="line"/>
    </contour>
    <contour>
      <point x="289.0" y="1536.0" type="curve"/>
      <point x="409.0" y="1536.0" type="line"/>
      <point x="393.0" y="1582.0"/>
      <point x="411.0" y="1629.0"/>
      <point x="430.0" y="1644.0" type="curve" smooth="yes"/>
      <point x="484.0" y="1685.0"/>
      <point x="530.0" y="1717.0"/>
      <point x="530.0" y="1813.0" type="curve" smooth="yes"/>
      <point x="530.0" y="1914.0"/>
      <point x="440.0" y="1979.0"/>
      <point x="309.0" y="1979.0" type="curve" smooth="yes"/>
      <point x="258.0" y="1979.0"/>
      <point x="184.0" y="1968.0"/>
      <point x="143.0" y="1942.0" type="curve"/>
      <point x="147.0" y="1826.0" type="line"/>
      <point x="168.0" y="1840.0"/>
      <point x="221.0" y="1856.0"/>
      <point x="265.0" y="1856.0" type="curve" smooth="yes"/>
      <point x="329.0" y="1856.0"/>
      <point x="365.0" y="1833.0"/>
      <point x="365.0" y="1785.0" type="curve" smooth="yes"/>
      <point x="365.0" y="1710.0"/>
      <point x="267.0" y="1707.0"/>
      <point x="267.0" y="1618.0" type="curve" smooth="yes"/>
      <point x="267.0" y="1585.0"/>
      <point x="279.0" y="1562.0"/>
    </contour>
  </outline>
</glyph>
<glyph name="dblgravecomb.case" format="2">
  <anchor x="0.0" y="830.0" name="_top"/>
  <anchor x="-54.111" y="1012.067" name="top"/>
  <outline>
    <contour>
      <point x="117.0" y="809.0" type="curve"/>
      <point x="181.0" y="847.0" type="line"/>
      <point x="175.0" y="852.0"/>
      <point x="82.0" y="979.0"/>
      <point x="79.0" y="989.0" type="curve"/>
      <point x="-11.0" y="944.0" type="line"/>
      <point x="29.0" y="890.0"/>
      <point x="80.0" y="831.0"/>
    </contour>
    <contour>
      <point x="-116.0" y="809.0" type="curve"/>
      <point x="-52.0" y="847.0" type="line"/>
      <point x="-58.0" y="852.0"/>
      <point x="-155.0" y="977.0"/>
      <point x="-158.0" y="986.0" type="curve"/>
      <point x="-243.0" y="941.0" type="line"/>
      <point x="-208.0" y="890.0"/>
      <point x="-155.0" y="831.0"/>
    </contour>
  </outline>
</glyph>
<glyph name="delta.sc" format="2">
  <advance width="1550.0"/>
  <outline>
    <contour>
      <point x="74.0" y="0.0" type="line"/>
      <point x="1474.0" y="0.0" type="line"/>
      <point x="1490.0" y="26.0" type="line"/>
      <point x="776.0" y="1306.0" type="line"/>
      <point x="746.0" y="1306.0" type="line"/>
      <point x="60.0" y="22.0" type="line"/>
    </contour>
    <contour>
      <point x="336.0" y="184.0" type="line"/>
      <point x="768.0" y="946.0" type="line"/>
      <point x="1178.0" y="184.0" type="line"/>
    </contour>
  </outline>
</glyph>
<glyph name="dieresiscomb.case" format="2">
  <anchor x="0.0" y="1660.0" name="_top"/>
  <anchor x="0.0" y="2016.0" name="top"/>
  <outline>
    <contour>
      <point x="-256.0" y="1618.0" type="curve" smooth="yes"/>
      <point x="-170.0" y="1618.0"/>
      <point x="-95.0" y="1681.0"/>
      <point x="-95.0" y="1773.0" type="curve" smooth="yes"/>
      <point x="-95.0" y="1851.0"/>
      <point x="-140.0" y="1910.0"/>
      <point x="-234.0" y="1910.0" type="curve" smooth="yes"/>
      <point x="-317.0" y="1910.0"/>
      <point x="-395.0" y="1842.0"/>
      <point x="-395.0" y="1753.0" type="curve" smooth="yes"/>
      <point x="-395.0" y="1670.0"/>
      <point x="-332.0" y="1618.0"/>
    </contour>
    <contour>
      <point x="233.0" y="1618.0" type="curve" smooth="yes"/>
      <point x="320.0" y="1618.0"/>
      <point x="395.0" y="1681.0"/>
      <point x="395.0" y="1773.0" type="curve" smooth="yes"/>
      <point x="395.0" y="1851.0"/>
      <point x="349.0" y="1910.0"/>
      <point x="254.0" y="1910.0" type="curve" smooth="yes"/>
      <point x="174.0" y="1910.0"/>
      <point x="95.0" y="1842.0"/>
      <point x="95.0" y="1753.0" type="curve" smooth="yes"/>
      <point x="95.0" y="1670.0"/>
      <point x="156.0" y="1618.0"/>
    </contour>
  </outline>
</glyph>
<glyph name="e.sc" format="2">
  <advance width="1146.0"/>
  <anchor x="630.0" y="0.0" name="bottom"/>
  <anchor x="636.0" y="-144.0" name="btm"/>
  <anchor x="960.0" y="0.0" name="ogonek"/>
  <anchor x="622.0" y="1792.0" name="top"/>
  <anchor x="28.0" y="1292.0" name="topleft"/>
  <outline>
    <contour>
      <point x="172.0" y="0.0" type="line"/>
      <point x="1074.0" y="0.0" type="line"/>
      <point x="1074.0" y="186.0" type="line"/>
      <point x="404.0" y="186.0" type="line"/>
      <point x="404.0" y="574.0" type="line"/>
      <point x="854.0" y="574.0" type="line"/>
      <point x="854.0" y="752.0" type="line"/>
      <point x="404.0" y="752.0" type="line"/>
      <point x="404.0" y="1112.0" type="line"/>
      <point x="1008.0" y="1112.0" type="line"/>
      <point x="1008.0" y="1292.0" type="line"/>
      <point x="172.0" y="1292.0" type="line"/>
    </contour>
  </outline>
</glyph>
<glyph name="eight.dnom" format="2">
  <advance width="1031.0"/>
  <outline>
    <contour>
      <point x="527.0" y="-12.0" type="curve" smooth="yes"/>
      <point x="761.0" y="-12.0"/>
      <point x="935.0" y="94.0"/>
      <point x="933.0" y="306.0" type="curve" smooth="yes"/>
      <point x="931.0" y="595.0"/>
      <point x="336.0" y="606.0"/>
      <point x="336.0" y="837.0" type="curve" smooth="yes"/>
      <point x="336.0" y="917.0"/>
      <point x="418.0" y="970.0"/>
      <point x="521.0" y="970.0" type="curve" smooth="yes"/>
      <point x="637.0" y="970.0"/>
      <point x="704.0" y="908.0"/>
      <point x="704.0" y="834.0" type="curve" smooth="yes"/>
      <point x="704.0" y="737.0"/>
      <point x="638.0" y="660.0"/>
      <point x="524.0" y="628.0" type="curve"/>
      <point x="609.0" y="546.0" type="line"/>
      <point x="801.0" y="597.0"/>
      <point x="884.0" y="729.0"/>
      <point x="884.0" y="847.0" type="curve" smooth="yes"/>
      <point x="884.0" y="998.0"/>
      <point x="746.0" y="1102.0"/>
      <point x="523.0" y="1102.0" type="curve" smooth="yes"/>
      <point x="299.0" y="1102.0"/>
      <point x="149.0" y="990.0"/>
      <point x="149.0" y="823.0" type="curve" smooth="yes"/>
      <point x="149.0" y="468.0"/>
      <point x="730.0" y="485.0"/>
      <point x="730.0" y="273.0" type="curve" smooth="yes"/>
      <point x="730.0" y="179.0"/>
      <point x="638.0" y="120.0"/>
      <point x="528.0" y="120.0" type="curve" smooth="yes"/>
      <point x="375.0" y="120.0"/>
      <point x="301.0" y="201.0"/>
      <point x="301.0" y="292.0" type="curve" smooth="yes"/>
      <point x="301.0" y="388.0"/>
      <point x="390.0" y="459.0"/>
      <point x="500.0" y="498.0" type="curve"/>
      <point x="411.0" y="582.0" type="line"/>
      <point x="194.0" y="511.0"/>
      <point x="108.0" y="389.0"/>
      <point x="108.0" y="280.0" type="curve" smooth="yes"/>
      <point x="108.0" y="90.0"/>
      <point x="293.0" y="-12.0"/>
    </contour>
  </outline>
</glyph>
<glyph name="eight.osf" format="2">
  <advance width="644.0"/>
  <outline>
    <contour>
      <point x="327.0" y="-8.0" type="curve" smooth="yes"/>
      <point x="462.0" y="-8.0"/>
      <point x="577.0" y="60.0"/>
      <point x="576.0" y="196.0" type="curve" smooth="yes"/>
      <point x="574.0" y="398.0"/>
      <point x="203.0" y="421.0"/>
      <point x="203.0" y="588.0" type="curve" smooth="yes"/>
      <point x="203.0" y="648.0"/>
      <point x="256.0" y="684.0"/>
      <point x="323.0" y="684.0" type="curve" smooth="yes"/>
      <point x="398.0" y="684.0"/>
      <point x="443.0" y="642.0"/>
      <point x="440.0" y="580.0" type="curve" smooth="yes"/>
      <point x="440.0" y="520.0"/>
      <point x="405.0" y="456.0"/>
      <point x="329.0" y="432.0" type="curve"/>
      <point x="388.0" y="383.0" type="line"/>
      <point x="499.0" y="426.0"/>
      <point x="546.0" y="519.0"/>
      <point x="546.0" y="594.0" type="curve" smooth="yes"/>
      <point x="546.0" y="696.0"/>
      <point x="458.0" y="764.0"/>
      <point x="327.0" y="764.0" type="curve" smooth="yes"/>
      <point x="198.0" y="764.0"/>
      <point x="96.0" y="700.0"/>
      <point x="96.0" y="581.0" type="curve" smooth="yes"/>
      <point x="96.0" y="342.0"/>
      <point x="461.0" y="350.0"/>
      <point x="461.0" y="183.0" type="curve" smooth="yes"/>
      <point x="461.0" y="113.0"/>
      <point x="396.0" y="73.0"/>
      <point x="330.0" y="73.0" type="curve" smooth="yes"/>
      <point x="226.0" y="73.0"/>
      <point x="178.0" y="121.0"/>
      <point x="178.0" y="196.0" type="curve" smooth="yes"/>
      <point x="178.0" y="270.0"/>
      <point x="233.0" y="328.0"/>
      <point x="308.0" y="354.0" type="curve"/>
      <point x="245.0" y="403.0" type="line"/>
      <point x="117.0" y="349.0"/>
      <point x="68.0" y="265.0"/>
      <point x="68.0" y="188.0" type="curve" smooth="yes"/>
      <point x="68.0" y="48.0"/>
      <point x="197.0" y="-8.0"/>
    </contour>
  </outline>
</glyph>
